<svg width="512" height="512" viewBox="0 0 512 512" fill="none" xmlns="http://www.w3.org/2000/svg">
<g clip-path="url(#clip0_10_2)">
<path d="M0 0H512V512H0V0Z" fill="white"/>
<circle cx="307" cy="261" r="150" fill="#985ED1"/>
<path d="M223.851 162.064C224.335 162.02 224.849 161.96 225.332 162.037C227.625 162.405 229.75 164.447 231.068 166.371C232.659 168.697 234.454 172.787 233.896 175.684C233.736 176.511 233.185 177.114 232.519 177.547C231.161 178.432 229.624 177.809 228.209 177.446L226.875 177.031C224.426 176.205 221.998 175.125 219.727 173.856C218.782 173.328 217.773 172.816 217.296 171.743C217.001 171.078 216.886 170.396 217.141 169.698C217.893 167.646 220.16 164.351 221.833 163.075C222.422 162.625 223.178 162.348 223.851 162.064Z" fill="#010B11"/>
<path d="M223.828 165L224.118 165.041C224.548 165.099 224.99 165.151 225.382 165.346C227.644 166.466 230.005 170.017 230.72 172.327C230.977 173.154 231.181 174.084 230.75 174.879C229.743 175.302 227.854 174.503 226.827 174.211L221.366 172.224C220.757 171.958 219.18 171.299 219.032 170.659C218.867 169.943 219.37 168.993 219.748 168.401C220.725 166.874 221.973 165.433 223.828 165Z" fill="white"/>
<path d="M390.115 161.03C391.392 160.987 392.721 160.915 393.927 161.434C395.909 162.287 397.203 164.096 398.014 166.09C398.745 167.889 399.449 170.311 398.638 172.179C397.213 175.459 392.011 176.578 389.041 177.655C387.461 178.156 383.676 179.676 382.215 178.655C381.707 178.299 381.394 177.477 381.245 176.889C380.432 173.677 381.778 169.529 383.283 166.742C384.77 163.986 387.191 161.9 390.115 161.03Z" fill="#010B11"/>
<path d="M390.686 164.018C391.449 163.971 392.126 163.996 392.833 164.313C394.194 164.923 395.175 166.359 395.623 167.695C395.997 168.814 396.251 170.438 395.596 171.506C394.271 173.665 389.573 174.606 387.258 175.286C385.988 175.634 384.823 175.898 383.504 176L383.056 175.613C382.772 174.026 383.631 171.981 384.26 170.518C385.553 167.505 387.515 165.277 390.686 164.018Z" fill="white"/>
<path d="M302.492 166.14C309.841 165.683 317.576 166.412 324.866 167.348C330.39 168.056 335.963 168.748 341.403 169.972C355.356 173.11 369.569 179.389 380.911 188.299C384.576 191.178 387.862 194.516 391.025 197.939C402.607 210.474 411.758 226.222 413.882 243.487C415.765 243.096 417.664 242.868 419.579 243.146C422.747 243.608 425.403 246.291 427.264 248.765C432.71 256.003 434.598 263.799 434.936 272.766C435.061 276.086 435.036 279.551 434.568 282.841C433.561 289.929 430.55 297.565 424.662 301.909C421.132 304.514 417.398 303.798 413.399 303.143C413.021 303.573 412.91 304.882 412.769 305.512L411.363 310.866C409.751 316.325 407.593 321.266 404.172 325.825C400.068 331.295 394.49 335.543 388.652 338.943C376.772 345.862 364.381 349.208 350.886 351.087C352.495 351.542 353.917 351.658 355.477 352.408C357.999 353.622 360.3 355.34 362.524 357.034C371.216 363.654 378.372 372.22 382.926 382.278L386.112 389.959C386.891 392.122 387.536 394.607 388.569 396.64C389.989 399.433 394.465 400.766 395.371 404.01C395.715 405.243 395.038 407.305 394.79 408.561C394.3 411.047 394.106 414.021 392.741 416.217C391.896 417.574 390.694 418.012 389.234 418.385C387.082 418.934 383.667 415.028 381.87 413.942C380.345 414.388 379.018 415.005 377.61 415.741C376.943 415.29 376.377 414.832 375.898 414.172C374.282 411.946 373.275 409.006 372.133 406.498L367.085 395.866C362.992 387.709 357.723 378.472 350.226 373.112C350.74 375.492 351.445 377.846 351.825 380.251C353.08 388.205 351.527 396.232 349.243 403.849C345.402 416.66 336.459 428.444 325.457 435.773C323.596 437.013 321.543 437.994 319.577 439.052L330.623 438.748C338.195 438.338 345.861 437.39 353.323 436.032L364.645 433.439C366.804 432.831 368.926 431.875 371.148 431.555C371.634 431.895 371.663 431.9 371.845 432.464C371.641 433.113 371.413 433.627 370.943 434.126C368.612 436.601 363.642 437.527 360.447 438.284C350.172 440.719 339.596 442.037 329.062 442.553L311.175 443L295.399 442.927C281.189 442.625 266.249 441.941 252.473 438.087C249.874 437.36 247.136 436.617 244.76 435.3C243.624 434.67 242.636 434.099 242.247 432.791C242.356 432.2 242.365 432.055 242.745 431.604C243.974 431.501 245.441 432.163 246.604 432.55L251.687 434.09C264.969 437.798 278.756 438.697 292.467 438.734C282.61 433.757 274.182 425.533 268.757 415.798C263.122 405.686 259.853 393.153 261.444 381.52C261.84 378.625 262.681 375.733 263.446 372.92C258.879 375.737 255.552 380.147 252.619 384.585C248.668 390.563 245.305 397 242.27 403.504C240.729 406.804 239.461 410.404 237.596 413.522C237.146 414.276 236.374 415.33 235.528 415.641C234.152 416.148 231.19 414.335 229.93 413.763C228.282 415.173 226.899 417.136 224.932 418.106C223.882 418.623 222.561 418.72 221.469 418.275C220.46 417.864 219.578 417.022 219.211 415.976C218.426 413.735 218.098 411.245 217.721 408.907C217.547 407.83 216.974 405.875 217.095 404.828C217.155 404.303 217.632 403.537 217.904 403.08C218.893 401.411 220.225 400.171 221.629 398.873C222.576 397.998 223.627 397.206 224.167 395.993C224.96 394.211 225.433 392.201 226.067 390.349C227.199 387.035 228.502 383.851 230.057 380.717C235.885 368.965 246.833 357.672 258.735 352.228C260.149 351.581 261.655 351.155 263.127 350.664C259.983 350.392 256.858 350.125 253.752 349.533C248.589 348.55 243.415 346.933 238.441 345.238C231.472 342.863 224.841 340.067 218.761 335.817C214.447 332.801 210.257 329.054 207.288 324.652C203.175 318.554 200.911 310.265 199.588 303.074C197.258 303.099 195.054 303.758 192.678 303.298C188.445 302.479 185.099 299.349 182.798 295.791C177.21 287.15 177.229 273.867 179.204 264.045C180.736 256.426 184.129 248.779 190.797 244.412C193.829 242.426 196.646 242.682 199.994 243.388C203.105 227.107 210.03 212.859 221.045 200.62C235.331 184.746 254.34 174.209 274.945 169.533C284.083 167.459 293.155 166.58 302.492 166.14Z" fill="#010B11"/>
<path d="M414.945 259.633L414 246.891C415.467 246.589 417.612 245.888 419.088 246.015C419.509 246.051 420.369 246.585 420.728 246.833C424.604 249.516 427.647 255.744 429 260.304C428.554 260.454 428.208 260.518 427.742 260.551C426.556 260.632 425.647 261.323 424.546 261.53C423.17 261.788 421.733 261.693 420.342 261.941C419.714 262.052 419.43 262.006 418.824 261.811L416.97 261.259C416.447 260.31 415.903 260.002 414.945 259.633Z" fill="white"/>
<path d="M344.5 362C342.968 359.674 340.844 357.017 338.856 355.043C341.466 354.934 344.092 354.399 346.699 354.532C352.819 354.845 359.1 359.849 363.445 363.787C367.064 367.066 371.412 371.172 373.856 375.384L373.712 375.511L373.334 375.357L373.12 375.008L372.853 374.692C372.439 374.107 371.878 373.504 371.516 372.902C371.271 372.494 371.08 372.248 370.73 371.917L370.285 371.48C369.928 370.908 370.317 371.287 369.957 370.932L369.377 370.373L369.055 369.846C368.214 369.727 363.485 365.646 363.445 365.378C363.208 365.298 363.903 365.24 363.653 365.22C362.765 365.868 362 367 362 367C362 367 363.998 368.629 364.5 369.5L365.229 372.27L367.356 372.902L365.229 375.511C362.673 374.567 359.277 369.177 357.19 367.416L353.356 365.28C350.61 363.334 351.33 362.56 347.856 362.011C346.591 361.811 345.788 361.957 344.5 362Z" fill="#5ED0D1"/>
<path d="M403 248L410.417 248.106C411.189 253.94 411.367 259.896 411.606 265.772C411.984 275.028 412.239 284.472 411.657 293.717C411.557 295.304 411.632 297.388 411.173 298.891L410.554 299L405.771 298.991C405.607 298.58 405.789 297.952 405.844 297.51L406.288 293.487C406.819 288.025 407.037 282.65 406.912 277.158C406.776 271.163 406.105 265.025 405.06 259.133C404.401 255.416 403.428 251.756 403 248Z" fill="white"/>
<path d="M183 272.745C183.561 266.058 183.068 259.365 186.528 253.406C187.935 250.98 191.157 246.574 193.946 246.089C195.117 245.885 196.979 246.002 197.932 246.756C198.116 248.007 197.881 249.401 197.776 250.664L197.155 258.026L196.557 272.551C195.315 272.976 193.716 272.792 192.415 272.811L186.995 273L183 272.745Z" fill="white"/>
<path d="M221 405.394C221.492 404.604 222.27 403.952 222.925 403.297C224.417 401.801 225.964 400.328 226.981 398.432C228.638 395.343 229.433 391.622 230.733 388.342C234.408 379.07 240.433 370.18 247.934 363.732C252.893 359.469 260.311 353.538 266.951 353.037C269.592 352.837 272.367 353.502 275 353.743L269.188 361.244C266.214 359.759 263.174 360.859 260.218 361.899C250.649 365.264 244.256 372.657 238.858 381.061C236.886 384.131 234.959 387.268 233.307 390.535C230.867 395.361 228.938 400.277 225.404 404.401C225.152 404.694 224.329 405.717 224.007 405.835C223.345 406.078 221.881 406.007 221.179 405.912L221 405.394Z" fill="white"/>
<path d="M201.919 248L211 248.261L207.794 261.513C205.502 273.166 205.665 285.133 207.286 296.854L207.549 298.975L200.908 299C200.054 293.247 199.997 287.321 200 281.522L200.664 260.209L201.919 248Z" fill="white"/>
<path d="M187.189 272.444L192.517 272.258C193.797 272.238 195.368 272.421 196.59 272L196.599 273.535L197 298.272C195.531 298.632 193.764 299.107 192.252 298.979C190.407 298.823 188.805 297.333 187.665 295.855C182.822 289.573 182.626 279.97 183.261 272.192L187.189 272.444Z" fill="#B6F7FD"/>
<path d="M210.85 243.174C209.053 244.267 206.041 243.973 204 243.938C205.453 236.973 207.664 229.954 210.58 223.484C217.207 208.779 228.303 196.534 241.776 187.948C248.909 183.402 256.627 179.48 264.5 176.5H265.5L266.5 179C263.467 181.575 259.457 183.453 255.903 185.149L246.893 189.822C243.991 191.514 241.014 193.275 238.337 195.314C226.657 204.211 218.569 216.551 213.908 230.485L211.542 238.865C211.297 239.767 210.825 240.771 210.719 241.693C210.667 242.158 210.737 242.521 210.821 242.968L210.85 243.174Z" fill="white"/>
<path d="M277.253 422C269.735 412.35 265.757 401.528 265.057 389.247C264.471 378.969 268.486 369.043 274.379 360.854C276.107 358.452 278.115 356.221 280.062 354L288 355.014L287.948 355.269C287.638 356.2 286.266 357.43 285.648 358.274L282.706 362.679C280.171 366.609 277.385 370.83 275.362 375.046C270.08 386.051 269.877 396.928 274.354 408.218L280.921 421.811C279.621 421.691 278.529 421.621 277.253 422Z" fill="white"/>
<path d="M415 259C415.974 259.344 416.528 259.632 417.059 260.519L418.944 261.034C419.561 261.216 419.85 261.259 420.488 261.155C421.902 260.924 423.363 261.012 424.763 260.771C425.882 260.579 426.806 259.933 428.012 259.857C428.486 259.827 428.046 259.14 428.5 259L430.826 264.347C431.103 265.282 431.219 267.232 431.219 267.232C431.219 267.232 431.219 267.232 431.552 268.548L431.997 271.162V271.708V281.18C432.097 286.883 429.426 291.855 425.121 296.286C423.46 297.997 421.411 298.923 419.001 298.997C417.77 299.035 416.483 298.698 415.313 298.358L415.523 274.389L415.494 271.708L415 259Z" fill="#B6ECF3"/>
<path d="M221.285 405.189L221.462 405.712C222.157 405.807 223.607 405.878 224.263 405.634C224.581 405.515 225.396 404.485 225.645 404.19C229.145 400.037 231.054 395.086 233.471 390.225C235.107 386.936 237.015 383.776 238.968 380.685C244.313 372.222 250.643 364.777 260.118 361.387C263.045 360.34 266.056 359.233 269 360.727L266.203 365.464C266.054 365.731 265.599 366.77 265.41 366.904C264.689 367.416 263.533 367.699 262.723 368.182C259.795 369.929 257.316 372.033 254.995 374.576C252.293 377.534 250.082 381.044 247.989 384.489C242.864 392.925 239.016 401.756 234.965 410.773C233.38 409.482 232.231 408.439 230.076 408.77C228.883 408.953 227.809 409.746 226.982 410.621C225.933 411.732 223.958 415.689 222.244 414.896C221.092 412.455 221.055 408.461 221 405.751L221.285 405.189Z" fill="#B6ECF3"/>
<path d="M344 361.133C345.284 361.089 346.806 360.885 348.068 361.089C351.533 361.651 354.407 364.252 357.146 366.245L357.435 366.493C359.516 368.296 361.631 371.758 364.18 372.725L364.82 372.677L365.164 372.169L364.137 369.727C363.637 368.836 362.451 367.951 361.724 367.2C362.312 366.257 362.706 365.616 363.593 364.952C363.842 364.973 364.104 364.931 364.34 365.014C364.617 365.111 368.607 369.221 368.981 369.689L369.302 370.228L369.88 370.8C370.24 371.163 369.852 370.776 370.208 371.361L370.652 371.809C371 372.147 371.191 372.399 371.436 372.817C371.796 373.433 372.356 374.051 372.769 374.649L373.036 374.973L373.249 375.331L373.627 375.488L373.77 375.358C378.835 381.537 381.475 390.054 384.061 397.524L384.044 397.596C385.695 400.631 387.681 403.024 390.478 405.062L390.803 405.304L391 405.446C390.791 408.364 390.483 411.243 389.458 414C387.401 412.398 383.588 407.645 380.905 408.001C379.708 408.16 378.569 408.767 377.493 409.29C376.319 407.302 375.105 405.179 374.4 402.967C374.349 402.958 373.357 400.737 373.245 400.487C369.287 391.661 365.008 383.136 358.903 375.606C356.457 373.214 353.89 371.018 350.911 369.323C349.887 368.741 348.105 368.251 347.262 367.576C347.002 367.367 346.473 365.777 346.293 365.392C345.615 363.939 344.762 362.544 344 361.133Z" fill="#5ED0D1"/>
<path d="M288.046 354.948L309.226 354.948L307.726 378.5L305.226 403L301.726 425.5L300.726 433C300.546 434.332 300.499 436.905 299.726 438C291.12 434.847 282.974 429.187 277.226 422C278.506 421.624 278.922 420.381 280.226 420.5L273.5 407.5C269.008 396.301 270.118 385.288 275.418 374.371C277.448 370.19 280.242 366.002 282.785 362.103L285.737 357.734C286.358 356.897 287.735 355.871 288.046 354.948Z" fill="#B6ECF3"/>
<path d="M309.009 354.891L325.986 354.675L331.321 354.212C331.652 354.177 332.822 353.93 333.084 354.02C333.163 354.047 333.626 354.544 333.722 354.638L336.343 357.237C343.486 364.653 348.036 375.35 348 385.826C347.949 400.484 341.726 415.85 331.589 426.107C324.389 433.392 315.099 439.132 304.745 438.998C303.109 438.977 300.341 438.751 299 437.774C299.764 436.661 299.784 434.736 299.961 433.382L300.933 426.687L304.721 403.801L307.047 378.571L309.009 354.891Z" fill="#5ED0D1"/>
<path d="M264.665 176.656C282.455 170.452 301.15 169.047 319.817 170.558C334.226 171.725 349.17 174.879 362.22 181.33C369.278 184.818 376.013 189.104 381.968 194.312C393.056 204.009 402.139 217.724 406.886 231.761L410 243.871C407.186 243.779 403.996 243.194 401.238 243.418C400.833 243.45 400.45 243.638 400.152 243.915C399.419 244.598 399.163 245.528 399.176 246.514C399.22 249.937 400.393 253.706 401.088 257.064C403.302 267.436 404.063 278.341 403.114 288.909L402.202 296.232C401.954 297.83 401.565 299.6 401.563 301.214C401.562 301.551 401.666 301.777 401.841 302.053C403.727 303.267 407.179 302.832 409.378 302.849C408.729 304.754 408.359 306.809 407.818 308.754C406.747 312.602 405.344 316.461 403.2 319.834C400.706 323.757 397.121 327.067 393.499 329.893C383.499 337.697 371.297 342.946 359.029 345.665C347.811 348.151 336.192 349.928 324.728 350.697C318.99 351.083 313.217 351.001 307.469 350.974C292.909 350.907 278.952 349.89 264.583 347.41C250.155 344.919 235.505 341.002 223.086 332.85C211.269 325.094 206.884 316.439 204 302.741C205.654 302.791 209.233 303.271 210.59 302.276C212.006 301.239 211.259 298.359 211.041 296.855C209.229 284.402 209.015 272.412 211.422 260.006L214.396 247.006C214.502 246.432 214.538 245.947 214.482 245.362C214.405 244.57 214.273 243.931 213.619 243.433C212.724 242.751 211.905 242.936 210.869 243.084L210.84 242.877C210.756 242.429 210.685 242.064 210.738 241.598C210.843 240.671 211.317 239.664 211.563 238.758L213.935 230.347C218.608 216.359 226.717 203.971 238.429 195.04C241.113 192.994 244.098 191.226 247.007 189.527L256.042 184.837C259.605 183.134 263.124 181.528 266.165 178.942L265.441 176.976L264.665 176.656Z" fill="url(#paint0_linear_10_2)"/>
<path d="M221.631 250.871C224.198 247.137 227.049 243.616 230.592 240.785C235.318 237.009 241.03 234.559 246.674 232.57C253.466 230.175 260.53 228.362 267.608 227.079C284.488 224.022 301.578 223.498 318.668 224.395C333.755 225.186 349.144 227.119 363.463 232.164C368.975 234.106 374.501 236.415 379.293 239.842C386.11 244.716 390.687 251.989 394.259 259.464L395.913 264.792C398.372 274.712 398.43 284.964 397.261 295.068C396.379 302.69 394.989 310.28 391.024 316.965C389.135 320.149 387.003 323.138 384.301 325.667C381.559 328.233 378.275 330.213 374.967 331.931C368.752 335.16 362.193 337.425 355.414 339.101C342.448 342.307 329.211 343.472 315.901 343.85C305.628 344.142 295.307 344.058 285.062 343.144L270.484 341.181C257.412 339.182 244.222 336.536 232.808 329.425C224.532 324.269 219.144 317.179 216.925 307.578C213.605 293.212 212.65 277.809 216.507 263.47C217.704 259.023 219.205 254.798 221.631 250.871Z" fill="#010B11"/>
<path d="M254.999 234.234C259.558 232.986 264.133 231.829 268.788 231.006C282.951 228.503 297.325 227.749 311.681 228.07C328.088 228.436 344.654 230.144 360.276 235.519C365.006 237.146 369.674 238.984 374.02 241.509C383.007 246.731 389.393 255.647 392.088 265.761C393.819 272.256 394.131 278.694 393.958 285.382C393.68 296.097 392.108 306.816 386.711 316.205C380.961 326.207 368.785 331.113 358.276 333.869C344.892 337.38 330.592 339.208 316.791 339.812C302.301 340.447 287.582 339.434 273.236 337.328C260.569 335.467 247.174 332.969 236.058 326.17C233.928 324.866 231.879 323.331 230.035 321.634L227.837 319.288C223.96 314.579 222.079 309.532 220.58 303.657C218.155 292.972 217.143 282.864 218.848 271.986C220.054 266.033 221.398 259.885 224.336 254.527C231.362 241.721 241.875 237.986 254.999 234.234Z" fill="#B6ECF3"/>
<path d="M219 271.942C220.198 265.96 221.532 259.78 224.45 254.396C231.426 241.525 241.866 237.772 254.897 234C255.248 234.174 255.381 234.144 255.544 234.519C255.676 234.822 255.828 235.085 256 235.364C255.237 236.349 254.022 236.857 252.94 237.399C250.424 238.662 247.766 239.639 245.289 240.97C240.544 243.517 236.429 246.677 233.094 251.021C230.092 254.929 227.936 259.046 225.85 263.532L223.07 269.538C222.685 270.367 222.284 271.54 221.696 272.226C221.305 272.683 220.525 272.862 219.981 273L219.228 272.773L219 271.942Z" fill="white"/>
<path d="M288.283 300.056C288.717 299.991 289.022 299.959 289.447 300.096C292.811 301.186 292.701 306.134 294.295 308.903C296.326 312.431 299.812 315.448 303.812 316.488C307.09 317.34 310.378 316.663 313.259 314.985C316.796 312.925 319.775 309.57 320.844 305.608L319.096 303.995C318.98 303.233 319.012 302.929 319.302 302.214C320.047 301.5 320.77 300.896 321.872 300.98C322.804 301.051 323.685 301.735 324.257 302.429C325.269 303.658 324.998 305.391 324.863 306.855C324.357 308.305 324.011 309.669 323.305 311.061C321.516 314.59 318.309 317.777 314.879 319.74C311.2 321.847 306.854 322.626 302.727 321.453C296.692 319.74 291.087 314.055 288.949 308.252C288.446 306.887 288.61 305.04 287.949 303.838L286.536 303.456C286.152 303.006 285.949 302.728 286.011 302.106C286.082 301.392 286.56 300.833 287.163 300.469C287.491 300.271 287.916 300.162 288.283 300.056Z" fill="#010B11"/>
<path d="M252.707 255.083C257.688 254.649 262.29 255.91 266.266 259.017C271.622 263.202 274.901 270.334 275.772 276.998C276.497 282.552 275.529 287.934 272.37 292.594C268.891 297.727 263.679 300.667 257.719 301.814C253.275 302.484 248.488 301.3 244.704 298.911C239.552 295.658 235.953 290.465 234.607 284.495C233.128 277.934 234.391 270.828 237.959 265.156C241.469 259.576 246.353 256.493 252.707 255.083Z" fill="#010B11"/>
<path d="M252.459 259.118C255.57 258.747 258.687 259.234 261.439 260.853C263.892 262.295 265.963 264.601 266.69 267.527C267.394 270.353 266.859 273.439 265.493 275.964C263.303 280.009 260.126 282.413 255.928 283.641C252.607 284.396 249.358 284.005 246.454 282.042C243.806 280.255 241.816 277.461 241.198 274.176C240.669 271.362 241.207 268.046 242.753 265.652C245.099 262.016 248.416 259.966 252.459 259.118Z" fill="white"/>
<path d="M360.447 255C364.933 255.166 368.934 256.495 372.527 259.327C377.364 263.14 381.027 269.782 381.785 275.996C382.563 282.372 381.261 288.158 377.335 293.215C373.413 298.268 368.186 301.153 361.976 301.916C360.814 302.043 359.66 302.019 358.5 301.89C353.175 301.298 348.216 298.624 344.9 294.284C341.404 289.71 339.437 283.256 340.142 277.479C340.82 271.933 342.971 265.844 346.636 261.612C350.155 257.549 355.222 255.306 360.447 255Z" fill="#010B11"/>
<path d="M359.347 259.027C362.293 258.873 364.891 259.371 367.452 260.973C370.03 262.587 372.005 264.975 372.716 268.11C373.428 271.247 372.769 274.726 371.112 277.432C368.976 280.921 365.909 282.858 362.116 283.723L361.696 283.819C358.63 284.407 355.403 283.529 352.877 281.633C350.309 279.705 348.639 276.564 348.154 273.302C347.674 270.079 348.312 267.135 350.143 264.518C352.358 261.352 355.722 259.577 359.347 259.027Z" fill="white"/>
<path d="M140.441 268.749C176.164 265.206 192.906 239.107 189.867 208.471C186.829 177.835 155.406 155.872 119.683 159.415C83.9594 162.959 57.4633 190.666 60.5018 221.302C63.0531 247.025 85.0171 267.293 113.333 270.823C129.974 291.265 143.129 299.439 173.855 304.778C148.019 288.923 140.441 268.749 140.441 268.749Z" fill="#5ED0D1" stroke="black" stroke-width="4"/>
<path d="M200.549 163.063C222.458 162.189 237.578 149.335 243.204 129.242C249.692 106.074 231.469 82.5697 207.129 77.7418C182.789 72.9138 159.478 88.1436 155.062 111.758C151.354 131.586 165.584 153.325 183.548 161.906C190.254 180.725 185.043 175.033 201.981 199.051C196.592 175.49 200.549 163.063 200.549 163.063Z" fill="#66DCDC" stroke="black" stroke-width="4"/>
<path d="M320.6 378.88L318.84 385.16C318.827 385.2 318.833 385.24 318.86 385.28C318.887 385.32 318.92 385.34 318.96 385.34H322.28C322.32 385.34 322.353 385.32 322.38 385.28C322.407 385.24 322.413 385.2 322.4 385.16L320.64 378.88C320.64 378.867 320.633 378.86 320.62 378.86C320.607 378.86 320.6 378.867 320.6 378.88ZM315.42 391C315.14 391 314.92 390.887 314.76 390.66C314.6 390.433 314.567 390.187 314.66 389.92L318.8 377.48C318.92 377.16 319.113 376.9 319.38 376.7C319.66 376.5 319.967 376.4 320.3 376.4H321.02C321.367 376.4 321.673 376.5 321.94 376.7C322.22 376.9 322.413 377.16 322.52 377.48L326.66 389.92C326.753 390.187 326.72 390.433 326.56 390.66C326.4 390.887 326.18 391 325.9 391H325.18C324.86 391 324.56 390.9 324.28 390.7C324.013 390.487 323.833 390.22 323.74 389.9L323.1 387.64C323.087 387.533 323.013 387.48 322.88 387.48H318.36C318.24 387.48 318.167 387.533 318.14 387.64L317.5 389.9C317.42 390.22 317.24 390.487 316.96 390.7C316.693 390.9 316.393 391 316.06 391H315.42ZM330.186 391C329.88 391 329.613 390.887 329.386 390.66C329.16 390.433 329.046 390.167 329.046 389.86V377.54C329.046 377.233 329.16 376.967 329.386 376.74C329.613 376.513 329.88 376.4 330.186 376.4H330.986C331.293 376.4 331.56 376.513 331.786 376.74C332.013 376.967 332.126 377.233 332.126 377.54V389.86C332.126 390.167 332.013 390.433 331.786 390.66C331.56 390.887 331.293 391 330.986 391H330.186Z" fill="white"/>
<path d="M99.86 231C99.308 231 98.828 230.796 98.42 230.388C98.036 229.98 97.844 229.5 97.844 228.948V206.772C97.844 206.22 98.036 205.74 98.42 205.332C98.828 204.924 99.308 204.72 99.86 204.72H100.832C101.384 204.72 101.864 204.924 102.272 205.332C102.68 205.74 102.884 206.22 102.884 206.772V214.944C102.884 215.136 102.98 215.232 103.172 215.232H112.172C112.364 215.232 112.46 215.136 112.46 214.944V206.772C112.46 206.22 112.664 205.74 113.072 205.332C113.48 204.924 113.96 204.72 114.512 204.72H115.484C116.036 204.72 116.504 204.924 116.888 205.332C117.296 205.74 117.5 206.22 117.5 206.772V228.948C117.5 229.5 117.296 229.98 116.888 230.388C116.504 230.796 116.036 231 115.484 231H114.512C113.96 231 113.48 230.796 113.072 230.388C112.664 229.98 112.46 229.5 112.46 228.948V219.408C112.46 219.192 112.364 219.084 112.172 219.084H103.172C102.98 219.084 102.884 219.192 102.884 219.408V228.948C102.884 229.5 102.68 229.98 102.272 230.388C101.864 230.796 101.384 231 100.832 231H99.86ZM129.564 231C129.012 231 128.532 230.796 128.124 230.388C127.716 229.98 127.512 229.5 127.512 228.948V206.772C127.512 206.22 127.716 205.74 128.124 205.332C128.532 204.924 129.012 204.72 129.564 204.72H131.004C131.556 204.72 132.036 204.924 132.444 205.332C132.852 205.74 133.056 206.22 133.056 206.772V228.948C133.056 229.5 132.852 229.98 132.444 230.388C132.036 230.796 131.556 231 131.004 231H129.564ZM146.828 223.08C146.252 223.08 145.76 222.888 145.352 222.504C144.944 222.096 144.728 221.604 144.704 221.028L144.164 206.772C144.14 206.22 144.32 205.74 144.704 205.332C145.088 204.924 145.556 204.72 146.108 204.72H148.052C148.604 204.72 149.072 204.924 149.456 205.332C149.84 205.74 150.02 206.22 149.996 206.772L149.456 221.028C149.432 221.604 149.216 222.096 148.808 222.504C148.4 222.888 147.908 223.08 147.332 223.08H146.828ZM147.692 225.96C148.244 225.96 148.712 226.164 149.096 226.572C149.504 226.98 149.708 227.46 149.708 228.012V228.948C149.708 229.5 149.504 229.98 149.096 230.388C148.712 230.796 148.244 231 147.692 231H146.468C145.916 231 145.436 230.796 145.028 230.388C144.644 229.98 144.452 229.5 144.452 228.948V228.012C144.452 227.46 144.644 226.98 145.028 226.572C145.436 226.164 145.916 225.96 146.468 225.96H147.692Z" fill="white"/>
</g>
<defs>
<linearGradient id="paint0_linear_10_2" x1="310.658" y1="169.934" x2="304.893" y2="350.989" gradientUnits="userSpaceOnUse">
<stop stop-color="#B6ECF3"/>
<stop offset="1" stop-color="white"/>
</linearGradient>
<clipPath id="clip0_10_2">
<rect width="512" height="512" fill="white"/>
</clipPath>
</defs>
</svg>
