<?xml version="1.0" encoding="utf-8"?>
<!-- Generator: Adobe Illustrator 26.4.1, SVG Export Plug-In . SVG Version: 6.00 Build 0)  -->
<svg version="1.1" id="Слой_1" xmlns="http://www.w3.org/2000/svg" xmlns:xlink="http://www.w3.org/1999/xlink" x="0px" y="0px"
	 viewBox="0 0 595.28 841.89" style="enable-background:new 0 0 595.28 841.89;" xml:space="preserve">
<style type="text/css">
	.st0{fill:#2F2977;}
	.st1{fill:#FFFFFF;}
	.st2{fill:#56BBBC;}
	.st3{fill:#CEE0E0;}
	.st4{fill:#FFFFFF;stroke:#020203;stroke-width:0.25;stroke-miterlimit:10;}
	.st5{fill:#E63220;}
	.st6{fill:#2B3084;}
	.st7{fill:#3864AD;}
	.st8{fill:#020203;}
	.st9{font-family:'ArialMT';}
	.st10{font-size:13.723px;}
	.st11{fill:#D17B5E;}
	.st12{fill:#D2B55E;}
	.st13{fill:#F8B58D;}
	.st14{fill:#774711;}
</style>
<polygon class="st0" points="242.67,122.9 250.44,118.57 257.48,125.7 "/>
<polygon class="st0" points="407.32,476.18 415.11,471.88 403.84,465.86 "/>
<path class="st0" d="M411.32,472.69l-155.1-44.54c-3.17-0.91-5.76-5-5.8-9.13l-2.56-294.92c-0.04-4.13,2.5-6.74,5.67-5.83
	l155.1,44.54c3.17,0.91,5.76,5,5.8,9.13l2.56,294.92C417.03,470.99,414.49,473.6,411.32,472.69z"/>
<path class="st1" d="M404.65,475.35l-153.93-44.2c-3.01-0.86-5.47-4.74-5.51-8.67l-2.55-293.39c-0.03-3.92,2.38-6.4,5.39-5.54
	l153.93,44.2c3.01,0.86,5.47,4.74,5.51,8.67l2.55,293.39C410.07,473.74,407.66,476.22,404.65,475.35z"/>
<g>
	<path class="st2" d="M404.38,476.41l-155.1-44.54c-3.17-0.91-5.76-5-5.8-9.13l-2.56-294.92c-0.04-4.13,2.5-6.74,5.67-5.83
		l155.1,44.54c3.17,0.91,5.76,5,5.8,9.13l2.56,294.92C410.08,474.71,407.54,477.32,404.38,476.41z"/>
</g>
<g>
	<path class="st3" d="M386.85,444l-120.52-34.6c-4-1.15-7.28-6.31-7.33-11.53l-2-230.38c-0.05-5.22,3.16-8.52,7.16-7.37
		l120.52,34.61c4,1.15,7.28,6.31,7.33,11.53l2,230.38C394.06,441.85,390.85,445.15,386.85,444z"/>
</g>
<path class="st4" d="M347.78,273.09l-45.16-12.97c-4.48-1.29-8.15-7.06-8.2-12.9l-0.39-45.18c-0.05-5.84,3.54-9.53,8.01-8.24
	l45.16,12.97c4.48,1.29,8.15,7.06,8.2,12.9l0.39,45.18C355.84,270.69,352.25,274.38,347.78,273.09z"/>
<path class="st4" d="M347.81,378.04l-45.16-12.97c-4.48-1.29-8.15-7.06-8.2-12.9l-0.39-45.18c-0.05-5.84,3.54-9.53,8.01-8.24
	l45.16,12.97c4.48,1.29,8.15,7.06,8.2,12.9l0.39,45.18C355.88,375.64,352.29,379.33,347.81,378.04z"/>
<path class="st1" d="M343.53,292.41l-37.18-10.68c-8.38-2.41-15.24-13.21-15.34-24.13l-0.45-51.92
	c-0.09-10.92,6.62-17.83,14.99-15.43l37.18,10.68c8.38,2.41,15.24,13.21,15.34,24.13l0.45,51.92
	C358.61,287.9,351.9,294.81,343.53,292.41z"/>
<polygon class="st5" points="329.58,267.87 319.94,265.14 319.36,199.7 329.01,202.43 "/>
<polygon class="st5" points="355.48,247.98 294.27,230.36 294.17,217.78 355.37,235.4 "/>
<polyline class="st6" points="296.05,233.15 296.2,250.3 310.07,237.17 "/>
<polyline class="st6" points="302.58,257.49 317.29,262.06 317.12,242.62 "/>
<polyline class="st6" points="332.02,246.9 332.19,266.34 350.6,271.62 "/>
<polyline class="st6" points="339.01,245.48 353.91,249.76 354.04,264.63 "/>
<polyline class="st6" points="295.9,215.99 309.93,220.02 295.78,201.96 "/>
<polyline class="st6" points="317.78,217.71 317.63,200.66 304,196.75 302.04,196.18 "/>
<polyline class="st6" points="331.66,204.7 331.8,221.74 345.68,208.62 "/>
<polyline class="st6" points="339.73,228.58 353.76,232.61 353.61,215.46 "/>
<path class="st1" d="M343.53,393.92l-37.18-10.68c-8.38-2.41-15.24-13.21-15.34-24.13l-0.45-51.92
	c-0.09-10.92,6.62-17.83,14.99-15.43l37.18,10.68c8.38,2.41,15.24,13.21,15.34,24.13l0.45,51.92
	C358.62,389.42,351.91,396.33,343.53,393.92z"/>
<polyline class="st5" points="295.75,199.25 312.1,220.65 316.06,221.78 296.77,196.85 "/>
<polyline class="st5" points="353.73,266.41 337.38,245.01 333.42,243.88 352.71,268.81 "/>
<polyline class="st5" points="300.78,256.18 317.97,239.44 314.35,238.4 297.11,255.12 "/>
<polyline class="st5" points="334.58,227.1 351.76,210.36 348.15,209.32 330.91,226.05 "/>
<polygon class="st7" points="324.97,340.69 297.79,333.14 297.56,307.7 324.74,315.25 "/>
<polygon class="st5" points="351.95,327.76 324.78,319.96 324.74,315.39 351.91,323.19 "/>
<polygon class="st5" points="352.01,334.62 324.84,326.82 324.8,322.25 351.97,330.05 "/>
<polygon class="st5" points="352.08,341.63 324.91,333.82 324.87,329.25 352.04,337.06 "/>
<polygon class="st5" points="352.14,348.49 324.97,340.69 324.93,336.11 352.1,343.92 "/>
<polygon class="st5" points="352.2,355.35 297.85,339.74 297.81,335.17 352.16,350.78 "/>
<polygon class="st5" points="352.26,362.21 297.91,346.6 297.87,342.03 352.22,357.64 "/>
<polygon class="st5" points="352.32,369.07 297.97,353.46 297.93,348.89 352.28,364.5 "/>
<polygon class="st1" points="301.51,312.94 300.74,312.22 299.97,312.5 300.11,311.47 299.48,310.54 300.34,310.63 300.71,309.77 
	301.11,310.85 301.97,311.25 301.36,311.83 "/>
<polygon class="st1" points="305.02,313.95 304.24,313.22 303.48,313.5 303.61,312.48 302.98,311.54 303.84,311.64 304.22,310.78 
	304.62,311.86 305.48,312.26 304.86,312.84 "/>
<polygon class="st1" points="308.53,314.95 307.75,314.23 306.98,314.51 307.12,313.49 306.49,312.55 307.35,312.64 307.73,311.78 
	308.12,312.86 308.99,313.27 308.37,313.84 "/>
<polygon class="st1" points="312.03,315.96 311.26,315.24 310.49,315.52 310.63,314.49 310,313.56 310.86,313.65 311.23,312.79 
	311.63,313.87 312.49,314.28 311.88,314.85 "/>
<polygon class="st1" points="315.54,316.97 314.76,316.24 314,316.53 314.13,315.5 313.5,314.57 314.36,314.66 314.74,313.8 
	315.14,314.88 316,315.28 315.38,315.86 "/>
<polygon class="st1" points="319.05,317.98 318.27,317.25 317.5,317.53 317.64,316.51 317.01,315.57 317.87,315.66 318.25,314.8 
	318.64,315.89 319.51,316.29 318.89,316.87 "/>
<polygon class="st1" points="317.32,320.9 316.55,320.18 315.78,320.46 315.92,319.43 315.29,318.5 316.15,318.59 316.52,317.73 
	316.92,318.81 317.78,319.22 317.17,319.79 "/>
<polygon class="st1" points="313.82,319.9 313.04,319.17 312.27,319.45 312.41,318.43 311.78,317.49 312.64,317.58 313.02,316.72 
	313.41,317.81 314.28,318.21 313.66,318.79 "/>
<polygon class="st1" points="310.31,318.89 309.53,318.16 308.77,318.45 308.9,317.42 308.27,316.49 309.13,316.58 309.51,315.72 
	309.91,316.8 310.77,317.2 310.15,317.78 "/>
<polygon class="st1" points="306.8,317.88 306.03,317.16 305.26,317.44 305.4,316.41 304.77,315.48 305.63,315.57 306,314.71 
	306.4,315.79 307.26,316.2 306.65,316.77 "/>
<polygon class="st1" points="303.29,316.87 302.52,316.15 301.75,316.43 301.89,315.41 301.26,314.47 302.12,314.56 302.5,313.7 
	302.89,314.78 303.76,315.19 303.14,315.76 "/>
<polygon class="st1" points="320.83,321.91 320.05,321.18 319.29,321.47 319.42,320.44 318.79,319.51 319.65,319.6 320.03,318.74 
	320.43,319.82 321.29,320.22 320.67,320.8 "/>
<polygon class="st1" points="322.55,318.98 321.78,318.26 321.01,318.54 321.15,317.51 320.52,316.58 321.38,316.67 321.76,315.81 
	322.15,316.89 323.01,317.3 322.4,317.87 "/>
<polygon class="st1" points="301.57,319.8 300.8,319.08 300.03,319.36 300.17,318.33 299.54,317.4 300.4,317.49 300.77,316.63 
	301.17,317.71 302.03,318.11 301.41,318.69 "/>
<polygon class="st1" points="305.08,320.81 304.3,320.08 303.53,320.37 303.67,319.34 303.04,318.41 303.9,318.5 304.28,317.64 
	304.68,318.72 305.54,319.12 304.92,319.7 "/>
<polygon class="st1" points="308.58,321.82 307.81,321.09 307.04,321.37 307.18,320.35 306.55,319.41 307.41,319.5 307.79,318.64 
	308.18,319.73 309.05,320.13 308.43,320.71 "/>
<polygon class="st1" points="312.09,322.82 311.32,322.1 310.55,322.38 310.69,321.35 310.06,320.42 310.92,320.51 311.29,319.65 
	311.69,320.73 312.55,321.14 311.94,321.71 "/>
<polygon class="st1" points="315.6,323.83 314.82,323.1 314.06,323.39 314.19,322.36 313.56,321.43 314.42,321.52 314.8,320.66 
	315.2,321.74 316.06,322.14 315.44,322.72 "/>
<polygon class="st1" points="319.11,324.84 318.33,324.11 317.56,324.39 317.7,323.37 317.07,322.43 317.93,322.52 318.31,321.66 
	318.7,322.75 319.57,323.15 318.95,323.73 "/>
<polygon class="st1" points="317.38,327.76 316.61,327.04 315.84,327.32 315.98,326.3 315.35,325.36 316.21,325.45 316.58,324.59 
	316.98,325.67 317.84,326.08 317.22,326.65 "/>
<polygon class="st1" points="313.87,326.76 313.1,326.03 312.33,326.31 312.47,325.29 311.84,324.35 312.7,324.44 313.08,323.58 
	313.47,324.67 314.34,325.07 313.72,325.65 "/>
<polygon class="st1" points="310.37,325.75 309.59,325.02 308.82,325.31 308.96,324.28 308.33,323.35 309.19,323.44 309.57,322.58 
	309.97,323.66 310.83,324.06 310.21,324.64 "/>
<polygon class="st1" points="306.86,324.74 306.09,324.02 305.32,324.3 305.46,323.27 304.83,322.34 305.69,322.43 306.06,321.57 
	306.46,322.65 307.32,323.06 306.7,323.63 "/>
<polygon class="st1" points="303.35,323.74 302.58,323.01 301.81,323.29 301.95,322.27 301.32,321.33 302.18,321.42 302.56,320.56 
	302.95,321.65 303.82,322.05 303.2,322.63 "/>
<polygon class="st1" points="320.89,328.77 320.11,328.05 319.35,328.33 319.48,327.3 318.85,326.37 319.71,326.46 320.09,325.6 
	320.49,326.68 321.35,327.08 320.73,327.66 "/>
<polygon class="st1" points="322.61,325.84 321.84,325.12 321.07,325.4 321.21,324.38 320.58,323.44 321.44,323.53 321.81,322.67 
	322.21,323.75 323.07,324.16 322.46,324.73 "/>
<polygon class="st1" points="301.63,326.66 300.85,325.94 300.09,326.22 300.23,325.19 299.6,324.26 300.46,324.35 300.83,323.49 
	301.23,324.57 302.09,324.98 301.47,325.55 "/>
<polygon class="st1" points="305.14,327.67 304.36,326.94 303.59,327.23 303.73,326.2 303.1,325.27 303.96,325.36 304.34,324.5 
	304.73,325.58 305.6,325.98 304.98,326.56 "/>
<polygon class="st1" points="308.64,328.68 307.87,327.95 307.1,328.23 307.24,327.21 306.61,326.27 307.47,326.36 307.85,325.5 
	308.24,326.59 309.11,326.99 308.49,327.57 "/>
<polygon class="st1" points="312.15,329.68 311.38,328.96 310.61,329.24 310.75,328.22 310.12,327.28 310.98,327.37 311.35,326.51 
	311.75,327.59 312.61,328 311.99,328.57 "/>
<polygon class="st1" points="315.66,330.69 314.88,329.97 314.11,330.25 314.25,329.22 313.62,328.29 314.48,328.38 314.86,327.52 
	315.26,328.6 316.12,329 315.5,329.58 "/>
<polygon class="st1" points="319.16,331.7 318.39,330.97 317.62,331.25 317.76,330.23 317.13,329.29 317.99,329.39 318.37,328.53 
	318.76,329.61 319.63,330.01 319.01,330.59 "/>
<polygon class="st1" points="317.44,334.62 316.67,333.9 315.9,334.18 316.04,333.16 315.41,332.22 316.27,332.31 316.64,331.45 
	317.04,332.53 317.9,332.94 317.28,333.51 "/>
<polygon class="st1" points="313.93,333.62 313.16,332.89 312.39,333.17 312.53,332.15 311.9,331.21 312.76,331.31 313.14,330.45 
	313.53,331.53 314.4,331.93 313.78,332.51 "/>
<polygon class="st1" points="310.43,332.61 309.65,331.89 308.88,332.17 309.02,331.14 308.39,330.21 309.25,330.3 309.63,329.44 
	310.02,330.52 310.89,330.92 310.27,331.5 "/>
<polygon class="st1" points="306.92,331.6 306.14,330.88 305.38,331.16 305.52,330.14 304.88,329.2 305.75,329.29 306.12,328.43 
	306.52,329.51 307.38,329.92 306.76,330.49 "/>
<polygon class="st1" points="303.41,330.6 302.64,329.87 301.87,330.15 302.01,329.13 301.38,328.19 302.24,328.28 302.62,327.42 
	303.01,328.51 303.88,328.91 303.26,329.49 "/>
<polygon class="st1" points="320.95,335.63 320.17,334.91 319.4,335.19 319.54,334.16 318.91,333.23 319.77,333.32 320.15,332.46 
	320.55,333.54 321.41,333.94 320.79,334.52 "/>
<polygon class="st1" points="322.67,332.7 321.9,331.98 321.13,332.26 321.27,331.24 320.64,330.3 321.5,330.39 321.87,329.53 
	322.27,330.61 323.13,331.02 322.51,331.59 "/>
<text transform="matrix(0.7667 0.2201 8.679673e-03 1 309.2636 276.3876)" class="st8 st9 st10">British</text>
<text transform="matrix(0.7667 0.2201 8.679673e-03 1 303.7179 370.8932)" class="st8 st9 st10">American</text>
<g>
	
		<ellipse transform="matrix(0.1416 -0.9899 0.9899 0.1416 -474.4464 811.7336)" class="st3" cx="230.83" cy="679.44" rx="83.82" ry="112"/>
</g>
<ellipse class="st0" cx="316.98" cy="438.2" rx="3.5" ry="4.5"/>
<path class="st11" d="M204.48,463.7c-2.44,2.51-3.32,5.67-4,15c-1.05,14.38-0.24,24.16,0,31c0.65,18.67-2.39,33.16-3,36
	c-2.52,11.65-4.48,12.51-10,33c-2.66,9.88-4,14.82-5,21c-1.63,10-1.75,19.67-2,39c-0.22,16.9,0.39,13.31,0,18
	c-0.68,8.25-2.69,21.1,1,25c1.43,1.51,3,2,3,2c1.75,0.55,2.75-0.04,5,0c3.12,0.05,3.89,1.23,5,1c3.81-0.79,3.14-16.4,4-31
	c0.12-1.98,0.94-15.22,4-30c1.32-6.39,3.57-13.68,8-28c3.87-12.49,7.06-22.12,11-34c5.84-17.6,8.76-26.39,10-30
	c2.68-7.8,4.69-13.47,7-22c2.73-10.11,4.1-15.17,4-20c-0.1-4.69-0.39-18.73-11-26C223.32,458.11,210.5,457.51,204.48,463.7z"/>
<g>
	<path class="st12" d="M221.48,475.7c-1.45,2.82-1.89,6.11-2,7c-1.14,8.98,3.13,16.27,5,19c3.74,5.46,8,9,8,9
		c1.48,1.23,2.81,2.14,4,4c2.06,3.22,2.01,6.64,2,8c-0.12,13,1.07,26,1,39c-0.05,10.85,0.25,11.13,0,19c-0.27,8.6-0.71,10.54-1,20
		c-0.22,7.18-0.38,12.48,0,19c0.71,12.11,2.23,10.55,3,22c0.63,9.37,2.5,18.63,3,28c0.05,0.93,0.17,3.58,2,5
		c0.94,0.73,1.96,0.82,4,1c2.72,0.24,5.13,0.45,7-1c0.77-0.59,1.31-1.36,2-3c2.03-4.8,2-9,2-9c-0.1-14.34,0.96-28.66,1-43
		c0.03-11.78,0.98-20.51,2-30c0.89-8.21,2.04-18.66,5-32c2.98-13.44,3.85-12.05,6-23c2.85-14.48,2.93-25.05,3-35
		c0.05-6.29-0.17-12.52-2-20c-1.17-4.79-1.75-7.18-3-9C264.7,457.88,229.05,460.92,221.48,475.7z"/>
</g>
<path class="st13" d="M185.48,357.7c-1.75,2.49-1.43,4.45-2,9c-0.57,4.56-0.99,3.42-5,18c-1.98,7.19-2.99,10.89-4,16
	c-0.48,2.42-1.39,7.09-2,13c-0.87,8.41-0.65,14.78-1,30c-0.06,2.71-0.14,5.61-1,9c-0.19,0.77-0.53,1.96-1,4
	c-0.61,2.63-0.91,3.95-1,5c-0.11,1.27-0.3,4,1,7c0.61,1.4,1.62,3.73,4,5c0.91,0.49,0.76,0.14,6,1c2.36,0.39,3.23,0.59,4,0
	c0.88-0.68,1.15-2.01,1-3c-0.1-0.65-0.33-0.83-1-2c-1.14-1.98-1.93-3.34-2-5c-0.03-0.58,0-2,0-2l0,0c0,0,0.54,1.68,1,3
	c1.19,3.42,1.59,3.79,2,4c0.53,0.26,1.47,0.45,2,0c0.94-0.8-0.08-3.01-1-7c-0.71-3.09-0.34-2.84-1-6c-1.21-5.78-2.42-6.47-3-10
	c-0.35-2.13,0.1-4.78,1-10c0.89-5.15,1.54-8.89,3-14c1.45-5.07,1.97-5.44,5-14c3.55-10.02,2.86-9.59,5-15c3.43-8.69,4.8-8.8,8-17
	c3.54-9.07,5.28-13.74,3-18c-1.91-3.56-6.04-5.73-10-6C192.03,352.4,187.74,354.5,185.48,357.7z"/>
<g>
	<path class="st2" d="M193.48,331.7c-2.89,4.44-4.34,7.96-6,12c-4.53,11-3.48,13.94-3,15c0.2,0.44,1.13,1.63,3,4
		c2.28,2.9,3.86,4.91,6,7c3.51,3.43,5.26,5.14,7,5c1.75-0.15,3.5-1.95,7-12c1.01-2.9,7.99-23.25,6-32c-0.32-1.43-1.14-3.65-1-7
		c0.1-2.4,0.6-3.27,0-4c-1.36-1.64-6.43-0.13-10,2C198.49,324.08,196.42,327.19,193.48,331.7z"/>
</g>
<path class="st0" d="M195.48,345.7c-0.04,3.78-0.07,8.63,1,15c0.66,3.91,1.73,10,5,17c2.84,6.08,4.19,6.11,6,11
	c1.44,3.9,1.98,7.67,2,15c0.02,6.98-0.43,15.04-2,26c-1.1,7.65-1.09,15.51-3,23c-0.44,1.72-1.52,5.69,0,10c0.46,1.3,1.29,3.01,4,6
	c4.75,5.24,9.63,8.19,11,9c1.92,1.13,9.2,5.25,20,7c3.7,0.6,10.63,1.38,19,0c9.65-1.59,12.82-4.68,14-6c1.91-2.14,2.75-4.3,3-5
	c2.09-5.8-0.25-10.96-2-17c-0.72-2.47-1.48-7.98-3-19c-0.8-5.82-2.04-15.04-2-27c0.02-6.11,0.09-14.43,2-25
	c1.11-6.17,1.56-5.92,2-10c0.51-4.67,1.39-13.85-3-24c-1.17-2.72-3.88-8.8-10-14c-1.96-1.66-3.25-2.38-13-7
	c-24.21-11.48-9.26-3.77-26-11c-1.28-0.55-4.59-1.99-9-2c-1.56,0-3.75,0.01-6,1c-0.83,0.36-4.11,1.93-7,8
	C195.68,332.57,195.57,337.79,195.48,345.7z"/>
<path class="st13" d="M280.48,343.7c5.1-4.82,10.92-7.91,13-9c3.6-1.88,6.95-3.22,10-7c0.83-1.02,1.44-2,2-3
	c3.63-6.51,4.79-14.23,6-21c1.24-6.98,1.1-4.93,4-20c1.07-5.57,1.8-9.54,2-15c0.1-2.83-0.06-2.63,0-7c0.05-3.4,0.22-9.14,1-16
	c0.3-2.66,1.48-13,3-13c0.36,0,0.8,0.57,1,1c0.38,0.83,0.09,1.72,0,2c-1.21,3.86-1.09,10.98-1,13c0.05,1.03,0.16,2.2,1,3
	c0.5,0.47,0.99,0.56,3,1c2.37,0.52,3.57,0.79,4,1c1.78,0.88,2.68,2.43,3,3c1.14,2.02,1.06,3.96,1,5c-0.09,1.58-0.51,2.81-2,6
	c-1.5,3.2-2.55,5.1-3,6c-1.89,3.76-1.9,7.16-2,12c-0.33,16.13-0.67,4.91-1,26c-0.03,1.72-0.1,6.67-1,13c-0.58,4.08-1.25,6.98-3,10
	c-1.28,2.21-2.62,3.6-4,5c-7.4,7.53-11.09,11.29-13,13c-8.9,7.97-8.37,6.19-13,11c-1.92,2-3.3,3.64-6,5c-0.87,0.44-7.15,3.6-11,1
	c-4.39-2.96-3.23-11.79-1-17C275.19,348.69,277.78,346.25,280.48,343.7z"/>
<g>
	<path class="st2" d="M284.48,339.7c-3.47-1.74-6.17-1.41-14-1c-8.51,0.45-9.28,0.28-12,1c-3.19,0.85-5.85,1.59-8,4
		c-2.33,2.62-2.71,5.68-3,8c-0.71,5.71,1.19,10.16,2,12c1.01,2.3,3.02,6.86,8,10c4.4,2.78,8.73,2.94,11,3c2.31,0.06,6.03,0.15,10-2
		c3.95-2.14,5.95-5.3,7-7c1.73-2.8,2.33-5.2,3-8c1.33-5.51,3.27-13.58-1-18C286.54,340.73,285.64,340.28,284.48,339.7z"/>
</g>
<path class="st13" d="M443.48,188.7"/>
<path class="st13" d="M219.48,316.7c-1.05,3.9-2.73,9.25,0,13c1.18,1.62,2.79,2.41,4,3c1.84,0.9,3.96,1.44,12,1
	c8.74-0.47,9.61-1.3,10-2c0.44-0.81,0.08-1.18,0-7c-0.02-1.45-0.03-2.18,0-3c0.13-3.43,0.19-5.16,1-7c0.65-1.49,2.1-2.99,5-6
	c1.37-1.42,1.56-1.5,2-2c1.9-2.13,2.29-4.93,2-14c-0.09-2.96-0.3-7.77-1-14c-0.4-3.59-0.79-6.06-2-9c-1.18-2.87-2.1-5.11-4-6
	c-4.48-2.1-11.54,4.62-13,6c-6.94,6.6-9.38,14.35-12,23C219.77,304.96,223.21,302.9,219.48,316.7z"/>
<path class="st14" d="M218.48,257.7c-2.98,2.87-4.22,5.79-6,10c-0.62,1.47-3.25,7.86-4,17c0,0-0.76,9.18,2,21
	c1.08,4.63,2.26,6.81,3,8c1.11,1.79,1.48,1.79,2,3c1.35,3.19,0.06,6.26-1,10c-1.02,3.59-1.29,7.34-2,11c-1.19,6.17-1.13,11.78-1,23
	c0.04,3.87,0.14,10.5,1,19c0.27,2.71,0.39,3.23,1,9c1.29,12.12,1.24,14.01,1,16c-0.52,4.3-1.28,3.45-3,11c-0.91,4.01-1.86,8.29-2,14
	c-0.03,1.3-0.11,6.16,1,12c0.38,2,0.92,3.67,2,7c1.04,3.22,1.46,3.96,2,4c1.06,0.08,2.07-2.58,3-5c1.35-3.52,1.88-6.37,2-7
	c0.69-3.76,0.93-7.08,1-10c0.04-1.78,0.11-7.22-1-15c-1.03-7.23-1.67-6.52-2-11c-0.29-3.87,0.1-5.48,1-15c0.46-4.85,0.79-8.4,1-12
	c0.42-7.27-0.05-8.07,0-19c0.03-6.5,0.35-11,1-20c0,0,0.31-4.38,3-13c0.38-1.2,1.08-3.33,3-5c1.46-1.26,2.82-1.57,4-2
	c3.18-1.16,5.46-3.77,10-9c2.56-2.94,4.23-4.87,6-8c2.13-3.78,3.11-7.02,4-10c0.56-1.88,1.46-4.91,2-9c0.48-3.66,1.04-7.86,0-13
	c-0.57-2.79-1.3-6.41-4-10c-0.96-1.27-5.68-7.23-14-8C225.58,250.87,219.59,256.63,218.48,257.7z"/>
<path class="st0" d="M180.48,673.7c1.48-0.45,2.07,1.27,5,2c0.54,0.13,4.94,1.17,8-1c0.8-0.57,2.1-1.78,4-2c0.52-0.06,0.85-0.02,1,0
	c1.45,0.22,2.04,1.28,3,2c0.75,0.56,2.16,0.71,5,1c3.07,0.32,4.07,0.09,5,1c0.57,0.56,0.76,1.19,1,2c0.12,0.4,0.63,2.22,0,5
	c-0.32,1.43-0.87,3.85-3,6c-0.53,0.53-2.75,2.77-6,3c-2.1,0.15-2.18-0.71-5-1c-2.1-0.22-4.07,0.19-8,1c-3.21,0.66-3.38,0.91-5,1
	c-2.15,0.12-4.21,0.24-6-1c-2.36-1.63-2.79-4.59-3-6c-0.33-2.26,0.13-3.89,1-7C178.5,676.07,179.05,674.13,180.48,673.7z"/>
<path class="st0" d="M245.48,670.7c-0.63,0.25-0.9,1.17-1,6c-0.11,5.35,0.18,6.7,1,8c0.35,0.55,0.92,1.43,2,2
	c1.87,0.98,3.92,0.35,5,0c2.55-0.83,2.98-1.95,7-5c1.12-0.85,3.21-2.42,6-4c3.43-1.94,3.81-1.56,6-3c3.04-2,4.81-4.37,6-6
	c1.18-1.61,3.02-4.18,4-8c0.65-2.52,1.24-4.85,0-7c-1.19-2.05-3.38-2.79-4-3c-0.46-0.16-1.38-0.42-6,0c-4.42,0.4-5.53,0.81-6,1
	c-1.58,0.64-3.39,1.36-4,3c-0.24,0.64-0.05,0.77,0,4c0.02,1.29-0.01,1.05,0,3c0.02,3.59,0.13,3.53,0,4c-0.49,1.78-2.04,2.76-4,4
	c-0.88,0.56-2.55,1.59-5,2c-1.07,0.18-2.39,0.4-4,0C246.65,671.25,246.18,670.42,245.48,670.7z"/>
<path class="st0" d="M150.61,222.29l-77.26,35.99c-10.72,4.99-19.49-1.49-19.58-14.48l-0.36-50.76
	c-0.09-12.99,8.52-27.57,19.24-32.56l77.26-35.99c10.72-4.99,19.49,1.49,19.58,14.48l0.36,50.76
	C169.95,202.72,161.33,217.3,150.61,222.29z"/>
<polygon class="st0" points="141.83,215.36 157.64,238.38 157.42,208.09 "/>
<polygon class="st0" points="160.44,123.33 169.27,127.59 159.48,138.7 "/>
<polygon class="st0" points="157.64,238.38 164.38,241.74 156.47,214.72 "/>
<path class="st3" d="M157.35,225.65l-77.26,35.99c-10.72,4.99-19.49-1.49-19.58-14.48l-0.36-50.76
	c-0.09-12.99,8.52-27.57,19.24-32.56l77.26-35.99c10.72-4.99,19.49,1.49,19.58,14.48l0.36,50.76
	C176.69,206.07,168.07,220.65,157.35,225.65z"/>
<polygon class="st3" points="148.57,218.71 164.38,241.74 164.16,211.45 "/>
<ellipse transform="matrix(0.4465 -0.8948 0.8948 0.4465 -141.7759 203.959)" class="st0" cx="93.97" cy="216.58" rx="6.27" ry="3.99"/>
<ellipse transform="matrix(0.4465 -0.8948 0.8948 0.4465 -118.0235 219.5629)" class="st0" cx="118.46" cy="205.18" rx="6.27" ry="3.99"/>
<ellipse transform="matrix(0.4465 -0.8948 0.8948 0.4465 -93.3781 235.7353)" class="st0" cx="143.85" cy="193.34" rx="6.27" ry="3.99"/>
<g>
	<path class="st11" d="M549.8,328.37l-81.75-19.94c-11.34-2.77-20.56-15-20.57-27.32l-0.07-48.15c-0.02-12.32,9.16-20.07,20.51-17.3
		l81.75,19.94c11.34,2.77,20.56,15,20.57,27.32l0.07,48.15C570.32,323.39,561.14,331.14,549.8,328.37z"/>
</g>
<g>
	<polygon class="st11" points="464.78,292.32 464.82,321.5 479.72,295.97 	"/>
</g>
<path class="st11" d="M446.92,221.6c-0.44,0.1,11.13-5.62,11.13-5.62l1.43,16.72L446.92,221.6z"/>
<polygon class="st11" points="553,331.17 562.09,326.93 547.48,319.7 "/>
<polygon class="st11" points="458.1,324.66 464.82,321.5 467.48,300.7 "/>
<g>
	<path class="st12" d="M543.07,331.53l-81.75-19.94c-11.34-2.77-20.56-15-20.57-27.32l-0.07-48.15
		c-0.02-12.32,9.16-20.07,20.51-17.3l81.75,19.94c11.34,2.77,20.56,15,20.57,27.32l0.07,48.15
		C563.6,326.55,554.42,334.3,543.07,331.53z"/>
</g>
<g>
	
		<ellipse transform="matrix(0.848 -0.53 0.53 0.848 -75.3495 294.7731)" class="st11" cx="476.23" cy="278.75" rx="4.41" ry="5.66"/>
</g>
<g>
	<ellipse transform="matrix(0.848 -0.53 0.53 0.848 -74.7608 309.466)" class="st11" cx="502.14" cy="285.07" rx="4.41" ry="5.66"/>
</g>
<g>
	
		<ellipse transform="matrix(0.848 -0.53 0.53 0.848 -74.1523 324.7057)" class="st11" cx="529.02" cy="291.63" rx="4.41" ry="5.66"/>
</g>
<polygon class="st12" points="458.05,295.48 458.1,324.66 473,299.13 "/>
<g>
	<path class="st11" d="M118.34,372.09l-53.94,25.1c-7.48,3.48-13.6-1.04-13.67-10.1l-0.25-35.4c-0.07-9.06,5.95-19.23,13.43-22.71
		l53.94-25.1c7.48-3.48,13.6,1.04,13.67,10.1l0.25,35.4C131.84,358.44,125.83,368.61,118.34,372.09z"/>
</g>
<g>
	<polygon class="st11" points="125.21,303.07 131.37,306.04 124.53,313.79 	"/>
</g>
<g>
	<path class="st12" d="M123.05,374.43l-53.94,25.1c-7.48,3.48-13.6-1.04-13.67-10.1l-0.25-35.4c-0.07-9.06,5.95-19.23,13.43-22.71
		l53.94-25.1c7.48-3.48,13.6,1.04,13.67,10.1l0.25,35.4C136.54,360.78,130.53,370.95,123.05,374.43z"/>
</g>
<path class="st0" d="M464.06,150.49l-52.81-12.25c-7.33-1.7-13.25-9.04-13.22-16.39l0.1-28.73c0.03-7.35,5.99-11.94,13.32-10.24
	l52.81,12.25c7.33,1.7,13.25,9.04,13.22,16.39l-0.1,28.73C477.35,147.6,471.39,152.19,464.06,150.49z"/>
<path class="st0" d="M397.86,86.34c-0.28,0.06,7.22-3.31,7.22-3.31l0.87,9.98L397.86,86.34z"/>
<polygon class="st0" points="466.12,152.18 472.02,149.68 462.59,145.31 "/>
<path class="st3" d="M459.7,152.35l-52.81-12.25c-7.33-1.7-13.25-9.04-13.22-16.39l0.1-28.73c0.03-7.35,5.99-11.94,13.32-10.24
	l52.81,12.25c7.33,1.7,13.25,9.04,13.22,16.39l-0.1,28.73C472.99,149.46,467.03,154.05,459.7,152.35z"/>
<polygon class="st0" points="402.77,95.99 462.18,110.3 462.15,115.51 402.74,101.18 "/>
<polygon class="st0" points="402.48,108.44 461.89,122.74 461.86,127.95 402.45,113.62 "/>
<polygon class="st0" points="402.42,119.61 461.83,133.91 461.8,139.12 402.39,124.79 "/>
<g>
	<polygon class="st11" points="65.39,350.04 65.39,355.55 127.59,324.72 127.59,319.68 	"/>
</g>
<g>
	<polygon class="st11" points="65.39,363.96 65.39,369.46 127.59,338.63 127.59,333.6 	"/>
</g>
<g>
	<polygon class="st11" points="65.39,377.17 65.39,382.67 127.59,351.84 127.59,346.81 	"/>
</g>
<polygon class="st1" points="318.48,200.7 331.91,204.61 330.58,200.93 319.48,198.7 "/>
<polygon class="st1" points="347.48,208.7 352.25,213.22 352.48,209.7 "/>
<polygon class="st1" points="353.73,233.15 353.76,248.61 356.48,249.7 356.48,233.7 "/>
<polygon class="st1" points="295.78,200.01 299.48,195.7 295.48,195.7 "/>
<rect x="293.06" y="216.56" class="st1" width="2.99" height="15.41"/>
<polygon class="st1" points="301.48,256.7 296.65,252.34 295.45,256.18 "/>
</svg>
