<svg width="640" height="604" viewBox="0 0 640 604" fill="none" xmlns="http://www.w3.org/2000/svg">
<path d="M126.667 215.2C114.8 220.267 114.8 236 126.667 241.867C134.533 245.733 146 238.133 146 228.933C146 225.467 143.067 219.2 140.4 217.067C137.867 214.933 129.733 213.867 126.667 215.2Z" fill="black"/>
<path d="M261.333 218.4C257.6 222.133 256.667 224.133 256.667 228.4C256.667 238.133 265.6 245.067 274.4 242.133C280.8 240 283.467 236.533 284.267 229.6C284.933 224.533 284.4 223.2 281.2 219.467C278.4 216.4 275.733 214.933 271.733 214.4C266.533 213.733 265.6 214.133 261.333 218.4Z" fill="black"/>
<path d="M65.4667 2.66676C54.8 6.40009 48.6667 15.4668 48.6667 27.3334C48.6667 38.5334 54.6667 47.3334 65.2 51.3334L68.6667 52.6668V69.2001V85.7335L59.3333 98.1335C49.4667 111.467 39.2 130.267 33.8667 145.067C31.0667 152.8 30.1333 154.133 26.4 155.467C20 157.6 10.4 165.467 6.79999 171.733C1.46665 180.667 0.399986 192.8 0.933319 235.067C1.33332 270.667 1.59999 273.733 4.26665 279.467C10.8 294 24.2667 303.467 38.5333 303.733C43.0667 303.867 48.2667 303.6 50.1333 303.067C53.6 302 53.7333 302.267 54.6667 309.467C58 336.667 72.8 357.333 97.0667 369.333C103.867 372.667 114.8 376.8 121.333 378.667C134 382.133 157.733 386 167.467 386.133C172.8 386.133 173.067 386.267 170 387.6C152.933 394.8 146.133 398.933 137.333 408C132 413.333 126.667 420.4 124.8 424.267C122.8 428.533 120.533 431.467 118.8 431.867C117.333 432.267 109.2 432.667 100.8 432.667C92.5333 432.667 83.3333 433.333 80.5333 434.133C68.9333 437.733 60.6667 449.333 60.6667 462.267C60.6667 466.133 61.6 479.467 62.6667 492C63.8667 504.4 65.8667 528.933 67.3333 546.267C69.0667 568.4 70.5333 579.333 72 582.533C75.2 589.067 82.1333 595.867 89.6 599.467L96 602.667L201.067 603.067C317.2 603.467 316.4 603.467 328 595.2C331.2 592.933 335.333 588.133 337.333 584.533C340.667 578.4 341.067 575.467 343.467 547.6C349.2 478.533 350.4 459.733 349.6 455.2C348 447.467 341.467 439.6 333.6 436C327.6 433.2 324.4 432.8 309.067 432.533C299.333 432.4 290.933 431.867 290.4 431.467C289.867 431.067 287.867 427.6 286 424C284.133 420.267 278.4 413.067 273.2 407.867C264.4 398.933 255.467 393.467 240.667 387.733C237.867 386.667 239.867 386.133 251.333 384.667C259.067 383.733 272.267 381.333 280.667 379.2C322.133 368.933 345.333 345.867 350.533 309.467L351.6 303.067L359.067 304C363.2 304.533 366.667 305.067 366.667 305.067C366.8 305.2 368.133 309.733 369.867 315.2L372.933 325.067L356.933 341.2C340.267 357.867 337.333 362.267 338.8 368.4C340.4 374.8 344.4 378 351.2 378C356.8 378 386.933 373.333 404.133 370C410.267 368.667 411.467 368.933 419.467 372.533C437.867 381.2 439.467 381.333 503.333 381.333C560.4 381.333 561.467 381.333 571.333 378.267C592.4 371.6 608 361.2 620 345.467C634 327.067 639.333 310.667 639.333 285.2C639.333 260.533 634.667 245.467 621.333 226.533C614.933 217.6 606.4 209.467 602 208C598.8 206.933 594 210.4 594 213.733C594 214.933 597.2 218.933 601.067 222.533C613.2 234.267 622.667 250.667 625.867 265.733C628 275.733 627.733 297.333 625.333 306.667C620.4 326.133 606.933 345.2 590.267 356.133C586.133 358.933 577.6 363.067 571.333 365.2L560 369.333H504C442.267 369.333 440 369.067 423.467 360.667C419.067 358.533 413.867 356.667 411.867 356.667C408.933 356.667 367.067 363.067 354.667 365.467C351.2 366.133 353.333 363.6 369.2 347.467L387.867 328.8L383.6 316.133C381.2 309.2 379.333 302.933 379.333 302.267C379.333 301.6 381.067 300.267 383.067 299.467C388.8 297.067 397.467 287.6 400.933 280C403.6 274 404 270.8 404.4 247.6L404.933 222L409.867 217.867C417.333 211.733 432.667 204.8 444 202.667C451.2 201.2 463.6 200.667 485.333 200.667C502.4 200.667 517.333 200.267 518.533 199.867C521.067 198.933 521.333 192.533 519.067 190.267C516.667 187.867 454.667 188.133 441.6 190.533C430.667 192.667 420.667 196.533 411.2 202.267C407.867 204.267 404.8 206 404.4 206C404.133 206 403.733 201.2 403.733 195.333C403.6 183.6 401.867 177.067 397.067 169.867C393.2 164 384.267 157.333 377.067 155.2C372 153.6 371.6 152.933 366.933 141.467C360.133 125.067 352.933 112.133 342.667 98.5334L334 87.0668V70.0001V52.9335L339.867 50.1334C356.133 42.1334 358.8 17.8668 344.533 6.93348C328.267 -5.33318 306.267 3.33347 302.667 23.4668C300.8 33.8668 307.867 46.8001 317.467 50.2668L322 51.8668V63.8668V75.8668L317.733 71.7335C309.867 64.2668 293.333 53.3334 280.533 47.0668C259.067 36.6668 237.6 31.0668 211.867 29.2001C197.067 28.2668 194.8 29.2001 195.6 36.2668C196 39.8668 196.267 40.0001 206.667 41.0668C237.467 44.0001 262.667 50.8001 281.067 61.2001C301.6 72.6668 321.867 90.8001 336.133 110.667C342.8 120 358 148.933 358 152.4C358 153.467 352 155.333 348.667 155.333C348.133 155.333 346.667 152.533 345.333 148.933C344 145.467 340.4 137.867 337.2 131.867C312.8 86.4001 269.6 58.1335 216.267 52.6668C150.267 45.8668 87.2 82.1334 59.8667 142.667L54.8 154L50 153.2C47.4667 152.667 45.2 152.133 44.9333 152C43.8667 151.067 53.3333 130.533 59.3333 120.8C72.1333 99.3334 87.8667 82.5334 107.2 69.8668C115.2 64.5334 118 62.0001 118 59.7335C118 56.5335 114.8 52.6668 112.133 52.6668C109.867 52.6668 98.9333 59.7334 89.0667 67.6001L80.6667 74.2668V62.9335C80.6667 52.1335 80.8 51.6001 83.7333 50.8001C88.5333 49.6001 93.7333 44.9335 96.6667 39.2001C99.8667 33.0668 100.267 20.9335 97.4667 15.4668C93.3333 7.46681 82 0.533426 73.3333 0.666759C71.8667 0.800092 68.4 1.60009 65.4667 2.66676ZM85.2 19.6001C89.6 25.8668 86.9333 35.4668 79.7333 39.2001C67.3333 45.4668 54.6667 29.2002 63.7333 18.6668C69.4667 11.8668 80.1333 12.4001 85.2 19.6001ZM336.4 15.3334C336.533 15.3334 337.867 17.3334 339.333 19.6001C343.333 26.1334 342.8 30.8001 337.467 36.1334C330 43.6001 320 41.7335 315.867 32.0001C313.867 27.2001 315.2 19.4668 318.667 16.6668C321.733 14.1334 327.733 13.0668 332 14.2668C334.133 14.8001 336.133 15.3334 336.4 15.3334ZM226.8 66.5335C276 75.2001 315.6 107.733 333.867 154.4L338.667 166.667V238V238.002C338.667 308.933 338.667 309.334 335.6 319.333C326 350.267 301.733 365.067 249.467 372.267C227.2 375.333 178 375.2 155.333 372.133C120.4 367.467 97.4667 358.667 84.2667 344.8C80.2667 340.667 75.7333 334.667 74.1333 331.6C71.3333 326.267 65.6 304.667 66.5333 303.6C66.8 303.333 69.7333 304.533 72.8 306.133C85.6 312.667 111.2 319.333 123.333 319.333C126.133 319.333 129.333 320.133 130.267 321.067C133.2 324 137.6 326 141.333 326C146.4 326 152.667 319.333 152.667 314C152.667 308.8 146.4 302 141.467 302C137.333 302 131.333 304.667 131.333 306.4C131.333 308.533 113.333 306.4 99.7333 302.667C92.9333 300.933 82.5333 296.933 76.6667 294L65.8667 288.667L66.2667 222.933L66.6667 157.333L72.2667 145.6C80.2667 129.067 89.7333 115.867 102.4 103.733C114.4 92.2668 123.067 86.1334 137.6 78.8001C147.467 73.8668 165.6 68.1334 177.333 66.1334C188.267 64.2668 215.2 64.5335 226.8 66.5335ZM52.8 166.8C53.4667 167.2 54 194.4 54 227.333V287.2L50 289.333C38.8 295.067 23.0667 289.067 16.5333 276.4C14.1333 271.867 14 268.133 14 228.533C14 187.6 14.1333 185.2 16.8 179.733C21.6 169.733 32.5333 164.133 44.5333 165.333C48.4 165.733 52.2667 166.4 52.8 166.8ZM378.267 168.933C381.067 170.533 384.933 174.267 386.933 177.2L390.667 182.667L391.067 226.667C391.467 270.133 391.333 270.667 388.4 276.667C384 285.2 376.133 290.4 366.4 291.067C362.133 291.333 357.067 290.933 354.933 290.133L351.333 288.667L351.6 228.4L352 168.133L357.333 166.4C364 164.4 371.6 165.2 378.267 168.933ZM225.6 393.467C224.8 400.533 221.733 405.333 215.2 409.733C211.6 412.267 209.467 412.8 204.267 412.267C193.733 411.333 186.8 404.533 185.333 393.6L184.533 387.333H205.467H226.4L225.6 393.467ZM176 406C178.8 412.267 186.933 420.133 193.467 422.8C199.733 425.467 212.267 425.067 218.667 422.133C225.6 419.067 231.867 412.8 234.8 406C236.133 403.067 237.867 400.667 238.533 400.667C241.467 400.8 252.133 406.267 258.4 411.067C264.4 415.6 275.333 428.8 275.333 431.6C275.333 432.133 243.867 432.667 205.333 432.667C166.8 432.667 135.333 432.133 135.333 431.6C135.333 429.6 142.667 420.267 148.8 414.4C154.4 409.067 168.533 400.667 171.867 400.667C172.8 400.667 174.667 403.067 176 406ZM327.067 446.533C331.467 448.8 336.133 453.733 337.2 457.333C338.267 460.933 329.067 574.8 327.467 577.733C325.467 581.467 318.933 587.067 314.933 588.533C312.4 589.6 276.8 590 205.067 590C87.3333 590 93.8667 590.533 86.1333 581.067C81.7333 575.733 82.4 580.667 76.6667 508.933C74.2667 478.667 73.2 458 73.8667 456.267C75.0667 453.067 79.6 448.667 84 446.267C85.8667 445.2 121.067 444.8 205.067 444.667C304.267 444.667 324 444.933 327.067 446.533Z" fill="#010B11"/>
<path d="M226.8 66.5335C276 75.2001 315.6 107.733 333.867 154.4L338.667 166.667V238V238.002C338.667 308.933 338.667 309.334 335.6 319.333C326 350.267 301.733 365.067 249.467 372.267C227.2 375.333 178 375.2 155.333 372.133C120.4 367.467 97.4667 358.667 84.2667 344.8C80.2667 340.667 75.7333 334.667 74.1333 331.6C71.3333 326.267 65.6 304.667 66.5333 303.6C66.8 303.333 69.7333 304.533 72.8 306.133C85.6 312.667 111.2 319.333 123.333 319.333C126.133 319.333 129.333 320.133 130.267 321.067C133.2 324 137.6 326 141.333 326C146.4 326 152.667 319.333 152.667 314C152.667 308.8 146.4 302 141.467 302C137.333 302 131.333 304.667 131.333 306.4C131.333 308.533 113.333 306.4 99.7333 302.667C92.9333 300.933 82.5333 296.933 76.6667 294L65.8667 288.667L66.2667 222.933L66.6667 157.333L72.2667 145.6C80.2667 129.067 89.7333 115.867 102.4 103.733C114.4 92.2668 123.067 86.1334 137.6 78.8001C147.467 73.8668 165.6 68.1334 177.333 66.1334C188.267 64.2668 215.2 64.5335 226.8 66.5335Z" fill="#CEE0E0"/>
<path d="M378.267 168.933C381.067 170.533 384.933 174.267 386.933 177.2L390.667 182.667L391.067 226.667C391.467 270.133 391.333 270.667 388.4 276.667C384 285.2 376.133 290.4 366.4 291.067C362.133 291.333 357.067 290.933 354.933 290.133L351.333 288.667L351.6 228.4L352 168.133L357.333 166.4C364 164.4 371.6 165.2 378.267 168.933Z" fill="#4BA6A7"/>
<path d="M52.8 166.8C53.4667 167.2 54 194.4 54 227.333V287.2L50 289.333C38.8 295.067 23.0667 289.067 16.5333 276.4C14.1333 271.867 14 268.133 14 228.533C14 187.6 14.1333 185.2 16.8 179.733C21.6 169.733 32.5333 164.133 44.5333 165.333C48.4 165.733 52.2667 166.4 52.8 166.8Z" fill="#4BA6A7"/>
<path d="M85.2 19.6001C89.6 25.8668 86.9333 35.4668 79.7333 39.2001C67.3333 45.4668 54.6667 29.2002 63.7333 18.6668C69.4667 11.8668 80.1333 12.4001 85.2 19.6001Z" fill="#4BA6A7"/>
<path d="M336.4 15.3334C336.533 15.3334 337.867 17.3334 339.333 19.6001C343.333 26.1334 342.8 30.8001 337.467 36.1334C330 43.6001 320 41.7335 315.867 32.0001C313.867 27.2001 315.2 19.4668 318.667 16.6668C321.733 14.1334 327.733 13.0668 332 14.2668C334.133 14.8001 336.133 15.3334 336.4 15.3334Z" fill="#4BA6A7"/>
<path d="M206.667 41.0668C237.467 44.0001 262.667 50.8001 281.067 61.2001C301.6 72.6668 321.867 90.8001 336.133 110.667C342.8 120 358 148.933 358 152.4C358 153.467 352 155.333 348.667 155.333C348.133 155.333 346.667 152.533 345.333 148.933C344 145.467 340.4 137.867 337.2 131.867C312.8 86.4001 269.6 58.1335 216.267 52.6668C150.267 45.8668 87.2 82.1334 59.8667 142.667L54.8 154L50 153.2C47.4667 152.667 45.2 152.133 44.9333 152C43.8667 151.067 53.3333 130.533 59.3333 120.8C72.1333 99.3334 87.8667 82.5334 107.2 69.8668C115.2 64.5334 118 62.0001 118 59.7335C150.39 41.3362 169.875 37.6007 206.667 41.0668Z" fill="#4BA6A7"/>
<path d="M594 213.733C594 214.933 597.2 218.933 601.067 222.533C613.2 234.267 622.667 250.667 625.867 265.733C628 275.733 627.733 297.333 625.333 306.667C620.4 326.133 606.933 345.2 590.267 356.133C586.133 358.933 577.6 363.067 571.333 365.2L560 369.333H504C442.267 369.333 440 369.067 423.467 360.667C419.067 358.533 413.867 356.667 411.867 356.667C408.933 356.667 367.067 363.067 354.667 365.467C351.2 366.133 353.333 363.6 369.2 347.467L387.867 328.8L383.6 316.133C381.2 309.2 379.333 302.933 379.333 302.267C379.333 301.6 381.067 300.267 383.067 299.467C388.8 297.067 397.467 287.6 400.933 280C403.6 274 404 270.8 404.4 247.6L404.933 222L409.867 217.867C417.333 211.733 432.667 204.8 444 202.667C451.2 201.2 463.6 200.667 485.333 200.667C502.4 200.667 517.333 200.267 518.533 199.867C552.401 198.964 568.431 202.678 594 213.733Z" fill="#4BA6A7"/>
<path d="M327.067 446.533C331.467 448.8 336.133 453.733 337.2 457.333C338.267 460.933 329.067 574.8 327.467 577.733C325.467 581.467 318.933 587.067 314.933 588.533C312.4 589.6 276.8 590 205.067 590C87.3333 590 93.8667 590.533 86.1333 581.067C81.7333 575.733 82.4 580.667 76.6667 508.933C74.2667 478.667 73.2 458 73.8667 456.267C75.0667 453.067 79.6 448.667 84 446.267C85.8667 445.2 121.067 444.8 205.067 444.667C304.267 444.667 324 444.933 327.067 446.533Z" fill="#4BA6A7"/>
<path d="M176 406C178.8 412.267 186.933 420.133 193.467 422.8C199.733 425.467 212.267 425.067 218.667 422.133C225.6 419.067 231.867 412.8 234.8 406C236.133 403.067 237.867 400.667 238.533 400.667C241.467 400.8 252.133 406.267 258.4 411.067C264.4 415.6 275.333 428.8 275.333 431.6C275.333 432.133 243.867 432.667 205.333 432.667C166.8 432.667 135.333 432.133 135.333 431.6C135.333 429.6 142.667 420.267 148.8 414.4C154.4 409.067 168.533 400.667 171.867 400.667C172.8 400.667 174.667 403.067 176 406Z" fill="#CEE0E0"/>
<path d="M225.6 393.467C224.8 400.533 221.733 405.333 215.2 409.733C211.6 412.267 209.467 412.8 204.267 412.267C193.733 411.333 186.8 404.533 185.333 393.6L184.533 387.333H205.467H226.4L225.6 393.467Z" fill="#CEE0E0"/>
<path d="M191.727 488.687C181.909 490.996 174.128 495.969 168.571 503.252C139.117 542.329 192.097 588.511 228.961 556.006C250.265 537.178 244.522 502.009 218.588 491.884C209.881 488.332 198.581 487.088 191.727 488.687ZM212.845 507.337C227.479 514.62 229.332 534.336 216.55 544.638C205.435 553.697 189.689 551.566 180.982 540.02C173.758 530.784 178.019 513.199 188.578 507.692C195.061 504.318 206.176 504.14 212.845 507.337Z" fill="black"/>
<path d="M212.845 507.337C227.479 514.62 229.332 534.336 216.55 544.638C205.435 553.697 189.689 551.566 180.982 540.02C173.758 530.784 178.019 513.199 188.578 507.692C195.061 504.318 206.176 504.14 212.845 507.337Z" fill="white"/>
<path d="M166 32.2667C159.333 33.4667 146.8 36.9334 139.867 39.4667C131.867 42.5334 129.067 45.8667 131.2 49.8667C133.333 53.8667 136 54.1334 144.267 51.2C148.533 49.7334 158.267 47.0667 165.867 45.3334C179.467 42.1334 182 40.8 182 36.5334C182 31.8667 176.667 30.4 166 32.2667Z" fill="black"/>
<path d="M542.533 189.733C540.4 191.2 539.6 194.4 540.667 197.467C541.6 199.867 543.2 200.4 551.6 201.067C556.933 201.6 564.533 202.933 568.4 204C576.267 206.4 580.133 205.733 581.333 202C582.667 198 579.733 194.267 574.133 192.667C560.267 188.933 545.733 187.6 542.533 189.733Z" fill="black"/>
<path d="M319 227C319 260.137 319 287 199.5 287C80 287 80 260.137 80 227C80 193.863 80 169.5 199.5 167C319 170.5 319 193.863 319 227Z" fill="#010B11"/>
<path d="M456.45 307C455.377 307 454.443 306.603 453.65 305.81C452.903 305.017 452.53 304.083 452.53 303.01V259.89C452.53 258.817 452.903 257.883 453.65 257.09C454.443 256.297 455.377 255.9 456.45 255.9H458.34C459.413 255.9 460.347 256.297 461.14 257.09C461.933 257.883 462.33 258.817 462.33 259.89V275.78C462.33 276.153 462.517 276.34 462.89 276.34H480.39C480.763 276.34 480.95 276.153 480.95 275.78V259.89C480.95 258.817 481.347 257.883 482.14 257.09C482.933 256.297 483.867 255.9 484.94 255.9H486.83C487.903 255.9 488.813 256.297 489.56 257.09C490.353 257.883 490.75 258.817 490.75 259.89V303.01C490.75 304.083 490.353 305.017 489.56 305.81C488.813 306.603 487.903 307 486.83 307H484.94C483.867 307 482.933 306.603 482.14 305.81C481.347 305.017 480.95 304.083 480.95 303.01V284.46C480.95 284.04 480.763 283.83 480.39 283.83H462.89C462.517 283.83 462.33 284.04 462.33 284.46V303.01C462.33 304.083 461.933 305.017 461.14 305.81C460.347 306.603 459.413 307 458.34 307H456.45ZM514.207 307C513.134 307 512.2 306.603 511.407 305.81C510.614 305.017 510.217 304.083 510.217 303.01V259.89C510.217 258.817 510.614 257.883 511.407 257.09C512.2 256.297 513.134 255.9 514.207 255.9H517.007C518.08 255.9 519.014 256.297 519.807 257.09C520.6 257.883 520.997 258.817 520.997 259.89V303.01C520.997 304.083 520.6 305.017 519.807 305.81C519.014 306.603 518.08 307 517.007 307H514.207ZM547.776 291.6C546.656 291.6 545.7 291.227 544.906 290.48C544.113 289.687 543.693 288.73 543.646 287.61L542.596 259.89C542.55 258.817 542.9 257.883 543.646 257.09C544.393 256.297 545.303 255.9 546.376 255.9H550.156C551.23 255.9 552.14 256.297 552.886 257.09C553.633 257.883 553.983 258.817 553.936 259.89L552.886 287.61C552.84 288.73 552.42 289.687 551.626 290.48C550.833 291.227 549.876 291.6 548.756 291.6H547.776ZM549.456 297.2C550.53 297.2 551.44 297.597 552.186 298.39C552.98 299.183 553.376 300.117 553.376 301.19V303.01C553.376 304.083 552.98 305.017 552.186 305.81C551.44 306.603 550.53 307 549.456 307H547.076C546.003 307 545.07 306.603 544.276 305.81C543.53 305.017 543.156 304.083 543.156 303.01V301.19C543.156 300.117 543.53 299.183 544.276 298.39C545.07 297.597 546.003 297.2 547.076 297.2H549.456Z" fill="white"/>
<path d="M129.707 204.083C134.688 203.649 139.29 204.91 143.266 208.017C148.622 212.202 151.901 219.334 152.772 225.998C153.497 231.552 152.529 236.934 149.37 241.594C145.891 246.727 140.679 249.667 134.719 250.814C130.275 251.484 125.488 250.3 121.704 247.911C116.552 244.658 112.953 239.465 111.607 233.495C110.128 226.934 111.391 219.828 114.959 214.156C118.469 208.576 123.353 205.493 129.707 204.083Z" fill="white"/>
<path d="M129.459 208.118C132.57 207.747 135.687 208.234 138.439 209.853C140.892 211.295 142.963 213.601 143.69 216.527C144.394 219.353 143.859 222.439 142.493 224.964C140.303 229.009 137.126 231.413 132.928 232.641C129.607 233.396 126.358 233.005 123.454 231.042C120.806 229.255 118.816 226.461 118.198 223.176C117.669 220.362 118.207 217.046 119.753 214.652C122.099 211.016 125.416 208.966 129.459 208.118Z" fill="#010B11"/>
<path d="M268.707 204.083C273.688 203.649 278.29 204.91 282.266 208.017C287.622 212.202 290.901 219.334 291.772 225.998C292.497 231.552 291.529 236.934 288.37 241.594C284.891 246.727 279.679 249.667 273.719 250.814C269.275 251.484 264.488 250.3 260.704 247.911C255.552 244.658 251.953 239.465 250.607 233.495C249.128 226.934 250.391 219.828 253.959 214.156C257.469 208.576 262.353 205.493 268.707 204.083Z" fill="white"/>
<path d="M268.459 208.118C271.57 207.747 274.687 208.234 277.439 209.853C279.892 211.295 281.963 213.601 282.69 216.527C283.394 219.353 282.859 222.439 281.493 224.964C279.303 229.009 276.126 231.413 271.928 232.641C268.607 233.396 265.358 233.005 262.454 231.042C259.806 229.255 257.816 226.461 257.198 223.176C256.669 220.362 257.207 217.046 258.753 214.652C261.099 211.016 264.416 208.966 268.459 208.118Z" fill="#010B11"/>
<path d="M195.9 519.82L193.26 529.24C193.24 529.3 193.25 529.36 193.29 529.42C193.33 529.48 193.38 529.51 193.44 529.51H198.42C198.48 529.51 198.53 529.48 198.57 529.42C198.61 529.36 198.62 529.3 198.6 529.24L195.96 519.82C195.96 519.8 195.95 519.79 195.93 519.79C195.91 519.79 195.9 519.8 195.9 519.82ZM188.13 538C187.71 538 187.38 537.83 187.14 537.49C186.9 537.15 186.85 536.78 186.99 536.38L193.2 517.72C193.38 517.24 193.67 516.85 194.07 516.55C194.49 516.25 194.95 516.1 195.45 516.1H196.53C197.05 516.1 197.51 516.25 197.91 516.55C198.33 516.85 198.62 517.24 198.78 517.72L204.99 536.38C205.13 536.78 205.08 537.15 204.84 537.49C204.6 537.83 204.27 538 203.85 538H202.77C202.29 538 201.84 537.85 201.42 537.55C201.02 537.23 200.75 536.83 200.61 536.35L199.65 532.96C199.63 532.8 199.52 532.72 199.32 532.72H192.54C192.36 532.72 192.25 532.8 192.21 532.96L191.25 536.35C191.13 536.83 190.86 537.23 190.44 537.55C190.04 537.85 189.59 538 189.09 538H188.13ZM210.28 538C209.82 538 209.42 537.83 209.08 537.49C208.74 537.15 208.57 536.75 208.57 536.29V517.81C208.57 517.35 208.74 516.95 209.08 516.61C209.42 516.27 209.82 516.1 210.28 516.1H211.48C211.94 516.1 212.34 516.27 212.68 516.61C213.02 516.95 213.19 517.35 213.19 517.81V536.29C213.19 536.75 213.02 537.15 212.68 537.49C212.34 537.83 211.94 538 211.48 538H210.28Z" fill="#5ED0D1"/>
<path d="M217.5 251C217.5 261 220 271.5 200 271.5C180 271.5 180 265 180 251H198.75H217.5Z" fill="white" stroke="white"/>
</svg>
