<svg width="1067" height="800" viewBox="0 0 1067 800" fill="none" xmlns="http://www.w3.org/2000/svg">
<path d="M392.667 321.2C380.8 326.267 380.8 342 392.667 347.867C400.533 351.733 412 344.133 412 334.933C412 331.467 409.067 325.2 406.4 323.067C403.867 320.933 395.733 319.867 392.667 321.2Z" fill="black"/>
<path d="M527.333 324.4C523.6 328.133 522.667 330.133 522.667 334.4C522.667 344.133 531.6 351.067 540.4 348.133C546.8 346 549.467 342.533 550.267 335.6C550.933 330.533 550.4 329.2 547.2 325.467C544.4 322.4 541.733 320.933 537.733 320.4C532.533 319.733 531.6 320.133 527.333 324.4Z" fill="black"/>
<path d="M457.727 594.687C447.909 596.996 440.128 601.969 434.571 609.252C405.117 648.329 458.097 694.511 494.961 662.006C516.265 643.178 510.522 608.009 484.588 597.884C475.881 594.332 464.581 593.088 457.727 594.687ZM478.845 613.337C493.479 620.62 495.332 640.336 482.55 650.638C471.435 659.697 455.689 657.566 446.982 646.02C439.758 636.784 444.019 619.199 454.578 613.692C461.061 610.318 472.176 610.14 478.845 613.337Z" fill="black"/>
<path d="M478.845 613.337C493.479 620.62 495.332 640.336 482.55 650.638C471.435 659.697 455.689 657.566 446.982 646.02C439.758 636.784 444.019 619.199 454.578 613.692C461.061 610.318 472.176 610.14 478.845 613.337Z" fill="white"/>
<path d="M432 138.267C425.333 139.467 412.8 142.933 405.867 145.467C397.867 148.533 395.067 151.867 397.2 155.867C399.333 159.867 402 160.133 410.267 157.2C414.533 155.733 424.267 153.067 431.867 151.333C445.467 148.133 448 146.8 448 142.533C448 137.867 442.667 136.4 432 138.267Z" fill="black"/>
<path d="M808.533 295.733C806.4 297.2 805.6 300.4 806.667 303.467C807.6 305.867 809.2 306.4 817.6 307.067C822.933 307.6 830.533 308.933 834.4 310C842.267 312.4 846.133 311.733 847.333 308C848.667 304 845.733 300.267 840.133 298.667C826.267 294.933 811.733 293.6 808.533 295.733Z" fill="black"/>
<path d="M331.467 108.667C320.8 112.4 314.667 121.467 314.667 133.333C314.667 144.533 320.667 153.333 331.2 157.333L334.667 158.667V175.2V191.733L325.333 204.133C315.467 217.467 305.2 236.267 299.867 251.067C297.067 258.8 296.133 260.133 292.4 261.467C286 263.6 276.4 271.467 272.8 277.733C267.467 286.667 266.4 298.8 266.933 341.067C267.333 376.667 267.6 379.733 270.267 385.467C276.8 400 290.267 409.467 304.533 409.733C309.067 409.867 314.267 409.6 316.133 409.067C319.6 408 319.733 408.267 320.667 415.467C324 442.667 338.8 463.333 363.067 475.333C369.867 478.667 380.8 482.8 387.333 484.667C400 488.133 423.733 492 433.467 492.133C438.8 492.133 439.067 492.267 436 493.6C418.933 500.8 412.133 504.933 403.333 514C398 519.333 392.667 526.4 390.8 530.267C388.8 534.533 386.533 537.467 384.8 537.867C383.333 538.267 375.2 538.667 366.8 538.667C358.533 538.667 349.333 539.333 346.533 540.133C334.933 543.733 326.667 555.333 326.667 568.267C326.667 572.133 327.6 585.467 328.667 598C329.867 610.4 331.867 634.933 333.333 652.267C335.067 674.4 336.533 685.333 338 688.533C341.2 695.067 348.133 701.867 355.6 705.467L362 708.667L467.067 709.067C583.2 709.467 582.4 709.467 594 701.2C597.2 698.933 601.333 694.133 603.333 690.533C606.667 684.4 607.067 681.467 609.467 653.6C615.2 584.533 616.4 565.733 615.6 561.2C614 553.467 607.467 545.6 599.6 542C593.6 539.2 590.4 538.8 575.067 538.533C565.333 538.4 556.933 537.867 556.4 537.467C555.867 537.067 553.867 533.6 552 530C550.133 526.267 544.4 519.067 539.2 513.867C530.4 504.933 521.467 499.467 506.667 493.733C503.867 492.667 505.867 492.133 517.333 490.667C525.067 489.733 538.267 487.333 546.667 485.2C588.133 474.933 611.333 451.867 616.533 415.467L617.6 409.067L625.067 410C629.2 410.533 632.667 411.067 632.667 411.067C632.8 411.2 634.133 415.733 635.867 421.2L638.933 431.067L622.933 447.2C606.267 463.867 603.333 468.267 604.8 474.4C606.4 480.8 610.4 484 617.2 484C622.8 484 652.933 479.333 670.133 476C676.267 474.667 677.467 474.933 685.467 478.533C703.867 487.2 705.467 487.333 769.333 487.333C826.4 487.333 827.467 487.333 837.333 484.267C858.4 477.6 874 467.2 886 451.467C900 433.067 905.333 416.667 905.333 391.2C905.333 366.533 900.667 351.467 887.333 332.533C880.933 323.6 872.4 315.467 868 314C864.8 312.933 860 316.4 860 319.733C860 320.933 863.2 324.933 867.067 328.533C879.2 340.267 888.667 356.667 891.867 371.733C894 381.733 893.733 403.333 891.333 412.667C886.4 432.133 872.933 451.2 856.267 462.133C852.133 464.933 843.6 469.067 837.333 471.2L826 475.333H770C708.267 475.333 706 475.067 689.467 466.667C685.067 464.533 679.867 462.667 677.867 462.667C674.933 462.667 633.067 469.067 620.667 471.467C617.2 472.133 619.333 469.6 635.2 453.467L653.867 434.8L649.6 422.133C647.2 415.2 645.333 408.933 645.333 408.267C645.333 407.6 647.067 406.267 649.067 405.467C654.8 403.067 663.467 393.6 666.933 386C669.6 380 670 376.8 670.4 353.6L670.933 328L675.867 323.867C683.333 317.733 698.667 310.8 710 308.667C717.2 307.2 729.6 306.667 751.333 306.667C768.4 306.667 783.333 306.267 784.533 305.867C787.067 304.933 787.333 298.533 785.067 296.267C782.667 293.867 720.667 294.133 707.6 296.533C696.667 298.667 686.667 302.533 677.2 308.267C673.867 310.267 670.8 312 670.4 312C670.133 312 669.733 307.2 669.733 301.333C669.6 289.6 667.867 283.067 663.067 275.867C659.2 270 650.267 263.333 643.067 261.2C638 259.6 637.6 258.933 632.933 247.467C626.133 231.067 618.933 218.133 608.667 204.533L600 193.067V176V158.933L605.867 156.133C622.133 148.133 624.8 123.867 610.533 112.933C594.267 100.667 572.267 109.333 568.667 129.467C566.8 139.867 573.867 152.8 583.467 156.267L588 157.867V169.867V181.867L583.733 177.733C575.867 170.267 559.333 159.333 546.533 153.067C525.067 142.667 503.6 137.067 477.867 135.2C463.067 134.267 460.8 135.2 461.6 142.267C462 145.867 462.267 146 472.667 147.067C503.467 150 528.667 156.8 547.067 167.2C567.6 178.667 587.867 196.8 602.133 216.667C608.8 226 624 254.933 624 258.4C624 259.467 618 261.333 614.667 261.333C614.133 261.333 612.667 258.533 611.333 254.933C610 251.467 606.4 243.867 603.2 237.867C578.8 192.4 535.6 164.133 482.267 158.667C416.267 151.867 353.2 188.133 325.867 248.667L320.8 260L316 259.2C313.467 258.667 311.2 258.133 310.933 258C309.867 257.067 319.333 236.533 325.333 226.8C338.133 205.333 353.867 188.533 373.2 175.867C381.2 170.533 384 168 384 165.733C384 162.533 380.8 158.667 378.133 158.667C375.867 158.667 364.933 165.733 355.067 173.6L346.667 180.267V168.933C346.667 158.133 346.8 157.6 349.733 156.8C354.533 155.6 359.733 150.933 362.667 145.2C365.867 139.067 366.267 126.933 363.467 121.467C359.333 113.467 348 106.533 339.333 106.667C337.867 106.8 334.4 107.6 331.467 108.667ZM351.2 125.6C355.6 131.867 352.933 141.467 345.733 145.2C333.333 151.467 320.667 135.2 329.733 124.667C335.467 117.867 346.133 118.4 351.2 125.6ZM602.4 121.333C602.533 121.333 603.867 123.333 605.333 125.6C609.333 132.133 608.8 136.8 603.467 142.133C596 149.6 586 147.733 581.867 138C579.867 133.2 581.2 125.467 584.667 122.667C587.733 120.133 593.733 119.067 598 120.267C600.133 120.8 602.133 121.333 602.4 121.333ZM492.8 172.533C542 181.2 581.6 213.733 599.867 260.4L604.667 272.667V344V344.002C604.667 414.933 604.667 415.334 601.6 425.333C592 456.267 567.733 471.067 515.467 478.267C493.2 481.333 444 481.2 421.333 478.133C386.4 473.467 363.467 464.667 350.267 450.8C346.267 446.667 341.733 440.667 340.133 437.6C337.333 432.267 331.6 410.667 332.533 409.6C332.8 409.333 335.733 410.533 338.8 412.133C351.6 418.667 377.2 425.333 389.333 425.333C392.133 425.333 395.333 426.133 396.267 427.067C399.2 430 403.6 432 407.333 432C412.4 432 418.667 425.333 418.667 420C418.667 414.8 412.4 408 407.467 408C403.333 408 397.333 410.667 397.333 412.4C397.333 414.533 379.333 412.4 365.733 408.667C358.933 406.933 348.533 402.933 342.667 400L331.867 394.667L332.267 328.933L332.667 263.333L338.267 251.6C346.267 235.067 355.733 221.867 368.4 209.733C380.4 198.267 389.067 192.133 403.6 184.8C413.467 179.867 431.6 174.133 443.333 172.133C454.267 170.267 481.2 170.533 492.8 172.533ZM318.8 272.8C319.467 273.2 320 300.4 320 333.333V393.2L316 395.333C304.8 401.067 289.067 395.067 282.533 382.4C280.133 377.867 280 374.133 280 334.533C280 293.6 280.133 291.2 282.8 285.733C287.6 275.733 298.533 270.133 310.533 271.333C314.4 271.733 318.267 272.4 318.8 272.8ZM644.267 274.933C647.067 276.533 650.933 280.267 652.933 283.2L656.667 288.667L657.067 332.667C657.467 376.133 657.333 376.667 654.4 382.667C650 391.2 642.133 396.4 632.4 397.067C628.133 397.333 623.067 396.933 620.933 396.133L617.333 394.667L617.6 334.4L618 274.133L623.333 272.4C630 270.4 637.6 271.2 644.267 274.933ZM491.6 499.467C490.8 506.533 487.733 511.333 481.2 515.733C477.6 518.267 475.467 518.8 470.267 518.267C459.733 517.333 452.8 510.533 451.333 499.6L450.533 493.333H471.467H492.4L491.6 499.467ZM442 512C444.8 518.267 452.933 526.133 459.467 528.8C465.733 531.467 478.267 531.067 484.667 528.133C491.6 525.067 497.867 518.8 500.8 512C502.133 509.067 503.867 506.667 504.533 506.667C507.467 506.8 518.133 512.267 524.4 517.067C530.4 521.6 541.333 534.8 541.333 537.6C541.333 538.133 509.867 538.667 471.333 538.667C432.8 538.667 401.333 538.133 401.333 537.6C401.333 535.6 408.667 526.267 414.8 520.4C420.4 515.067 434.533 506.667 437.867 506.667C438.8 506.667 440.667 509.067 442 512ZM593.067 552.533C597.467 554.8 602.133 559.733 603.2 563.333C604.267 566.933 595.067 680.8 593.467 683.733C591.467 687.467 584.933 693.067 580.933 694.533C578.4 695.6 542.8 696 471.067 696C353.333 696 359.867 696.533 352.133 687.067C347.733 681.733 348.4 686.667 342.667 614.933C340.267 584.667 339.2 564 339.867 562.267C341.067 559.067 345.6 554.667 350 552.267C351.867 551.2 387.067 550.8 471.067 550.667C570.267 550.667 590 550.933 593.067 552.533Z" fill="#010B11"/>
<path d="M492.8 172.533C542 181.2 581.6 213.733 599.867 260.4L604.667 272.667V344V344.002C604.667 414.933 604.667 415.334 601.6 425.333C592 456.267 567.733 471.067 515.467 478.267C493.2 481.333 444 481.2 421.333 478.133C386.4 473.467 363.467 464.667 350.267 450.8C346.267 446.667 341.733 440.667 340.133 437.6C337.333 432.267 331.6 410.667 332.533 409.6C332.8 409.333 335.733 410.533 338.8 412.133C351.6 418.667 377.2 425.333 389.333 425.333C392.133 425.333 395.333 426.133 396.267 427.067C399.2 430 403.6 432 407.333 432C412.4 432 418.667 425.333 418.667 420C418.667 414.8 412.4 408 407.467 408C403.333 408 397.333 410.667 397.333 412.4C397.333 414.533 379.333 412.4 365.733 408.667C358.933 406.933 348.533 402.933 342.667 400L331.867 394.667L332.267 328.933L332.667 263.333L338.267 251.6C346.267 235.067 355.733 221.867 368.4 209.733C380.4 198.267 389.067 192.133 403.6 184.8C413.467 179.867 431.6 174.133 443.333 172.133C454.267 170.267 481.2 170.533 492.8 172.533Z" fill="#CEE0E0"/>
<path d="M644.267 274.933C647.067 276.533 650.933 280.267 652.933 283.2L656.667 288.667L657.067 332.667C657.467 376.133 657.333 376.667 654.4 382.667C650 391.2 642.133 396.4 632.4 397.067C628.133 397.333 623.067 396.933 620.933 396.133L617.333 394.667L617.6 334.4L618 274.133L623.333 272.4C630 270.4 637.6 271.2 644.267 274.933Z" fill="#66DCDC"/>
<path d="M318.8 272.8C319.467 273.2 320 300.4 320 333.333V393.2L316 395.333C304.8 401.067 289.067 395.067 282.533 382.4C280.133 377.867 280 374.133 280 334.533C280 293.6 280.133 291.2 282.8 285.733C287.6 275.733 298.533 270.133 310.533 271.333C314.4 271.733 318.267 272.4 318.8 272.8Z" fill="#66DCDC"/>
<path d="M351.2 125.6C355.6 131.867 352.933 141.467 345.733 145.2C333.333 151.467 320.667 135.2 329.733 124.667C335.467 117.867 346.133 118.4 351.2 125.6Z" fill="#66DCDC"/>
<path d="M602.4 121.333C602.533 121.333 603.867 123.333 605.333 125.6C609.333 132.133 608.8 136.8 603.467 142.133C596 149.6 586 147.733 581.867 138C579.867 133.2 581.2 125.467 584.667 122.667C587.733 120.133 593.733 119.067 598 120.267C600.133 120.8 602.133 121.333 602.4 121.333Z" fill="#66DCDC"/>
<path d="M472.667 147.067C503.467 150 528.667 156.8 547.067 167.2C567.6 178.667 587.867 196.8 602.133 216.667C608.8 226 624 254.933 624 258.4C624 259.467 618 261.333 614.667 261.333C614.133 261.333 612.667 258.533 611.333 254.933C610 251.467 606.4 243.867 603.2 237.867C578.8 192.4 535.6 164.133 482.267 158.667C416.267 151.867 353.2 188.133 325.867 248.667L320.8 260L316 259.2C313.467 258.667 311.2 258.133 310.933 258C309.867 257.067 319.333 236.533 325.333 226.8C338.133 205.333 353.867 188.533 373.2 175.867C381.2 170.533 384 168 384 165.733C416.39 147.336 435.875 143.601 472.667 147.067Z" fill="#66DCDC"/>
<path d="M860 319.733C860 320.933 863.2 324.933 867.067 328.533C879.2 340.267 888.667 356.667 891.867 371.733C894 381.733 893.733 403.333 891.333 412.667C886.4 432.133 872.933 451.2 856.267 462.133C852.133 464.933 843.6 469.067 837.333 471.2L826 475.333H770C708.267 475.333 706 475.067 689.467 466.667C685.067 464.533 679.867 462.667 677.867 462.667C674.933 462.667 633.067 469.067 620.667 471.467C617.2 472.133 619.333 469.6 635.2 453.467L653.867 434.8L649.6 422.133C647.2 415.2 645.333 408.933 645.333 408.267C645.333 407.6 647.067 406.267 649.067 405.467C654.8 403.067 663.467 393.6 666.933 386C669.6 380 670 376.8 670.4 353.6L670.933 328L675.867 323.867C683.333 317.733 698.667 310.8 710 308.667C717.2 307.2 729.6 306.667 751.333 306.667C768.4 306.667 783.333 306.267 784.533 305.867C818.401 304.964 834.431 308.678 860 319.733Z" fill="#66DCDC"/>
<path d="M593.067 552.533C597.467 554.8 602.133 559.733 603.2 563.333C604.267 566.933 595.067 680.8 593.467 683.733C591.467 687.467 584.933 693.067 580.933 694.533C578.4 695.6 542.8 696 471.067 696C353.333 696 359.867 696.533 352.133 687.067C347.733 681.733 348.4 686.667 342.667 614.933C340.267 584.667 339.2 564 339.867 562.267C341.067 559.067 345.6 554.667 350 552.267C351.867 551.2 387.067 550.8 471.067 550.667C570.267 550.667 590 550.933 593.067 552.533Z" fill="#66DCDC"/>
<path d="M442 512C444.8 518.267 452.933 526.133 459.467 528.8C465.733 531.467 478.267 531.067 484.667 528.133C491.6 525.067 497.867 518.8 500.8 512C502.133 509.067 503.867 506.667 504.533 506.667C507.467 506.8 518.133 512.267 524.4 517.067C530.4 521.6 541.333 534.8 541.333 537.6C541.333 538.133 509.867 538.667 471.333 538.667C432.8 538.667 401.333 538.133 401.333 537.6C401.333 535.6 408.667 526.267 414.8 520.4C420.4 515.067 434.533 506.667 437.867 506.667C438.8 506.667 440.667 509.067 442 512Z" fill="#CEE0E0"/>
<path d="M491.6 499.467C490.8 506.533 487.733 511.333 481.2 515.733C477.6 518.267 475.467 518.8 470.267 518.267C459.733 517.333 452.8 510.533 451.333 499.6L450.533 493.333H471.467H492.4L491.6 499.467Z" fill="#CEE0E0"/>
<path d="M585 333C585 366.137 585 393 465.5 393C346 393 346 366.137 346 333C346 299.863 346 275.5 465.5 273C585 276.5 585 299.863 585 333Z" fill="#010B11"/>
<path d="M722.45 413C721.377 413 720.443 412.603 719.65 411.81C718.903 411.017 718.53 410.083 718.53 409.01V365.89C718.53 364.817 718.903 363.883 719.65 363.09C720.443 362.297 721.377 361.9 722.45 361.9H724.34C725.413 361.9 726.347 362.297 727.14 363.09C727.933 363.883 728.33 364.817 728.33 365.89V381.78C728.33 382.153 728.517 382.34 728.89 382.34H746.39C746.763 382.34 746.95 382.153 746.95 381.78V365.89C746.95 364.817 747.347 363.883 748.14 363.09C748.933 362.297 749.867 361.9 750.94 361.9H752.83C753.903 361.9 754.813 362.297 755.56 363.09C756.353 363.883 756.75 364.817 756.75 365.89V409.01C756.75 410.083 756.353 411.017 755.56 411.81C754.813 412.603 753.903 413 752.83 413H750.94C749.867 413 748.933 412.603 748.14 411.81C747.347 411.017 746.95 410.083 746.95 409.01V390.46C746.95 390.04 746.763 389.83 746.39 389.83H728.89C728.517 389.83 728.33 390.04 728.33 390.46V409.01C728.33 410.083 727.933 411.017 727.14 411.81C726.347 412.603 725.413 413 724.34 413H722.45ZM780.207 413C779.134 413 778.2 412.603 777.407 411.81C776.614 411.017 776.217 410.083 776.217 409.01V365.89C776.217 364.817 776.614 363.883 777.407 363.09C778.2 362.297 779.134 361.9 780.207 361.9H783.007C784.08 361.9 785.014 362.297 785.807 363.09C786.6 363.883 786.997 364.817 786.997 365.89V409.01C786.997 410.083 786.6 411.017 785.807 411.81C785.014 412.603 784.08 413 783.007 413H780.207ZM813.776 397.6C812.656 397.6 811.7 397.227 810.906 396.48C810.113 395.687 809.693 394.73 809.646 393.61L808.596 365.89C808.55 364.817 808.9 363.883 809.646 363.09C810.393 362.297 811.303 361.9 812.376 361.9H816.156C817.23 361.9 818.14 362.297 818.886 363.09C819.633 363.883 819.983 364.817 819.936 365.89L818.886 393.61C818.84 394.73 818.42 395.687 817.626 396.48C816.833 397.227 815.876 397.6 814.756 397.6H813.776ZM815.456 403.2C816.53 403.2 817.44 403.597 818.186 404.39C818.98 405.183 819.376 406.117 819.376 407.19V409.01C819.376 410.083 818.98 411.017 818.186 411.81C817.44 412.603 816.53 413 815.456 413H813.076C812.003 413 811.07 412.603 810.276 411.81C809.53 411.017 809.156 410.083 809.156 409.01V407.19C809.156 406.117 809.53 405.183 810.276 404.39C811.07 403.597 812.003 403.2 813.076 403.2H815.456Z" fill="white"/>
<path d="M395.707 310.083C400.688 309.649 405.29 310.91 409.266 314.017C414.622 318.202 417.901 325.334 418.772 331.998C419.497 337.552 418.529 342.934 415.37 347.594C411.891 352.727 406.679 355.667 400.719 356.814C396.275 357.484 391.488 356.3 387.704 353.911C382.552 350.658 378.953 345.465 377.607 339.495C376.128 332.934 377.391 325.828 380.959 320.156C384.469 314.576 389.353 311.493 395.707 310.083Z" fill="white"/>
<path d="M395.459 314.118C398.57 313.747 401.687 314.234 404.439 315.853C406.892 317.295 408.963 319.601 409.69 322.527C410.394 325.353 409.859 328.439 408.493 330.964C406.303 335.009 403.126 337.413 398.928 338.641C395.607 339.396 392.358 339.005 389.454 337.042C386.806 335.255 384.816 332.461 384.198 329.176C383.669 326.362 384.207 323.046 385.753 320.652C388.099 317.016 391.416 314.966 395.459 314.118Z" fill="#010B11"/>
<path d="M534.707 310.083C539.688 309.649 544.29 310.91 548.266 314.017C553.622 318.202 556.901 325.334 557.772 331.998C558.497 337.552 557.529 342.934 554.37 347.594C550.891 352.727 545.679 355.667 539.719 356.814C535.275 357.484 530.488 356.3 526.704 353.911C521.552 350.658 517.953 345.465 516.607 339.495C515.128 332.934 516.391 325.828 519.959 320.156C523.469 314.576 528.353 311.493 534.707 310.083Z" fill="white"/>
<path d="M534.459 314.118C537.57 313.747 540.687 314.234 543.439 315.853C545.892 317.295 547.963 319.601 548.69 322.527C549.394 325.353 548.859 328.439 547.493 330.964C545.303 335.009 542.126 337.413 537.928 338.641C534.607 339.396 531.358 339.005 528.454 337.042C525.806 335.255 523.816 332.461 523.198 329.176C522.669 326.362 523.207 323.046 524.753 320.652C527.099 317.016 530.416 314.966 534.459 314.118Z" fill="#010B11"/>
<path d="M461.9 625.82L459.26 635.24C459.24 635.3 459.25 635.36 459.29 635.42C459.33 635.48 459.38 635.51 459.44 635.51H464.42C464.48 635.51 464.53 635.48 464.57 635.42C464.61 635.36 464.62 635.3 464.6 635.24L461.96 625.82C461.96 625.8 461.95 625.79 461.93 625.79C461.91 625.79 461.9 625.8 461.9 625.82ZM454.13 644C453.71 644 453.38 643.83 453.14 643.49C452.9 643.15 452.85 642.78 452.99 642.38L459.2 623.72C459.38 623.24 459.67 622.85 460.07 622.55C460.49 622.25 460.95 622.1 461.45 622.1H462.53C463.05 622.1 463.51 622.25 463.91 622.55C464.33 622.85 464.62 623.24 464.78 623.72L470.99 642.38C471.13 642.78 471.08 643.15 470.84 643.49C470.6 643.83 470.27 644 469.85 644H468.77C468.29 644 467.84 643.85 467.42 643.55C467.02 643.23 466.75 642.83 466.61 642.35L465.65 638.96C465.63 638.8 465.52 638.72 465.32 638.72H458.54C458.36 638.72 458.25 638.8 458.21 638.96L457.25 642.35C457.13 642.83 456.86 643.23 456.44 643.55C456.04 643.85 455.59 644 455.09 644H454.13ZM476.28 644C475.82 644 475.42 643.83 475.08 643.49C474.74 643.15 474.57 642.75 474.57 642.29V623.81C474.57 623.35 474.74 622.95 475.08 622.61C475.42 622.27 475.82 622.1 476.28 622.1H477.48C477.94 622.1 478.34 622.27 478.68 622.61C479.02 622.95 479.19 623.35 479.19 623.81V642.29C479.19 642.75 479.02 643.15 478.68 643.49C478.34 643.83 477.94 644 477.48 644H476.28Z" fill="#5ED0D1"/>
<path d="M483.5 357C483.5 367 486 377.5 466 377.5C446 377.5 446 371 446 357H464.75H483.5Z" fill="white" stroke="white"/>
</svg>
