<?xml version="1.0" encoding="utf-8" ?>
<svg xmlns="http://www.w3.org/2000/svg" xmlns:xlink="http://www.w3.org/1999/xlink" width="512" height="512">
	<path fill="#023047" d="M258.352 59.3115C269.316 58.4092 267.225 72.464 267.208 79.3942C267.2 82.8124 267.961 88.0767 265.408 90.8455L265.141 91.125C263.774 92.6391 262.568 93.5725 260.655 94.3314L260.473 94.3477C256.432 94.8284 254.337 92.3749 252.894 88.7687L252.672 88.2689C251.816 86.0534 252.235 82.5337 252.232 80.1827L252.248 72.1042C252.279 66.4719 252.398 61.5205 258.352 59.3115Z"/>
	<path fill="#023047" d="M340.632 81.2575C346.146 81.0374 351.564 86.2082 349.03 91.8653C347.113 96.1445 333.919 108.914 329.923 110.56C324.228 111.782 319.44 105.736 321.841 100.341C323.788 95.9677 336.059 83.0876 340.632 81.2575Z"/>
	<path fill="#023047" d="M176.519 81.7818C182.448 81.5127 184.9 85.313 188.583 89.1673C194.009 94.8452 207.24 105.471 193.988 111.872C188.589 112.971 184.281 106.592 180.944 103.276C175.809 98.1733 162.859 85.5883 176.519 81.7818Z"/>
	<path fill="#023047" d="M436.979 187.845C442.758 187.352 448.447 187.826 453.883 189.975C486.396 202.827 479.727 250.611 450.745 257.421C449.444 257.727 448.208 257.753 446.958 258.284L446.899 287.877C446.879 289.64 446.949 291.561 446.353 293.245L446.26 293.5C445.719 295.258 444.86 296.301 443.562 297.546C439.43 300.479 433.461 297.277 432.38 292.625C432.081 291.336 432.187 289.897 432.183 288.578L432.011 258.088L429.962 257.403C427.164 256.711 424.181 254.935 421.845 253.286C394.1 233.688 403.83 192.255 436.979 187.845ZM432.652 241.91C431.375 240.703 429.815 239.665 428.776 238.239C418.748 224.471 433.655 203.542 451.217 209.169C452.836 209.121 453.926 210.067 454.501 210.001L454.627 209.375C454.314 208.534 453.533 208.19 453.193 207.372L453.052 207.007C441.197 194.26 414.841 209.659 420.898 228.387C422.64 233.771 426.602 239.019 431.75 241.537L432.652 241.91Z"/>
	<path fill="#FFA529" d="M453.052 207.007C458.925 211.031 461.524 220.055 460.408 226.909C458.598 240.404 444.39 248.337 432.657 241.936L432.652 241.91C431.375 240.703 429.815 239.665 428.776 238.239C418.748 224.471 433.655 203.542 451.217 209.169C452.836 209.121 453.926 210.067 454.501 210.001L454.627 209.375C454.314 208.534 453.533 208.19 453.193 207.372L453.052 207.007Z"/>
	<defs>
		<linearGradient id="gradient_0" gradientUnits="userSpaceOnUse" x1="458.60599" y1="216.203" x2="455.20499" y2="212.121">
			<stop offset="0" stop-color="#FFD47C"/>
			<stop offset="1" stop-color="#FFF0AE"/>
		</linearGradient>
	</defs>
	<path fill="url(#gradient_0)" d="M453.052 207.007C458.925 211.031 461.524 220.055 460.408 226.909C460.284 226.414 460.183 225.929 460.183 225.416L460.25 221.375C460.211 220.927 459.979 220.666 459.982 220.14L459.75 218.875C459.35 218.091 459.387 217.209 458.938 216.374L458.299 217.354C457.793 217.732 457.905 217.787 457.788 218.375C458.9 220.645 457.695 226.01 456.972 228.465L456.632 228.5C458.498 221.228 458.251 213.519 451.217 209.169C452.836 209.121 453.926 210.067 454.501 210.001L454.627 209.375C454.314 208.534 453.533 208.19 453.193 207.372L453.052 207.007Z"/>
	<path fill="#023047" d="M93.902 245.095C109.498 243.035 121.152 260.399 117.955 274.622L117.856 275.041C114.461 290.066 98.3712 303.08 87.8778 313.511C72.8771 328.424 75.8412 328.911 58.938 312.118L41.4971 292.81C35.3933 284.853 32.0057 275.716 33.2503 265.625L33.5071 264.125C35.2039 257.085 39.931 251.732 46 248.009L46.6296 247.628C57.5467 241.577 70.1583 246.473 75.7538 257.381L77.8812 254.197C81.8752 249.139 87.4951 245.807 93.902 245.095ZM69.6498 300.458C68.6246 298.476 66.7225 296.595 65.3374 294.833C60.7748 289.029 50.6314 273.418 56.8086 266.142C59.595 262.86 61.6597 265.888 64.1551 267.079L64.4001 267.171C60.8447 260.468 55.4656 256.12 50.1016 265.026C43.3163 276.291 62.33 294.23 69.6498 300.458Z"/>
	<defs>
		<linearGradient id="gradient_1" gradientUnits="userSpaceOnUse" x1="94.544296" y1="264.70999" x2="87.232903" y2="265.95001">
			<stop offset="0" stop-color="#FFA199"/>
			<stop offset="1" stop-color="#FFC9C5"/>
		</linearGradient>
	</defs>
	<path fill="url(#gradient_1)" d="M82.1343 277.936C86.3699 271.921 90.5589 258.271 98.2606 260.263L96.6705 260.898C93.3338 262.194 91.4159 265.301 89.5104 268.14L85.2154 274.484C84.4414 275.591 83.3685 277.324 82.1343 277.936Z"/>
	<path fill="#D42330" d="M98.2606 260.263C113.963 269.26 89.8051 290.095 82.7671 296.605L74.0328 305.314L70.9464 301.941C70.5722 301.532 69.8754 300.953 69.6498 300.458C68.6246 298.476 66.7225 296.595 65.3374 294.833C60.7748 289.029 50.6314 273.418 56.8086 266.142C59.595 262.86 61.6597 265.888 64.1551 267.079L64.4001 267.171C68.2811 272.642 70.9249 278.085 75.8835 282.839C78.5628 281.53 80.0331 279.981 82.1343 277.936C83.3685 277.324 84.4414 275.591 85.2154 274.484L89.5104 268.14C91.4159 265.301 93.3338 262.194 96.6705 260.898L98.2606 260.263Z"/>
	<path fill="#023047" d="M449.418 53.3902C465.603 52.65 481.228 62.011 486.316 77.7859C494.444 76.5937 506.739 79.1563 509.744 88.0986C510.428 90.1358 510 93.3267 510.004 95.538L510.01 112.333C510.01 114.021 510.429 116.554 509.2 117.78C504.906 122.066 502.77 121.833 497.061 121.626L444.187 121.506L398.752 121.574C397.018 121.598 395.01 121.813 393.295 121.568C382.28 119.988 383.365 105.815 384.201 97.8599C385.984 80.8963 400.445 75.5947 415.63 77.308C422.699 62.1552 431.755 54.9141 449.418 53.3902ZM449.417 68.113C447.995 68.226 446.617 68.3187 445.228 68.6601L444.908 68.7322C428.737 72.5304 430.538 86.8608 424.375 92.1648C422.09 92.6815 419.647 92.4665 417.318 92.4365L407.275 92.3451C405.222 92.329 403.013 91.7719 401.551 93.5128L401.363 93.7299C398.496 97.1398 398.372 102.581 398.493 106.857L447.565 106.795L497.098 106.918C497.55 101.676 497.732 92.4465 490.827 92.6017C482.417 92.7908 477.898 96.2297 474.058 88.3423C468.576 77.0804 467.713 68.2732 450.625 68.068L449.417 68.113Z"/>
	<path fill="#023047" d="M72.7685 51.6456C75.8417 51.4324 79.2968 51.4201 82.3435 51.9139L87.9804 53.0721C101.419 56.9293 107.923 64.783 113.175 76.805L117.166 75.8029C137.611 71.7594 153.751 86.6218 153.761 106.961C153.765 114.607 153.207 123.157 148.731 129.661L148.494 130C144.091 136.365 138.904 137.118 131.841 137.156L85.875 137.198L32.9272 137.182C17.9359 137.147 6.87646 132.4 3.82076 115.865C2.64579 109.507 4.8853 102.538 8.53723 97.3275L10.5464 94.7912C17.0636 87.8099 26.858 84.7662 36.1994 84.4006C36.7982 83.0741 36.9402 81.3745 37.3472 79.9555C41.7923 64.4574 56.707 52.7328 72.7685 51.6456ZM74.1948 66.1027C64.7496 67.1838 57.0388 71.4876 52.4938 79.875L52.3001 80.2259C50.1058 84.2948 50.1972 95.4602 48.6804 96.8745C44.289 100.969 26.5542 94.3422 20.6025 105.99C18.7648 109.587 18.257 114.783 20.375 118.319L20.5471 118.611C23.3313 123.179 28.1523 122.455 32.6645 122.354L88.625 122.289L119.25 122.297C132.854 122.315 140.938 125.909 139.371 107.431C139.022 103.321 137.963 98.8499 135.582 95.4291L135.419 95.1872C131.342 89.2833 122.332 88.7512 116.058 91.1184C108.41 94.0039 106.024 96.3851 101.905 88.2104C100.433 85.2888 99.2776 82.2044 97.6844 79.3472C93.2544 71.402 83.9815 64.7138 74.4549 66.0443L74.1948 66.1027Z"/>
	<path fill="#023047" d="M253.942 117.344C257.421 117.243 261.36 116.902 264.778 117.524L276.344 120.069C301.758 127.721 320.113 150.593 323.118 177.043C326.298 205.029 311.291 232.049 298.558 255.788L286.85 278.154L266.925 311.682C264.74 315.414 262.602 320.235 258.622 322.343C251.493 323.47 247.513 315.124 244.413 310.08L208.256 247.843L197.27 223.941C194.695 217.623 192.317 211.142 190.784 204.482L188.871 193.713C185.609 161.132 207.968 127.457 239.993 119.49C244.592 118.346 249.242 117.842 253.942 117.344ZM257.4 298.358C262.457 292.164 266.009 284.275 269.931 277.31C285.442 249.765 299.909 226.261 307.553 195.434C311.695 178.729 304.121 157.268 291.263 145.947C289.932 144.775 288.307 143.313 286.659 142.621L286.215 142.84C272.785 136.937 257.315 134.725 243.335 140.102C221.386 148.545 207.763 173.038 210.777 196.174C212.92 212.627 224.477 235.369 232.182 249.827L253.545 289.293C255.248 292.402 256.644 294.856 257.4 298.358ZM257.4 298.358C256.644 294.856 255.248 292.402 253.545 289.293L232.182 249.827C224.477 235.369 212.92 212.627 210.777 196.174C207.763 173.038 221.386 148.545 243.335 140.102C257.315 134.725 272.785 136.937 286.215 142.84L286.659 142.621C261.732 126.537 231.923 129.064 213.865 154.65C198.252 176.772 202.32 198.416 212.265 221.304L220.92 239.215L253.053 295.668C254.814 298.293 255.842 302.196 257.4 298.358Z"/>
	<path fill="#16B3AF" d="M257.4 298.358C256.644 294.856 255.248 292.402 253.545 289.293L232.182 249.827C224.477 235.369 212.92 212.627 210.777 196.174C207.763 173.038 221.386 148.545 243.335 140.102C257.315 134.725 272.785 136.937 286.215 142.84L286.659 142.621C288.307 143.313 289.932 144.775 291.263 145.947C304.121 157.268 311.695 178.729 307.553 195.434C299.909 226.261 285.442 249.765 269.931 277.31C266.009 284.275 262.457 292.164 257.4 298.358ZM238.265 216.401C247.285 221.114 256.156 222.465 266.102 220L267.599 219.61L270.939 218.319C286.821 211.11 293.85 194.426 291.368 177.639L292 177.037C292.45 176.468 292.566 176.147 293.199 175.704L291.693 171.718L291.621 171.539C290.733 169.505 289.189 165.427 286.506 166.814C279.287 158.56 270.464 151.38 259.052 150.658C228.844 148.747 207.283 184.839 229.642 209.447C232.215 212.279 235.16 214.229 238.265 216.401ZM291.368 177.639C293.85 194.426 286.821 211.11 270.939 218.319L270.375 220.127C270.821 220.21 271.061 220.2 271.5 220.189L272.248 220.308C272.898 220.411 273.517 220.457 274.145 220.671L274.154 220.683C287.884 215.359 296.984 199.01 295.367 184.497C295.034 181.502 294.096 178.571 293.199 175.704C292.566 176.147 292.45 176.468 292 177.037L291.368 177.639Z"/>
	<defs>
		<linearGradient id="gradient_2" gradientUnits="userSpaceOnUse" x1="251.644" y1="216.007" x2="266.82901" y2="227.287">
			<stop offset="0" stop-color="#51D1D0"/>
			<stop offset="1" stop-color="#C5FFFF"/>
		</linearGradient>
	</defs>
	<path fill="url(#gradient_2)" d="M238.265 216.401C247.285 221.114 256.156 222.465 266.102 220L267.599 219.61L270.939 218.319L270.375 220.127C270.821 220.21 271.061 220.2 271.5 220.189L272.248 220.308C272.898 220.411 273.517 220.457 274.145 220.671L272.125 221.621C262.366 225.711 248.354 224.647 238.524 220.521C237.732 220.189 237.033 219.957 236.377 219.375L243.5 221.75C243.895 221.872 244.228 222.002 244.641 222.07L245.5 222.25C247.61 222.953 248.526 220.726 247.137 220.406L240.187 217.843C239.4 217.445 238.542 217.256 238.265 216.401Z"/>
	<path fill="#B2FEFE" d="M266.102 220L267.599 219.61C268.294 219.878 268.409 219.77 269.138 219.566L269.079 219.864C268.447 220.118 269.03 219.863 268.5 220.189L267.906 220.65C267.26 221.351 266.261 221.321 265.375 221.373L264.861 220.806C265.446 220.639 265.689 220.429 266.102 220Z"/>
	<path fill="#023047" d="M238.265 216.401C235.16 214.229 232.215 212.279 229.642 209.447C207.283 184.839 228.844 148.747 259.052 150.658C270.464 151.38 279.287 158.56 286.506 166.814C289.189 165.427 290.733 169.505 291.621 171.539L291.693 171.718L293.199 175.704C292.566 176.147 292.45 176.468 292 177.037L291.368 177.639C293.85 194.426 286.821 211.11 270.939 218.319L267.599 219.61L266.102 220C256.156 222.465 247.285 221.114 238.265 216.401ZM254.187 165.323C250.244 165.999 246.889 167.05 243.532 169.301L243.196 169.518C235.715 174.459 233.07 184.368 236.422 192.535L236.556 192.875C239.733 200.787 248.842 206.928 257.493 206.121C267.174 204.761 274.652 198.881 276.254 189L276.32 188.634C278.152 178.026 271.647 167.434 260.727 165.6L259.622 165.426C258.173 165.174 255.598 164.962 254.187 165.323Z"/>
	<path fill="#B2FEFE" d="M289.862 172.327C290.457 172.015 291.047 171.876 291.693 171.718L293.199 175.704C292.566 176.147 292.45 176.468 292 177.037L291.368 177.639C291.08 175.833 290.523 174.03 289.862 172.327Z"/>
	<path fill="#60E4E9" d="M286.506 166.814C289.189 165.427 290.733 169.505 291.621 171.539L291.693 171.718C291.047 171.876 290.457 172.015 289.862 172.327C289.046 170.329 287.776 168.544 286.506 166.814Z"/>
	<path fill="#023047" d="M214.676 302.8C218.936 303.304 223.13 303.166 223.738 309.547C224.512 317.679 212.85 318.879 207.281 320.724C196.582 324.27 182.211 332.735 174.785 341.676C199.496 350.165 233.757 352.252 259.506 352.263L278.295 352.18C279.816 352.127 281.298 351.869 282.81 351.753L295.75 350.772C311.107 349.38 326.149 347.149 341.003 342.873C336.834 334.589 318.492 325.45 310.493 321.888C305.696 319.752 298.53 318.909 295.375 314.424C291.064 308.296 296.961 301.694 303.581 303.42L303.875 303.499C306.428 304.143 308.861 305.136 311.348 305.993L322.075 309.465C334.216 313.301 346.367 317.053 358.173 321.853C385.816 333.093 418.654 353.132 440.322 372.706L455.24 387.54C476.674 409.973 494.43 436.46 505.27 465.636C510.043 478.481 510.029 481.444 509.976 494.701C509.266 495.329 507.914 495.342 507 495.408L441.375 495.571L23.7405 495.596C15.642 495.605 9.51546 497.099 2.26867 493.016C0.920211 483.73 3.00668 476.321 6.06834 467.683C20.8702 425.921 49.7496 391.643 83.875 363.919C108.185 344.169 135.805 330.143 164.825 318.568L183.53 311.572L202.239 306.169C206.385 305.01 210.441 303.626 214.676 302.8ZM156.245 337.625C146.178 341.15 130.442 349.779 121.298 355.326C78.6654 381.19 37.1488 422.343 20.4904 470.084L17.2942 480.75C17.7857 481.158 17.507 481.038 18.125 481.014L100.796 480.503C101.194 478.384 101.24 476.248 101.493 474.111L103.557 459.608C110.648 419.03 123.636 377.618 151.001 345.871C152.178 344.505 159.621 337.061 156.245 337.625ZM356.478 336.37C359.225 341.16 363.045 344.987 366.415 349.325C389.027 378.435 401.624 413.941 408.15 449.875L412.67 476.976C412.816 478.159 412.801 479.325 413.048 480.498L493.711 480.231C479.396 427.429 431.731 378.194 385.66 351.842L356.478 336.37ZM123.362 480.244C123.406 477.922 123.416 475.403 123.82 473.115L126.243 458.306L135.87 419.777C137.037 416.009 138.267 411.273 140.906 408.237C146.121 408.942 151.417 411.436 156.402 413.118L167.493 416.497C168.249 415.971 168.248 415.935 168.533 415.053C157.078 411.944 144.932 408.373 134.585 402.427C126.331 423.103 121.485 445.328 117.651 467.195L115.631 480.244L123.362 480.244ZM330.083 480.502C329.532 475.224 329.808 469.992 329.497 464.717L326.909 426.578C326.683 422.706 328.063 423.494 331.527 422.894C338.054 421.764 379.764 413.485 381.559 406.228L381.125 405.516C360.444 411.254 344.454 419.919 321.295 420.86C321.28 426.14 321.905 431.251 322.255 436.5L324.804 475.054C324.876 476.69 324.662 478.969 325.115 480.511L330.083 480.502ZM207.245 480.035L211.837 480.032L213.949 451.875C214.803 443.795 215.506 435.397 217.648 427.546L251.317 429.157C251.297 428.019 251.213 426.86 251.422 425.738L210.677 422.671L206.506 479.625C206.778 479.847 206.903 479.953 207.245 480.035ZM272.517 480.237L272.569 432.044C272.574 431.82 272.626 429.71 272.701 429.635C272.87 429.462 303.914 428.696 306.11 426.625L306.075 424.932L305.853 424.341C303.64 424.067 301.213 424.25 298.982 424.327L267.252 425.727L267.265 480.241C268.952 480.264 270.836 480.124 272.517 480.237ZM149.087 391.872C150.582 384.795 158.652 372.584 162.509 366.535C168.854 356.584 168.244 358.216 178.838 361.203C186.621 363.397 195.203 366.175 203.331 366.246L203.604 364.875C202.913 364.209 200.617 364.12 199.577 363.918L189.671 361.783C180.397 359.889 171.839 355.85 163.238 354.117C155.072 362.935 147.327 378.219 141.95 388.791L149.087 391.872ZM323.676 404.769C321.57 398.746 320.952 392.306 320.052 386.017L317.686 368.01L334.023 364.974C341.197 363.529 348.69 361.154 356.012 361.209C353.026 355.188 351.395 357.231 345.48 358.665L322.688 363.691C319.397 364.315 315.96 364.564 312.632 364.946L318.528 405.842L323.676 404.769ZM219.255 407.398C219.16 402.22 220.044 396.715 220.687 391.572L223.797 370.222C226.259 369.848 229.058 370.269 231.567 370.291L251.073 370.24L251.097 368.751C250.151 368.156 249.228 368.439 248.143 368.425L228.151 367.587C216.684 366.738 219.466 363.099 217.103 377.258L214.246 396.75C213.847 399.964 213.074 403.388 213.03 406.621L219.255 407.398ZM272.525 409.759L272.558 371.277C274.745 371.231 294.946 369.798 296.212 368.66C296.685 368.235 296.534 367.578 296.559 366.967C296.175 366.774 269.911 367.907 267.252 367.924L267.272 409.71L272.525 409.759Z"/>
	<path fill="#16B3AF" d="M296.559 366.967C297.291 370.206 297.979 373.317 298.518 376.601L301.235 395.16C301.84 399.498 302.603 403.86 302.823 408.239L272.558 409.622L272.558 371.277C274.745 371.231 294.946 369.798 296.212 368.66C296.685 368.235 296.534 367.578 296.559 366.967Z"/>
	<path fill="#16B3AF" d="M219.243 407.398C219.16 402.22 220.044 396.715 220.687 391.572L223.797 370.222C226.259 369.848 229.058 370.269 231.567 370.291L251.073 370.276L251.375 370.57C251.156 371.418 251.351 372.511 251.388 373.381L251.457 397.79C251.454 401.713 251.605 405.712 251.323 409.622L222.911 408.022C221.81 407.892 220.266 407.81 219.243 407.398Z"/>
	<path fill="#16B3AF" d="M356.012 361.209C357.87 362.725 359.175 365.37 360.469 367.393L373.74 390.128C363.772 394.659 334.992 404.847 323.676 404.769C321.57 398.746 320.952 392.306 320.052 386.017L317.686 368.01L334.023 364.974C341.197 363.529 348.69 361.154 356.012 361.209Z"/>
	<path fill="#16B3AF" d="M149.087 391.872C150.582 384.795 158.652 372.584 162.509 366.535C168.854 356.584 168.244 358.216 178.838 361.203C186.621 363.397 195.203 366.175 203.331 366.246L197.999 401.625C197.843 402.642 197.836 404.255 197.305 405.121L180.772 401.525C170.275 399.077 158.986 396.296 149.087 391.872Z"/>
	<path fill="#16B3AF" d="M306.075 425.209C306.622 428.441 306.85 431.738 307.169 435L309.65 480.408L272.489 480.481L272.569 432.044C272.574 431.82 272.626 429.71 272.701 429.635C272.87 429.462 303.914 428.696 306.11 426.625L306.075 425.209Z"/>
	<path fill="#16B3AF" d="M207.245 480.086L211.837 480.032L213.949 451.875C214.803 443.795 215.506 435.397 217.648 427.546L251.317 429.29C251.672 431.037 251.524 432.962 251.525 434.762L251.527 480.438L212.197 480.416C210.614 480.377 208.78 480.479 207.245 480.086Z"/>
	<path fill="#16B3AF" d="M381.559 406.228C385.366 415.595 387.687 425.552 389.843 435.411L397.84 480.407L330.129 480.497C329.532 475.224 329.808 469.992 329.497 464.717L326.909 426.578C326.683 422.706 328.063 423.494 331.527 422.894C338.054 421.764 379.764 413.485 381.559 406.228Z"/>
	<path fill="#16B3AF" d="M123.29 480.497C123.406 477.922 123.416 475.403 123.82 473.115L126.243 458.306L135.87 419.777C137.037 416.009 138.267 411.273 140.906 408.237C146.121 408.942 151.417 411.436 156.402 413.118L167.493 416.497C168.249 415.971 168.248 415.935 168.533 415.053L194.987 421.97C195.127 427.29 194.396 432.738 193.94 438.04L191.783 463.66C191.627 465.608 190.957 479.7 190.45 480.414L123.29 480.497Z"/>
	<path fill="#B2FEFE" d="M168.533 415.053L194.987 421.97C191.607 422.053 187.973 421.36 184.663 420.704L167.493 416.497C168.249 415.971 168.248 415.935 168.533 415.053Z"/>
</svg>
