<?xml version="1.0" encoding="utf-8" ?>
<svg xmlns="http://www.w3.org/2000/svg" xmlns:xlink="http://www.w3.org/1999/xlink" width="512" height="512">
	<path fill="#023047" d="M222.934 193.912C238.478 194.031 235.671 206.249 228.779 207.528C227.431 207.779 225.933 207.66 224.567 207.662L192.312 207.659C189.267 207.683 184.919 208.14 182.448 206.036C178.39 202.579 181.123 195.289 185.953 194.157C187.273 193.847 188.783 193.934 190.134 193.932L222.934 193.912Z"/>
	<path fill="#023047" d="M224.781 264.889L233.768 264.87C237.658 264.868 242.811 264.306 245.958 267.035C250.684 271.133 249.505 277.312 243.223 278.175C239.251 278.72 234.732 278.297 230.686 278.296L203.625 278.279L193.968 278.281C189.659 278.273 184.6 278.828 181.125 275.702C175.431 270.581 184.116 265.766 188.543 265.032C191.978 264.463 196.066 264.901 199.593 264.898L224.781 264.889Z"/>
	<path fill="#023047" d="M190.954 157.852L223.812 157.836C229.597 157.837 243.989 155.87 247.973 161.477L248.472 162.195C252.472 168.445 242.407 171.123 237.812 171.21L193.989 171.244C189.612 171.239 184.721 171.516 181.04 168.689C173.293 162.74 185.498 158.222 190.954 157.852Z"/>
	<path fill="#023047" d="M196.505 412.57L235.069 412.546C238.651 412.549 242.552 412.31 245.488 414.786C248.104 416.993 248.996 421.307 246.457 423.918C242.895 427.581 235.57 426.502 230.875 426.488L195.582 426.488C188.316 426.479 184.369 426.673 179.234 421.003L179.509 420.125C182.493 412.428 189.47 412.679 196.505 412.57Z"/>
	<path fill="#023047" d="M139.197 138.125C142.943 137.651 146.202 142.635 147.983 145.306C143.66 154.2 131.957 161.962 124.694 170.243C116.245 179.877 113.95 179.046 105.632 171.687L98.7701 165.711C95.455 162.567 92.9663 159.611 92.7527 154.826C92.5865 151.102 93.8081 149.132 97.75 149.253C102.676 149.404 106.362 153.586 109.483 156.914L115.269 163.205C123.713 156.068 129.048 141.17 139.197 138.125Z"/>
	<path fill="#023047" d="M187.859 301.808L232.392 301.76C237.563 301.764 245.358 300.833 247.988 306.702L248.125 307.023C250.361 312.178 246.331 314.887 241.511 315.577L191.875 315.602C189.816 315.601 187.602 315.741 185.557 315.511C178.36 314.703 177.766 303.789 187.859 301.808Z"/>
	<path fill="#023047" d="M141.98 183.299C163.064 183.044 128.72 211.948 125.253 215.189C120.105 220.002 114.754 226.994 107.697 228.932C103.251 227.317 100.322 224.054 97.1358 220.708L90.0461 213.241C86.9122 210.062 84.4678 207.041 82.9017 202.839C87.29 187.477 103.511 207.174 108.348 212.507L124.305 196.875C129.664 191.519 134.113 184.92 141.98 183.299Z"/>
	<path fill="#023047" d="M189.698 375.844L277.024 375.755C283.583 375.754 294.799 374.609 294.829 384.953C294.845 390.122 288.526 389.518 284.937 389.499L198.722 389.477C195.079 389.481 191.279 389.709 187.651 389.417C176.926 388.553 177.755 376.811 189.698 375.844Z"/>
	<path fill="#023047" d="M469.11 193.875C477.27 193.537 476.751 207.852 476.755 212.924C476.759 218.549 477.009 224.337 476.489 229.935C473.871 258.131 465.684 282.636 449.447 305.995C445.852 311.167 442.108 316.583 436.7 320.001C432.41 321.198 428.961 314.899 429.883 311.302C431.127 306.455 434.871 301.966 437.702 297.944C461.381 264.303 464.687 249.971 464.344 207.734C464.303 202.635 462.375 195.603 469.11 193.875Z"/>
	<path fill="#023047" d="M129.321 389.464C152.01 390.968 146.089 392.026 145.358 408.828L145.311 422.979C145.288 435.804 141.403 433.462 130.25 433.474L110.625 433.469L103.413 433.444C97.9641 433.405 94.3763 433.219 93.8984 426.976C93.364 419.993 93.7971 412.693 93.7842 405.676C93.7735 399.834 91.4328 391.084 99.5297 389.893C103.098 389.368 106.783 389.515 110.382 389.508L129.321 389.464ZM109.084 421.081L109.131 407.26L133.554 407.354C133.76 405.526 133.742 403.448 134.319 401.705C130.2 401.104 125.889 401.295 121.735 401.287L104.096 401.276L104.066 414.65C104.063 416.801 103.869 419.164 104.127 421.289L109.084 421.081Z"/>
	<path fill="#FF78A9" d="M109.177 421.072L109.131 407.26L133.554 407.268C133.699 409.722 134.279 419.159 133.504 420.696C132.372 421.532 128.84 421.093 127.357 421.084L109.177 421.072Z"/>
	<path fill="#023047" d="M107.529 273.053L131.496 273.039C136.36 273.046 145.672 271.419 146.367 278.495L146.398 278.875C146.973 285.244 146.552 292.015 146.555 298.434L146.555 314C146.556 317.649 147.068 322.391 145.911 325.873L145.777 326.25C143.805 331.967 137.316 330.69 132.473 330.668L110.539 330.669C94.9415 330.661 93.804 332.496 93.7885 314.985L93.7594 287.412C93.5079 275.284 93.9299 273.758 107.529 273.053ZM109.084 318.018L109.068 292.187L135.113 292.226L135.828 284.356L104.32 284.417C103.821 285.087 104 315.388 104.116 318.671C105.848 318.553 107.56 318.484 109.084 318.018Z"/>
	<path fill="#FF78A9" d="M109.241 317.96L109.068 292.187L135.215 292.188L135.029 317.78L109.241 317.96Z"/>
	<path fill="#023047" d="M222.533 4.34059C236.336 3.52973 249.051 12.1926 254.625 24.7591C255.636 27.0372 256.003 29.346 256.886 31.6271L401.426 31.7075C418.402 32.2493 416.283 46.7471 416.292 59.1578L416.329 99.512C416.329 102.603 416.591 106.032 416.073 109.078C414.927 115.815 406.221 118.365 404.007 108.475C403.493 106.181 403.55 103.621 403.547 101.28L403.513 48.6952C403.506 48.0344 403.677 46.8552 403.297 46.3216C391.889 44.8828 380.024 45.5885 368.523 45.5864L317.07 45.654C324.409 57.4247 330.496 70.8449 329.343 85.065C328.723 92.7022 324.181 92.5948 317.496 92.5975L122.758 92.573C118.297 92.4196 115.444 89.9864 114.707 85.5081L114.639 85.0675C112.885 74.0528 121.321 56.2329 126.688 46.0272L39.0004 45.5962C38.7914 49.4874 38.968 53.4537 38.9683 57.3551L38.9726 487.399C38.9789 492.493 38.671 495.974 44.4623 496.232L300.64 496.259C313.995 496.108 325.095 493.369 339.213 494.466L338.146 493.755C335.229 491.465 331.789 489.877 328.752 487.754C316.633 479.284 314.523 463.644 314.512 449.974L314.502 374.18C314.502 373.137 314.673 364.725 314.223 364.293C313.736 363.824 309.017 364.342 307.145 362.107C305.064 359.62 305.918 354.903 305.919 351.936C305.924 335.771 307.525 330.479 324.996 330.682C327.395 330.709 329.81 330.714 332.184 331.094L332.581 331.16C333.564 327.232 333.127 321.943 332.855 317.894C267.555 306.56 236.476 226.725 270.643 171.359C287.669 142.94 319.468 125.289 352.383 124.966C393.678 124.562 430.216 155.154 442.276 193.9C456.973 241.114 430.729 296.491 384.397 314.033C379.406 315.923 374.255 316.802 369.204 318.362C368.844 320.002 368.887 321.852 368.866 323.529L368.804 331.48C373.035 330.089 389.948 329.865 392.707 332.155C398.029 336.572 398.079 354.482 396.328 360.806C394.814 366.277 391.895 365.625 386.892 365.418C384.169 375.465 384.719 384.199 384.716 394.537L384.721 451.016C384.736 470.767 381.78 478.9 366.353 490.519C364.126 492.197 361.755 493.863 359.932 495.99C363.602 496.428 367.353 496.277 371.047 496.282L398.275 496.274C400.005 496.27 401.887 496.453 403.571 496.07L403.356 396.636C403.353 388.358 411.515 381.045 415.211 388.574L415.375 388.92C415.916 390.048 416.187 390.949 416.245 392.204L416.302 478.107C416.299 489.534 417.32 508.751 401.428 509.385L53.8812 509.453C36.5418 509.45 26.6769 509.411 26.1313 489.56L26.1139 56.9207C26.1103 53.0123 25.6499 48.4183 26.3201 44.6007L26.3897 44.2327C29.1798 28.8951 51.2473 31.6154 62.6102 31.6267L185.564 31.7843C186.43 30.3734 186.962 28.8028 187.67 27.306C194.324 13.2362 207.26 6.19268 222.533 4.34059ZM426.761 209.279L426.412 209.493C420.009 213.227 420.567 205.117 406.816 218.24L394.314 230.208C392.871 231.467 391.448 232.838 389.874 233.925C388.639 236.938 393.876 252.126 394.633 256.245C394.895 257.669 394.537 259.175 394.763 260.607C390.647 278.06 373.16 266.008 362.622 261.664C344.144 254.047 334.94 264.174 318.34 270.476C315.425 269.362 309.929 268.43 309.056 264.987C308.276 261.905 309.016 257.641 307.441 254.869L307.314 254.659C303.66 259.754 294.961 270.841 290.63 275.051L290.275 275.5C291.707 281.928 296.641 286.044 301.598 289.982C318.282 303.235 341.164 309.151 362.25 306.599C402.586 301.716 432.826 260.352 433.096 221.098C433.114 218.482 433.234 215.747 432.891 213.15L432.833 212.75C432.413 209.686 430.24 207.515 426.984 209.143L426.761 209.279ZM286.134 267.996C286.167 263.904 283.792 259.162 282.705 255.22L279.675 242.5C279.046 239.804 278.237 237.039 277.899 234.293C273.415 197.872 310.077 150.765 347.864 147.984L353.723 147.33C358.648 147.008 366.192 146.753 371.11 147.372L379.757 148.636C381.813 148.985 384.265 149.71 386.323 149.459L386.555 149.424C372.524 139.884 353.588 137.946 337.25 141.06C283.724 151.261 253.469 211.425 279.826 259.027C281.607 262.243 283.469 265.415 286.134 267.996ZM135.609 78.9219C144.535 45.0265 164.55 55.6206 191.268 52.9048L191.75 52.8535C193.754 52.6498 196.718 52.3169 198.375 51.173C202.704 48.1842 204.57 35.8485 213.091 29.5057C219.996 24.3659 233.225 24.6189 238.704 31.9954C243.589 38.5714 241.205 47.6512 250.577 50.5332C256.232 52.2723 264.952 52.8661 271.125 53.0369L293.673 53.1395C296.849 53.2435 300.111 53.9821 303.284 54.3345C296.59 45.98 283.281 45.6144 273.357 45.5788L259.126 45.5731C247.344 45.5677 249.088 45.8103 244.648 35.6444C234.792 13.0773 207.091 13.6104 197.898 38.3021C195.878 43.7269 194.968 45.5985 189.165 45.5972L182.134 45.5788C167.298 45.5377 148.208 43.3908 137.849 56.6033C132.549 63.3639 131.362 70.9718 128.54 78.7748C130.806 78.8917 133.366 79.2384 135.609 78.9219ZM337.652 245.287C328.821 236.934 335.961 233.013 332.399 225.801C330.095 221.137 320.273 217.021 321.879 211.031C324.293 202.027 346.463 212.316 354.194 178.428C353.879 175.497 353.455 172.755 352.735 169.891C343.757 186.504 344.017 201.019 321.447 203.295L315.08 203.675C314.083 203.731 312.679 203.723 311.761 204.133C318.621 211.066 328.395 220.903 328.259 231.469C328.171 238.346 324.595 244.792 324.667 251.755C329.296 250.156 333.199 247.266 337.652 245.287ZM333.096 472.247L333.022 364.423L328.296 364.25L328.192 452.16C328.188 458.924 327.136 465.961 332.19 471.375L333.096 472.247ZM363.379 344.74L325.283 344.794C321.715 344.818 317.342 344.327 318.667 349.375C319.952 350.727 323.382 350.576 325.22 350.627L336.437 350.719L377.25 350.788C378.683 350.803 380.24 351.026 381.649 350.838L381.31 344.618L363.379 344.74ZM389.874 233.925C391.448 232.838 392.871 231.467 394.314 230.208L406.816 218.24C420.567 205.117 420.009 213.227 426.412 209.493L426.761 209.279C422.222 207.748 412.608 205.894 407.473 205.542L407.333 205.806C402.986 213.851 395.217 219.381 391.465 227.984C390.613 229.938 390.54 231.952 389.874 233.925ZM346.785 319.524L346.709 330.782L355.694 330.505L356.462 319.446L346.785 319.524Z"/>
	<path fill="#16B3AF" d="M354.194 178.428C355.723 181.281 357.061 184.481 358.256 187.5C363.555 200.885 363.935 201.331 380.057 203.378L387.522 204.4C388.595 204.569 389.85 204.661 390.847 205.1L383.328 213.837C370.482 228.758 372.935 234.03 378.397 252.279C362.727 245.46 354.901 238.727 337.652 245.287C328.821 236.934 335.961 233.013 332.399 225.801C330.095 221.137 320.273 217.021 321.879 211.031C324.293 202.027 346.463 212.316 354.194 178.428Z"/>
	<path fill="#16B3AF" d="M333.071 364.423L371.075 364.49L371.06 432.779C370.888 436.791 369.779 440.622 369.558 444.632C369.218 450.811 370.185 457.251 368.838 463.334C366.423 474.246 353.839 480.935 343.225 478.345L342.792 478.244C338.954 477.319 335.679 475.192 333.082 472.247L333.071 364.423Z"/>
	<path fill="#FDE887" d="M286.134 267.996C286.167 263.904 283.792 259.162 282.705 255.22L279.675 242.5C279.046 239.804 278.237 237.039 277.899 234.293C273.415 197.872 310.077 150.765 347.864 147.984L353.723 147.33C358.648 147.008 366.192 146.753 371.11 147.372L379.757 148.636C381.813 148.985 384.265 149.71 386.323 149.459L386.555 149.424C400.161 155.272 419.613 172.283 424.913 185.523C426.24 188.84 427.816 192.777 422.472 192.512C417.301 192.256 411.898 191.171 406.75 190.497C399.33 189.525 385.135 188.916 378.661 185.527C369.449 180.705 360.948 146.234 349.762 149.686C337.683 153.414 336.744 182.756 323.013 187.818C315.911 190.436 295.465 190.694 291.935 197.937C287.423 207.197 308.382 221.912 313.62 230.12C315.728 233.424 308.813 250.881 307.314 254.659C303.66 259.754 294.961 270.841 290.63 275.051L290.485 274.875C288.666 273.059 287.083 270.394 286.134 267.996Z"/>
	<path fill="#16B3AF" d="M135.609 78.7957C144.535 45.0265 164.55 55.6206 191.268 52.9048L191.75 52.8535C193.754 52.6498 196.718 52.3169 198.375 51.173C202.704 48.1842 204.57 35.8485 213.091 29.5057C219.996 24.3659 233.225 24.6189 238.704 31.9954C243.589 38.5714 241.205 47.6512 250.577 50.5332C256.232 52.2723 264.952 52.8661 271.125 53.0369L293.673 53.1395C296.849 53.2435 300.111 53.9821 303.284 54.3345C307.773 59.465 310.953 65.8201 312.552 72.4466C313.013 74.356 313.096 77.0124 313.864 78.7432L135.609 78.7957Z"/>
	<path fill="#16B3AF" d="M426.761 209.279L426.984 209.143C430.24 207.515 432.413 209.686 432.833 212.75L432.891 213.15C433.234 215.747 433.114 218.482 433.096 221.098C432.826 260.352 402.586 301.716 362.25 306.599C341.164 309.151 318.282 303.235 301.598 289.982C296.641 286.044 291.707 281.928 290.275 275.5L290.63 275.051C294.961 270.841 303.66 259.754 307.314 254.659L307.441 254.869C309.016 257.641 308.276 261.905 309.056 264.987C309.929 268.43 315.425 269.362 318.34 270.476C334.94 264.174 344.144 254.047 362.622 261.664C373.16 266.008 390.647 278.06 394.763 260.607C394.537 259.175 394.895 257.669 394.633 256.245C393.876 252.126 388.639 236.938 389.874 233.925C391.448 232.838 392.871 231.467 394.314 230.208L406.816 218.24C420.567 205.117 420.009 213.227 426.412 209.493L426.761 209.279ZM394.763 260.607C390.647 278.06 373.16 266.008 362.622 261.664C344.144 254.047 334.94 264.174 318.34 270.476L315.352 272.865C317.428 274.601 321.203 275.24 323.794 274.863L324.25 274.792C334.029 273.344 341.404 263.636 351.144 263.264C363.821 262.78 388.662 286.758 395.245 264.133L395.339 263.799C395.766 262.351 396.709 254.68 394.763 260.607Z"/>
</svg>
