<?xml version="1.0" encoding="utf-8" ?>
<svg xmlns="http://www.w3.org/2000/svg" xmlns:xlink="http://www.w3.org/1999/xlink" width="512" height="512">
	<path fill="#023047" d="M448.143 121.839C463.035 119.399 477.703 131.474 481.051 145.5C481.831 148.767 481.57 152.732 481.575 156.11L481.538 430.524C481.484 432.774 481.358 435.318 480.621 437.46L480.518 437.75C479.716 440.087 478.332 442.054 477.308 444.281L462.281 478.75C460.393 483.123 458.16 491.493 454.08 494.232C452.487 494.654 451.15 494.867 449.496 494.571L449.125 494.502C443.154 493.526 439.251 479.264 437.262 474.36L425.017 445.625C420.301 435.514 420.801 434.652 420.769 423.688L420.745 155.423C420.747 153.298 420.626 151.103 420.805 148.989C422.05 134.342 434.363 124.095 448.143 121.839Z"/>
	<path fill="#FFFFCB" d="M448.847 463.798L439.939 444.143C439.585 443.079 438.997 442.226 438.391 441.289L442.779 441.423C447.023 442.608 448.715 458.862 449.648 462.625C449.464 463.117 449.194 463.41 448.847 463.798Z"/>
	<path fill="#FFE233" d="M442.779 441.27L461.919 441.662C461.131 442.829 460.986 444.336 460.41 445.631C457.126 453.002 452.67 460.641 450.884 468.53L448.847 463.798C449.194 463.41 449.464 463.117 449.648 462.625C448.715 458.862 447.023 442.608 442.779 441.27Z"/>
	<path fill="white" d="M442.738 170.773L436.429 171.093L436.297 156.86C436.307 152.822 436.084 148.909 437.757 145.119C442.222 135.005 456.227 133.388 461.743 143.246L461.361 143.204C460.183 143.043 459.017 142.29 457.852 141.974C451.863 140.35 444.552 143.86 442.965 150L442.883 150.308C442.369 152.386 442.665 155.053 442.672 157.201L442.738 170.773Z"/>
	<path fill="#FF3452" d="M442.786 170.71L442.672 157.201C442.665 155.053 442.369 152.386 442.883 150.308L442.965 150C444.552 143.86 451.863 140.35 457.852 141.974C459.017 142.29 460.183 143.043 461.361 143.204L461.743 143.246C463.531 145.534 462.744 151.833 462.75 154.573L462.737 170.639L442.786 170.71Z"/>
	<path fill="white" d="M441.791 426.362L436.414 426.031L436.276 185.713L463.917 185.693L464.006 190.579L450.076 191.464C447.701 191.462 445.174 191.617 442.823 191.319L442.396 419.09C442.295 421.372 442.438 424.18 441.791 426.362Z"/>
	<path fill="#16B3AF" d="M464.091 191.157L463.075 427.681C457.737 426.594 445.09 428.435 441.791 426.377C442.438 424.18 442.295 421.372 442.396 419.09L442.823 191.319C445.174 191.617 447.701 191.462 450.076 191.464L464.091 191.157Z"/>
	<path fill="#023047" d="M203.9 5.63257L206.355 5.53227C225.331 4.97458 244.516 16.089 249.126 35.3728C250.085 39.3815 250.318 43.4379 250.419 47.5405L293.722 47.3919C300.519 47.4008 307.309 47.5808 310.951 54.5302L311.125 54.8676C313.039 58.5105 312.741 62.2582 312.736 66.2378L312.71 76.5124L374.707 76.5056C381.017 76.5106 387.258 77.0857 390.42 84.057L390.586 84.435C391.191 85.7938 391.396 86.8887 391.448 88.3608L391.553 490C391.577 508.376 380.367 503.977 366.35 503.984L216.378 503.998L41.875 503.905C35.3213 503.689 30.5027 499.508 30.422 492.929L30.4667 104.445C30.4702 98.8533 30.2347 93.1319 30.633 87.555C31.3004 78.2115 36.6015 76.5029 44.1306 76.4998L100.444 76.5055C100.137 75.0429 100.314 73.2282 100.291 71.7239L100.058 64.4996C99.7757 51.836 107.215 47.345 118.375 47.3503L165.722 47.3911C165.594 25.0752 181.302 7.19028 203.9 5.63257ZM115.976 118.267C117.535 118.276 119.267 117.657 120.778 117.275L120.865 114.743L121.699 68.1174C122.08 67.551 123.097 67.7606 123.776 67.7578L175.477 67.7174C188.104 67.694 185.763 56.7931 186.694 48.125C189.439 22.5823 218.818 18.6496 232.159 39.1221C232.667 39.9016 233.121 41.0618 233.947 41.4831C234.488 21.5095 202.842 13.909 188.71 27.3782C180.883 34.8382 180.436 44.5719 180.336 54.5672C180.241 64.0305 175.236 62.5746 168.091 62.5877L115.668 62.5119L115.7 113.09C115.702 114.67 115.45 116.773 115.976 118.267Z"/>
	<path fill="#D17325" d="M60.9655 482.785C62.291 483.61 63.344 485.024 64.3105 486.237C63.1669 485.949 61.0946 485.148 59.9772 485.258C60.6639 484.438 60.8212 483.835 60.9655 482.785Z"/>
	<path fill="#DE9360" d="M58.4925 484.229C58.8388 483.46 58.7977 482.475 58.8396 481.64L59.3552 481.713L61.1917 481.941L60.9655 482.785C60.8212 483.835 60.6639 484.438 59.9772 485.258C59.4068 484.998 58.9718 484.623 58.4925 484.229Z"/>
	<path fill="#357AA0" d="M39.3873 475.849L40.544 475.664L40.7628 485.142C40.7551 487.069 41.1897 489.289 39.9466 490.914L39.6119 490.75C38.9738 485.978 39.4051 480.682 39.3873 475.849Z"/>
	<path fill="white" d="M236.473 62.9551L296.735 62.5134L296.744 68.7247C293.877 68.3466 291.004 68.4438 288.161 68.4393L240.81 68.6259C239.642 68.1282 236.158 64.4242 236.473 62.9551Z"/>
	<path fill="#048D8E" d="M297.044 111.398C297.613 114.48 297.573 117.706 297.594 120.833C293.452 120.516 289.231 120.655 285.076 120.644L252.375 120.052L133.625 119.96C130.105 119.868 117.459 119.643 116.148 118.688L115.976 118.396C117.535 118.276 119.267 117.657 120.778 117.275L120.762 114.743C121.984 114.253 123.191 114.23 124.462 113.982L126.375 113.687C132.462 112.983 138.773 113.216 144.897 113.209L286.572 113.272C289.972 113.279 293.618 113.672 296.98 113.341L297.044 111.398Z"/>
	<path fill="#16B3AF" d="M120.762 114.743L121.699 68.1174C122.08 67.551 123.097 67.7606 123.776 67.7578L175.477 67.7174C188.104 67.694 185.763 56.7931 186.694 48.125C189.439 22.5823 218.818 18.6496 232.159 39.1221C232.667 39.9016 233.121 41.0618 233.947 41.4831L233.497 52.0612C233.477 54.0645 233.361 56.1469 233.713 58.125L233.763 58.4223C234.148 60.5756 236.475 62.8665 236.473 62.9551C236.158 64.4242 239.642 68.1282 240.81 68.6259L288.161 68.4393C291.004 68.4438 293.877 68.3466 296.706 68.6528L296.77 107.013C296.772 108.439 296.918 109.997 296.744 111.398L296.98 113.341C293.618 113.672 289.972 113.279 286.572 113.272L144.897 113.209C138.773 113.216 132.462 112.983 126.375 113.687L124.462 113.982C123.191 114.23 121.984 114.253 120.762 114.743Z"/>
	<path fill="white" d="M58.4925 484.229L51.7443 484.234L52.8841 91.5321C53.611 91.0152 61.6648 91.2931 63.0372 91.2921L100.025 91.3589C101.041 92.3105 99.1925 123.252 101.282 128.642C102.686 132.262 107.27 135.024 111.107 135.19L302.082 135.295C303.93 135.305 306.297 135.586 308.029 134.895L308.375 134.745C310.116 134.006 311.339 132.958 312.372 131.398L312.625 131.011C315.256 127.071 313.919 117.369 313.909 112.777C313.894 105.654 314.134 98.4113 313.652 91.3062L371.256 91.3259L371.293 476.416L371.649 482.878L105.615 482.039L61.1917 482.028L59.3552 481.713L58.8396 481.64C58.7977 482.475 58.8388 483.46 58.4925 484.229Z"/>
	<path fill="#DFBB9F" d="M59.3552 481.713L60.1181 481.268C60.7436 479.404 59.4835 479.511 58.9832 478.125L122.878 479.442L117.698 479.892C118.606 479.913 119.779 479.798 120.627 480.099L120.419 480.142C118.413 480.65 117.234 481.797 115.086 481.431C113.73 481.199 106.838 481.388 105.615 481.982L61.1917 482.028L59.3552 481.713Z"/>
	<path fill="#BBA38D" d="M371.542 476.416L371.649 482.878L105.615 482.039C106.838 481.388 113.73 481.199 115.086 481.431C117.234 481.797 118.413 480.65 120.419 480.142L120.627 480.099C119.779 479.798 118.606 479.913 117.698 479.892L122.878 479.785L371.338 479.513C371.701 478.907 371.523 477.18 371.542 476.416Z"/>
	<path fill="#023047" d="M146.216 291.785L147.21 291.772C151.98 291.984 155.114 297.054 154.675 301.475C153.883 303.008 152.45 304.226 151.218 305.416L144.862 311.365C137.417 318.316 129.912 327.163 120.456 331.411C115.503 328.606 111.117 323.953 107.078 319.974L102.699 315.483C100.736 313.376 98.0748 310.981 98.2537 307.875C98.5049 303.514 103.486 300.947 107.403 301.286C112.74 301.748 118.205 309.042 121.395 312.878C126.907 308.431 141.25 292.883 146.216 291.785Z"/>
	<path fill="#023047" d="M144.326 174.798C151.318 173.965 158.759 180.251 151.88 187.439C147.842 191.66 143.144 195.449 138.827 199.401C133.495 204.282 126.903 212.075 120.178 214.823C115.699 211.803 111.818 207.642 107.975 203.873C104.137 200.192 93.8757 192.861 99.6372 187.008C105.586 180.966 111.337 184.219 115.924 189.449L121.509 195.535L133.117 184.701C136.508 181.398 139.976 176.748 144.326 174.798Z"/>
	<path fill="#023047" d="M145.285 351.307L145.667 351.287C151.884 350.991 154.8 355.536 154.811 361.243C153.774 363.167 151.437 364.928 149.828 366.419L140.475 375.123C135.474 379.914 128.818 388.535 122.208 390.878C116.371 389.484 111.222 382.904 107.065 378.803L100.41 372.482C93.9129 365.085 103.795 352.871 114.012 363.345C116.783 366.185 119.347 369.267 121.794 372.388C128.167 367.483 139.591 353.662 145.285 351.307Z"/>
	<path fill="#023047" d="M146.919 233.06C152.38 233.444 158.445 239.284 155.243 243.565C153.106 246.422 149.995 248.894 147.457 251.431C142.796 256.088 128.26 272.897 121.625 273.437C118.353 273.703 109.794 264.737 107.119 262.195C104.363 259.511 100.727 256.613 98.6852 253.374C95.4485 248.239 103.055 243.005 107.652 243.201C111.225 243.353 114.147 247.003 116.401 249.444L121.508 254.99C127.048 250.54 141.344 233.911 146.919 233.06Z"/>
	<path fill="#023047" d="M190.288 362.3C192.682 362.141 195.168 362.275 197.573 362.276L302.792 362.295C310.791 362.288 319.005 361.897 326.985 362.319C335.928 362.792 338.405 375.686 327.317 377.114L189.681 377.253C181.468 377.098 179.706 364.415 190.288 362.3Z"/>
	<path fill="#023047" d="M193.312 300.115L316.805 300.49C320.205 300.477 323.75 300.068 327.128 300.283C335.788 300.836 339.204 315.223 325.139 315.577L204.114 315.502C199.228 315.509 194.01 315.875 189.161 315.479C182.529 314.937 178.988 300.679 193.312 300.115Z"/>
	<path fill="#023047" d="M190.985 237.808L324.24 238.035C325.76 238.036 327.507 237.951 328.974 238.389L329.25 238.478C336.804 240.824 336.721 252.975 326.923 253.291L190.947 253.138C190.126 253.118 189.199 253.112 188.476 252.684L188.25 252.542C180.631 248.006 183.224 239.408 190.985 237.808Z"/>
	<path fill="#023047" d="M323.519 176.258C337.407 175.35 336.103 190.709 328.79 191.376C324.102 191.804 319.076 191.467 314.353 191.468L194.293 191.459C179.204 191.704 181.729 176.986 189.583 176.29C193.865 175.911 198.485 176.282 202.81 176.285L323.519 176.258Z"/>
</svg>
