<?xml version="1.0" encoding="utf-8" ?>
<svg xmlns="http://www.w3.org/2000/svg" xmlns:xlink="http://www.w3.org/1999/xlink" width="512" height="512">
	<path fill="#023047" d="M405.756 119.313L457.819 119.26C464.102 119.263 472.239 119.385 470.339 129.173L470.166 130.052C469.497 132.571 467.01 133.913 464.692 134.514C461.119 134.898 457.408 134.715 453.817 134.718L413.267 134.778C408.406 134.848 403.648 136.74 401.043 131.234C398.823 126.544 401.144 121.355 405.756 119.313Z"/>
	<path fill="#023047" d="M423.319 151.468L461.185 151.487C463.786 151.493 465.715 151.118 467.707 152.99L468.208 153.627C469.734 155.636 470.745 158.498 470.341 161.05L470.283 161.375C469.694 164.925 466.885 166.624 463.469 166.757L389.729 166.822C386.493 166.822 382.959 167.108 379.75 166.76C372.536 165.98 372.907 152.722 380.625 151.649C385.006 151.039 390.016 151.477 394.466 151.473L423.319 151.468Z"/>
	<path fill="#023047" d="M344.138 183.597L441.218 183.652C444.085 183.65 465.094 183.198 466.438 183.905L466.765 184.138C472.296 187.825 472.804 197.441 464.062 198.726C460.408 198.63 456.352 198.979 452.651 198.98L346.357 199.023C332.906 199.011 334.921 184.693 344.138 183.597Z"/>
	<path fill="#023047" d="M327.67 215.601L449.138 215.688C454.353 215.683 459.675 215.428 464.879 215.694C470.768 215.994 474.593 229.241 464.189 231.099L326.727 231.157C323.363 230.729 320.479 226.106 320.946 222.91L320.994 222.625C321.581 218.961 323.968 216.22 327.67 215.601Z"/>
	<path fill="#023047" d="M304.667 247.354C307.807 247.194 311.047 247.383 314.2 247.382L458.598 247.328C461.018 247.329 463.56 247.167 465.962 247.387C469.858 247.745 475.856 261.703 462.792 262.604L308.016 262.831C304.402 262.839 299.568 263.119 297.577 259.354L297.426 259.056C294.442 253.331 298.946 247.825 304.667 247.354Z"/>
	<path fill="#023047" d="M438.225 311.505L455.94 311.467C459.276 311.453 462.983 311.133 466.279 311.561C471.637 312.257 472.77 326.401 464.125 326.933C457.98 327.311 451.607 326.975 445.441 326.965L303.625 326.958L281.179 326.972C270.133 326.967 267.812 316.885 275.373 312.372L275.75 312.155C276.536 311.696 277.117 311.57 278.03 311.528L438.225 311.505Z"/>
	<path fill="#023047" d="M424.771 279.25L461.92 279.229C463.248 279.234 464.802 279.079 466.089 279.355L466.375 279.427C468.537 279.961 469.867 283.168 470.252 285.129L470.555 287C471.282 297.529 455.995 294.757 449.62 294.762L316.375 294.759L281.147 294.756C266.56 294.713 269.146 280.003 277.431 279.276C282.268 278.852 287.532 279.237 292.42 279.24L424.771 279.25Z"/>
	<path fill="#023047" d="M83.8327 2.12546L139.75 2.04489C140.761 3.1297 141.436 5.88724 141.876 7.36958C139.068 17.591 136.06 16.288 127.131 16.2976L101.403 16.3036C92.6084 16.3029 81.0687 14.1276 80.7714 26.6607L80.757 160.529C80.7588 162.66 80.5366 165.218 81.1664 167.267L81.3276 167.875C81.9606 170.177 84.0986 172.074 86.1069 173.237L86.5 173.462C88.8839 174.883 90.6095 174.633 93.3224 174.629L132.117 174.585C139.395 174.581 149.308 172.669 149.14 182.317L149.037 246.6C149.388 246.198 149.616 245.808 150.109 245.548C153.207 243.909 156.291 240.184 158.875 237.74L187.373 210.235L188.181 209.625C192.756 206.16 198.559 207.224 200.951 212.734L201.06 213C203.966 219.92 190.542 228.719 186.284 232.789L151.26 266.563C147.065 270.436 141.404 274.674 136.345 268.914C132.369 264.387 133.252 258.307 133.246 252.763L133.39 190.251C128.841 189.82 124.183 190.017 119.614 190.021L97.5275 190.058C93.6788 190.075 89.0516 190.592 85.3145 189.827C75.7505 187.868 66.4486 178.554 65.3011 168.627C64.9748 165.804 65.2108 162.721 65.2137 159.875L65.2264 28.9723C65.216 17.3585 70.3475 2.79082 83.8327 2.12546Z"/>
	<path fill="#023047" d="M210.343 27.6405L212.796 27.5631C229.104 27.3774 244.579 32.9668 256.322 44.499C258.215 43.3041 259.889 40.9006 261.742 39.4654C287.99 19.1384 327.256 25.4807 347.176 51.57L350.744 56.8496C358.048 70.2059 360.991 80.557 360.742 96.213C360.451 114.466 349.327 129.004 337.387 141.644L287.263 192.086L270.307 209.191C266.958 212.778 263.729 217.147 259.966 220.262C252.176 226.711 244.669 215.214 239.873 210.064L173.749 141.976C168.828 136.694 163.954 131.424 160.206 125.212C135.971 85.0422 162.559 29.736 210.343 27.6405ZM181.101 126.971C180.66 125.284 179.54 123.619 178.856 121.993C167.062 93.9761 177.706 59.3577 208.637 51.4559C222.678 47.8687 238.955 50.4198 249.085 61.4306C252.639 65.2935 259.673 77.9519 266.454 70.0739L271.289 64.0815C285.543 46.4401 311.274 47.2657 329.499 57.7907C331.057 58.8759 333.708 61.3127 335.519 61.4421C334.289 59.7716 332.743 58.3365 331.279 56.8729C311.454 38.3354 283.756 37.4472 265.057 57.9739C262.372 60.9213 259.603 66.4509 254.898 64.6271C250.591 62.9576 247.203 57.6373 243.865 54.46C203.586 16.1132 136.227 78.2059 181.101 126.971Z"/>
	<path fill="#FD585C" d="M181.101 126.971C180.66 125.284 179.54 123.619 178.856 121.993C167.062 93.9761 177.706 59.3577 208.637 51.4559C222.678 47.8687 238.955 50.4198 249.085 61.4306C252.639 65.2935 259.673 77.9519 266.454 70.0739L271.289 64.0815C285.543 46.4401 311.274 47.2657 329.499 57.7907C331.057 58.8759 333.708 61.3127 335.519 61.4421C342.788 69.0865 345.795 81.3257 345.53 91.6205C345.107 108.097 336.526 119.959 325.798 131.547L262.731 195.327C260.242 197.893 257.579 200.563 255.652 203.584L187.004 133.969C185.748 132.643 181.555 128.694 181.101 126.971Z"/>
	<path fill="#023047" d="M494.913 106.725L494.205 96.4242C489.057 95.5366 484.141 95.5344 478.944 95.529L402.643 95.4763C399.999 95.4713 395.603 96.2954 393.514 94.311L393.211 94.0275C388.415 89.44 389.892 78.81 397.024 79.9865C399.899 80.4609 403.09 80.2601 406.005 80.2628L485.637 80.2606C495.278 80.2597 504.949 81.7308 509.241 91.875L509.411 92.2686C509.794 93.2059 509.915 94.0847 509.96 95.0822L509.987 390.512C509.963 391.855 509.813 392.901 509.251 394.131L509.064 394.523C502.252 409.32 489.935 406.463 476.5 406.476L308.257 406.499C307.011 406.499 305.649 406.383 304.42 406.594L304.672 406.883C305.505 407.908 305.891 410.35 306.323 411.662L319.871 457.443C320.243 458.737 320.379 460.098 320.832 461.359L354.533 461.274C359.486 461.283 365.075 463.094 365.069 469.18C365.065 473.211 365.38 504.45 364.741 505.467C361.304 510.934 356.723 509.971 351.152 509.974L154.125 509.964C147.017 509.893 146.468 503.589 146.489 497.964L146.505 474.572C146.542 459.592 150.211 461.276 162.416 461.273L190.138 461.192C193.29 461.071 193.709 454.159 194.573 450.965L207.627 406.65C201.607 406.272 195.477 406.498 189.444 406.498L23.1389 406.562C16.742 406.601 11.3304 405.941 6.74392 400.785C0.523641 393.793 2.03858 388.588 2.03437 379.866L2.03244 116.02C2.03411 106.368 0.00621199 97.0884 5.625 88.7071L5.839 88.3776C10.3818 81.5211 17.2382 80.2698 24.7723 80.2543L34.823 80.2518C37.4346 80.2571 41.6772 79.6833 43.875 81.015L44.1922 81.1978C51.1591 85.3047 48.0456 94.0843 41.25 95.992L40.9397 96.0814C34.4872 97.7728 27.0439 93.8602 20.25 96.1942L19.9665 96.2854C17.4007 97.1396 17.2947 99.9386 17.2698 102.25L17.2979 336.713C17.3049 339.172 17.0839 341.84 17.4099 344.264L495.099 343.949L494.997 301.333L494.913 106.725ZM266.543 361.206L224.491 361.199L17.601 361.206C17.039 362.518 17.1293 387.023 17.6879 388.729L25.4297 388.87L25.4101 364.031L233.565 364.559L241.77 365.272C236.508 366.904 236.549 371.453 236.441 376.872C236.32 382.912 240.173 383.221 245.722 382.377L245.625 387.027C246.379 387.267 247.11 387.256 247.892 387.225L274.531 387.516C273.87 384.965 275.694 382.684 276.279 380.241L276.366 379.852C280.289 362.927 266.045 364.074 292.382 364.002L485.672 363.979C488.493 363.977 491.402 363.788 494.191 364.147L494.174 360.926L266.543 361.206ZM165.598 493.198L168.614 493.055C169.364 491.591 168.615 485.512 169.049 483.266L178.862 483.333C182.774 483.544 186.473 483.958 190.429 483.963L329.449 484.354C335.825 484.349 342.346 484.644 348.691 483.969L349.212 477.844L161.921 477.261L161.788 493.233L165.598 493.198ZM215.913 460.452C215.823 459.858 216.343 458.381 216.498 457.75L225.144 423.954C226.027 420.194 226.638 416.127 227.859 412.477C228.945 409.226 231.355 409.941 234.395 409.931L281.309 409.864C284.163 409.86 287.656 409.295 290.366 410.486C290.218 409.625 290.125 407.87 289.562 407.28L223.018 406.8C222.473 408.433 222.288 410.114 221.89 411.787L209.85 457.18C209.56 458.278 209.426 459.36 209.015 460.428L215.913 460.452Z"/>
	<path fill="#16B3AF" d="M349.191 478.16C350.335 479.487 349.803 480.53 349.78 482.162L349.684 493.629C348.617 493.89 347.325 493.739 346.226 493.734L165.147 493.242L168.614 493.055C169.364 491.591 168.615 485.512 169.049 483.266L178.862 483.333C182.774 483.544 186.473 483.958 190.429 483.963L329.449 484.354C335.825 484.349 342.346 484.644 348.691 483.969L349.191 478.16Z"/>
	<path fill="#023047" d="M261.808 365.204L262.75 365.09C265.741 364.953 268.562 365.143 271.46 365.878C273.902 369.339 274.857 373.004 274.092 377.22C272.958 383.463 266.418 382.2 261.49 382.212C256.296 382.225 250.891 381.903 245.722 382.259C240.173 383.221 236.32 382.912 236.441 376.872C236.549 371.453 236.508 366.904 241.77 365.272L261.808 365.204Z"/>
	<path fill="#16B3AF" d="M215.913 460.334C215.823 459.858 216.343 458.381 216.498 457.75L225.144 423.954C226.027 420.194 226.638 416.127 227.859 412.477C228.945 409.226 231.355 409.941 234.395 409.931L281.309 409.864C284.163 409.86 287.656 409.295 290.366 410.358L304.207 460.462L215.913 460.334Z"/>
	<path fill="#16B3AF" d="M25.4795 388.581L25.4101 364.031L233.565 364.54L241.77 365.27C236.508 366.904 236.549 371.453 236.441 376.872C236.32 382.912 240.173 383.221 245.722 382.377L245.625 387.027C246.379 387.267 247.11 387.256 247.892 387.273C237.319 388.991 226.718 388.515 216.037 388.507L25.4795 388.581Z"/>
	<path fill="#16B3AF" d="M274.531 387.603C273.87 384.965 275.694 382.684 276.279 380.241L276.366 379.852C280.289 362.927 266.045 364.074 292.382 364.002L485.672 363.979C488.493 363.977 491.402 363.788 494.191 364.257C494.22 367.602 494.74 387.027 493.266 388.522L281.661 388.138C279.531 388.049 276.475 388.282 274.531 387.603Z"/>
</svg>
