<svg width="512" height="512" viewBox="0 0 512 512" fill="none" xmlns="http://www.w3.org/2000/svg">
<rect x="177" y="114" width="269" height="266" fill="#16B4AE"/>
<path d="M253.197 19.613L254.222 19.5712C271.836 19.2534 289.197 21.4098 306.401 25.0484C331.145 30.2818 355.014 38.7026 377.25 50.794C395.072 60.4845 411.766 73.1221 426.302 87.2467C436.078 96.7474 445.317 106.759 453.486 117.691C482.833 156.963 498.938 204.57 499.582 253.571C500.197 300.304 483.853 348.696 456.806 386.586C451.3 394.3 445.248 401.954 438.621 408.734C432.788 414.702 426.89 420.584 420.54 426.008C375.656 464.339 318.249 485.309 259.313 486.051C230.156 486.052 201.522 482.31 173.875 472.691L160.807 467.525C152.93 464.322 145.125 461.024 137.63 456.986C129.284 452.489 121.307 447.332 113.5 441.964C102.893 434.673 92.7187 426.875 83.196 418.205C69.2587 405.516 58.5129 390.959 48.6979 374.975C44.6526 368.387 40.6824 361.786 37.1747 354.889C34.3583 349.35 32.0729 343.763 29.7102 338.026C20.3172 315.22 13.5469 291.262 12.5075 266.5C9.96838 206.003 30.9785 146.025 72.058 101.375C86.202 86.0014 102.347 72.7761 119.789 61.3141C147.727 42.9559 178.054 30.0665 211 24.0126C224.981 21.4435 239.017 20.23 253.197 19.613ZM194.291 125.33C189.719 126 185.853 127.231 182.986 131.125C181.739 132.819 180.741 135.027 180.541 137.142C180.342 139.232 180.497 141.454 180.5 143.555L180.505 155.033L180.491 195.473L179.668 239.443L179.49 254.85C179.492 257.546 179.33 260.335 179.731 263.001C185.743 267.188 192.813 269.509 198.517 274.151C193.009 279.289 187.355 284.323 182.955 290.486C179.423 295.433 176.578 300.844 173.549 306.102L159.453 330.563L147.896 349.808C145.691 353.429 143.368 357.006 141.388 360.756C140.321 362.778 138.291 366.635 138.384 368.918C138.46 370.802 140.351 373.067 141.842 374.062C144.893 376.098 148.529 376.487 152.091 376.718C160.32 377.249 168.847 376.82 177.103 376.822L230.896 376.652L401.375 376.498L423.81 376.504C428.521 376.516 433.767 377.185 438.368 376.081C440.03 375.682 441.676 374.606 442.839 373.39C445.073 371.055 445.827 368.153 445.738 365.002C445.67 362.579 444.808 360.088 443.824 357.898C440.093 349.596 434.802 342.034 430.242 334.18L414.456 306.537L402.7 288.857L411.492 284.898C417.84 282.314 425.717 279.949 428.152 272.745C429.684 268.215 429.498 263.072 429.556 258.352L429.867 242.797L431.93 217.336L432.056 208.317L432.526 174.005C432.665 161.829 433.466 149.746 432.386 137.572C432.11 134.473 431.628 131.371 430.187 128.575C429.746 127.719 428.942 126.764 427.979 126.513C426.226 126.057 424.226 125.887 422.416 125.821L402.128 125.789L362.973 125.682L252.039 125.358L208.605 125.155L199.216 125.168C197.713 125.171 195.758 124.989 194.291 125.33Z" fill="#16B4AE"/>
<path d="M157.91 127.208C159.377 126.867 161.332 127.049 162.835 127.046L172.224 127.032L215.658 127.236L326.592 127.56L365.747 127.667L386.035 127.699C387.845 127.765 389.845 127.934 391.598 128.391C392.561 128.642 393.365 129.596 393.806 130.452C395.247 133.248 395.729 136.35 396.005 139.45C397.085 151.624 396.284 163.706 396.145 175.883L395.675 210.194L395.549 219.214L393.486 244.674L393.175 260.23C393.117 264.95 393.303 270.093 391.771 274.622C389.336 281.827 381.459 284.192 375.111 286.776L366.319 290.734L378.075 308.414L393.861 336.058C398.421 343.912 403.712 351.474 407.443 359.775C408.427 361.966 409.289 364.456 409.357 366.879C409.446 370.03 408.692 372.932 406.458 375.268C405.295 376.484 403.649 377.56 401.987 377.958C397.386 379.062 392.14 378.393 387.429 378.382L364.994 378.375L194.515 378.529L140.722 378.7C132.466 378.697 123.939 379.126 115.71 378.595C112.148 378.364 108.512 377.976 105.461 375.94C103.97 374.944 102.079 372.679 102.003 370.796C101.91 368.512 103.94 364.656 105.007 362.633C106.987 358.883 109.31 355.306 111.515 351.685L123.072 332.44L137.168 307.98C140.197 302.721 143.042 297.31 146.574 292.364C150.974 286.2 156.628 281.166 162.136 276.029C156.432 271.386 149.362 269.066 143.35 264.878C142.949 262.213 143.111 259.424 143.109 256.728L143.287 241.321L144.11 197.351L144.124 156.91L144.119 145.433C144.116 143.332 143.961 141.11 144.16 139.02C144.36 136.904 145.358 134.697 146.605 133.003C149.472 129.108 153.338 127.878 157.91 127.208ZM213.732 166.896C211.477 167.12 209.182 167.857 207.018 168.519C197.14 171.54 187.865 176.98 181.244 185.022C175.196 192.367 171.668 202.184 172.689 211.748C173.83 222.439 182.36 231.494 190.458 237.784C197.542 243.286 205.612 247.518 213.824 251.071C216.698 252.49 220.076 254.072 223.161 254.977L234.062 259.528L266.453 273.706C269.505 274.898 271.974 274.08 274.888 272.928C275.813 272.702 276.664 272.39 277.549 272.042L295.298 266.242C298.062 265.622 300.788 264.502 303.494 263.638L329.535 254.53C344.936 248.662 364.129 238.919 371.171 223.039C374.829 214.791 374.379 206.118 371.133 197.854C367.981 189.828 362.649 182.987 356.047 177.507C354.284 176.044 352.257 174.386 350.146 173.47C348.666 172.331 346.858 171.508 345.165 170.731C340.321 168.508 335.675 167.273 330.397 166.638C318.155 165.217 305.197 168.818 295.534 176.474C287.115 183.145 281.562 192.964 275.919 201.94C271.012 188.452 260.506 176.317 247.426 170.212C244.655 168.918 241.664 167.808 238.672 167.154C236.828 166.447 234.564 166.158 232.608 165.897C226.521 165.088 219.682 165.256 213.732 166.896Z" fill="#023148"/>
<path d="M216.647 361.499L216.34 361.405C211.752 360.039 206.716 360.827 201.996 360.87L187.5 360.891L124.276 360.886L159.268 295.373L352.338 295.547C356.001 306.082 361.281 315.778 366.299 325.699L379.194 351.098L384.473 360.375L317.727 360.892L295.285 360.886C290.02 360.879 284.593 360.426 279.407 361.466C278.047 362.3 276.358 362.417 274.808 362.574C270.565 363.004 266.625 362.638 262.387 362.55L236.601 362.456C234.654 362.524 232.465 362.406 230.556 362.763C229.44 362.972 228.254 362.882 227.119 362.94C223.832 363.108 219.471 363.431 216.647 361.499Z" fill="white"/>
<path d="M268.071 327.868C268.051 326.877 267.75 325.448 268.369 324.672L269.116 324.676C269.605 325.399 269.372 326.7 269.215 327.565L269.008 328.496C268.938 328.239 268.842 328.003 268.744 327.755L268.071 327.868Z" fill="#52E7F9"/>
<path d="M256.92 333.131C258.611 333.97 261.349 332.59 262.665 333.803C260.54 334.456 258.473 334.584 256.361 333.864C256.507 333.556 256.691 333.378 256.92 333.131Z" fill="#52E7F9"/>
<path d="M233.965 328.517L234.634 329.468C233.923 330.772 233.286 331.836 232.084 332.764C231.485 332.405 230.743 332.406 230.063 332.328C231.511 331.216 232.718 329.844 233.965 328.517Z" fill="#42F8FF"/>
<path d="M222.043 332.437C224.443 332.976 226.463 333.435 228.869 332.688L230.063 332.328C230.743 332.406 231.485 332.405 232.084 332.764C229.885 334.298 227.483 334.573 224.894 334.092C223.805 333.889 222.769 333.51 221.745 333.098L222.043 332.437Z" fill="#38F0E5"/>
<path d="M322.23 308.176C323.547 308.145 324.895 308.02 326.182 308.34L323.494 308.39L323.179 308.752C323.811 312.664 325.445 316.49 326.752 320.224L331.566 320.231C330.522 320.638 327.751 320.521 326.619 320.338C325.473 320.154 324.311 320.55 323.063 320.334C323.725 320.298 324.358 320.287 324.994 320.076L322.23 308.176Z" fill="#3FC8D0"/>
<path d="M285.375 330.971L285.52 330.78C285.934 330.22 286.329 329.616 286.505 328.934C286.808 327.76 286.222 325.564 287.494 325.059C288.329 326.019 288.37 327.942 288.795 329.16C289.168 330.227 289.768 331.202 290.388 332.14L289.821 332.658C289.074 332.096 288.141 331.19 287.244 330.94L286.207 331.716C285.939 331.401 285.704 331.215 285.375 330.971Z" fill="#52E7F9"/>
<path d="M225.234 316.955C225.54 316.463 225.846 316.059 226.24 315.635C226.707 317.202 227.797 318.523 229.226 319.328C231.249 320.466 233.872 320.927 236.109 320.247C237.928 319.694 239.047 318.183 239.858 316.545L239.953 316.337L240.472 316.501C239.635 318.295 238.784 320.457 236.81 321.256C234.642 322.134 231.296 321.637 229.278 320.629C227.676 319.829 226.231 318.442 225.234 316.955Z" fill="#52E7F9"/>
<path d="M215.328 322.529C214.65 321.816 213.622 321.562 212.744 321.155C211.387 320.525 210.161 319.855 209.057 318.834C211.994 319.701 215.156 321.744 218.377 320.978C223.007 319.878 224.91 314.736 227.018 311.034L226.604 314.378L226.24 315.635C225.846 316.059 225.54 316.463 225.234 316.955C223.348 318.878 221.506 320.87 218.744 321.398C217.778 321.584 216.648 321.705 215.763 322.137L215.548 322.535L215.328 322.529Z" fill="#42F8FF"/>
<path d="M316.143 331.312L317.438 331.837C314.306 333.904 310.719 335.026 306.926 334.299C306.169 334.154 305.437 333.674 304.795 333.269L305.354 332.135C308.275 333.427 313.197 332.226 316.143 331.312Z" fill="#52E7F9"/>
<path d="M290.388 332.14C292.414 333.076 295.1 333.478 297.24 332.722C300.266 331.655 301.328 329.424 302.586 326.712C303.386 328.604 304.132 330.465 305.354 332.135L304.795 333.269L302.752 331.402C301.12 332.292 300.144 333.542 298.224 334.112C295.39 334.955 292.293 334.097 289.821 332.658L290.388 332.14Z" fill="#3FC8D0"/>
<path d="M348.181 330.301C345.673 331.945 343.406 333.156 340.503 333.974C339.323 334.306 336.591 334.792 335.544 334.188C332.34 332.338 331.675 329.159 330.795 325.809C332.765 327.895 334.325 330.29 335.927 332.658C340.025 332.643 343.543 331.095 347.353 329.836L348.181 330.301Z" fill="#38F0E5"/>
<path d="M268.071 327.868L268.744 327.755C268.842 328.003 268.938 328.239 269.008 328.496C270.162 330.488 272.28 332.105 274.49 332.72C277.678 333.606 281.478 333.244 284.364 331.582L285.375 330.971C285.704 331.215 285.939 331.401 286.207 331.716C283.596 334.053 281.028 334.534 277.596 334.355C273.56 334.143 271.302 332.452 268.676 329.544C267.066 331.632 265.48 333.305 262.751 333.808L262.665 333.803C261.348 332.59 258.611 333.97 256.92 333.131C258.934 333.11 261.046 333.106 262.994 332.527C265.31 331.838 266.952 329.906 268.071 327.868Z" fill="#42F8FF"/>
<path d="M316.143 331.312L316.269 331.059C316.511 330.333 316.223 329.412 316.124 328.672C315.86 326.684 315.19 324.749 314.603 322.837C316.641 325.966 318.897 331.364 322.916 332.28C324.437 332.627 329.843 331.698 330.608 332.628C330.107 333.448 329.159 333.942 328.247 334.195C325.907 334.846 322.493 334.388 320.43 333.115C319.355 332.452 318.726 331.874 317.438 331.837L316.143 331.312Z" fill="#3FC8D0"/>
<path d="M215.328 322.529L215.548 322.535L215.761 322.945C217.575 326.51 218.304 330.24 222.043 332.437L221.744 333.098C220.022 331.993 218.696 330.553 217.293 329.085C216.68 330.122 216.08 331.237 215.26 332.127C213.953 333.549 212.032 334.268 210.119 334.322C207.49 334.397 204.693 333.621 202.78 331.752C202.236 331.221 201.494 330.55 201.494 329.791C202.415 330.634 203.358 331.468 204.478 332.04C206.364 333.002 209.268 332.965 211.26 332.29C213.14 331.654 214.459 330.267 215.316 328.503C215.589 327.941 216.23 326.749 216.287 326.159C216.364 325.363 215.688 323.51 215.414 322.757L215.328 322.529Z" fill="#3FC8D0"/>
<path d="M322.02 306.724L333.53 306.578C335.949 306.592 338.514 306.476 340.869 307.106L341.361 307.628C340.974 308.162 340.898 308.216 340.206 308.323C338.63 308.566 336.819 308.397 335.222 308.388L326.182 308.34C324.895 308.02 323.546 308.145 322.23 308.176L313.044 307.55L313.019 307.37L312.119 307.255L311.992 307.003C314.987 307.019 319.199 307.544 322.02 306.724Z" fill="#16B4AE"/>
<path d="M195.932 320.128C198.834 320.215 203.04 320.902 205.244 318.68C206.22 317.696 206.966 316.483 207.415 315.174C207.767 314.148 207.978 312.592 208.744 311.849C209.21 312.216 209.27 312.185 209.335 312.776C209.538 314.604 208.537 316.855 207.4 318.252C205.719 320.319 203.846 320.957 201.259 321.155L200.024 321.232C199.734 324.65 200.677 330.48 197.499 332.921C195.345 334.575 191.252 333.877 188.744 333.725L182.84 333.373L183.4 332.59C185.154 332.581 186.951 332.514 188.699 332.652C191.68 332.886 193.963 333.637 196.838 332.366C197.795 330.996 198.487 329.814 198.774 328.14C199.016 326.726 199.333 322.026 198.588 321.003C197.721 320.772 197.086 320.708 196.189 320.773L195.932 320.128Z" fill="#42F8FF"/>
<path d="M233.965 328.517L234.106 328.187C234.304 327.708 234.679 326.995 234.617 326.466C234.492 325.399 233.044 324.057 234.369 323.367C235.122 323.544 235.13 323.504 235.576 324.128C235.502 324.883 235.07 326.406 235.196 327.048C235.357 327.874 236.549 329.378 237.102 330.045C238.613 331.868 240.338 332.822 242.719 333.001C244.79 333.157 247.304 332.242 248.792 330.81C249.528 330.103 250.282 328.978 250.514 327.97C250.744 326.971 250.272 324.002 251.41 323.79C252.882 325.588 252.454 328.478 253.838 330.38C254.704 331.569 255.806 332.236 256.92 333.131C256.69 333.378 256.506 333.556 256.361 333.864C254.421 332.998 253.054 331.72 251.518 330.293L249.278 332.752C247.203 334.557 243.477 334.616 240.91 334.342C238.18 334.052 236.244 331.45 234.634 329.468L233.965 328.517Z" fill="#3FC8D0"/>
<path d="M239.953 316.337L240.092 315.929C240.773 313.9 240.435 312.986 240.198 310.939C241.09 311.638 241.947 312.33 242.65 313.226C245.278 316.58 246.595 320.666 251.804 319.994C253.838 319.732 255.866 319.022 257.064 317.252C258.442 315.216 258.558 312.454 259.475 310.206L259.488 313.793C259.448 315.203 259.774 316.086 260.744 317.14C262.589 319.147 265.364 320.558 268.104 320.656C271.688 320.786 275.286 318.38 278.226 316.567C277.828 315.212 277.26 313.546 277.494 312.133L277.862 311.961C280.286 314.122 280.86 321.613 285.038 321.345L285.304 321.326C286.054 321.35 286.769 321.317 287.488 321.546C286.628 321.774 283.516 322.69 282.827 322.452C281.838 322.108 279.804 319.271 279.024 318.401C278.91 318.274 278.852 318.035 278.682 318.02C278.444 317.998 277.446 318.523 277.204 318.629C274.074 319.994 270.214 322.158 266.671 321.262L266.369 321.178C263.722 320.456 261.528 318.96 259.273 317.446L258.696 317.929C255.935 320.218 253.349 321.449 249.655 321.016C245.9 320.576 243.97 317.805 241.827 315.069L240.472 316.501L239.953 316.337Z" fill="#16B4AE"/>
<path d="M348.92 330.344C349.305 330.299 349.74 330.02 350.094 329.853L354.382 339.072L292.463 339.047L219.652 339.17L178.649 339.167L167.262 339.175C164.592 339.198 161.902 339.364 159.244 339.047L158.874 338.628C159.334 338.336 159.092 338.376 159.522 338.434C162.175 338.788 165.004 338.641 167.686 338.655L182.886 338.668L231.194 338.664L304.325 338.846C320.363 338.848 336.429 339.213 352.426 337.874L348.92 330.344Z" fill="#38F0E5"/>
<path d="M285.305 321.326C287.535 321.024 289.945 320.804 291.854 319.51C294.255 317.883 294.773 314.684 295.285 312.032C295.963 315.695 296.72 318.389 298.951 321.401C301.588 321.436 304.527 321.616 306.768 319.943C309.495 317.908 306.529 313.858 306.845 311.252L307.245 311.045C307.411 311.186 307.647 311.271 307.745 311.466C307.955 311.886 308.015 312.942 308.095 313.432L308.956 320.004L323.063 320.334C324.311 320.55 325.473 320.154 326.619 320.338C327.751 320.521 330.522 320.638 331.566 320.231L342.922 319.87C342.049 317.564 340.26 313.84 340.671 311.378L341.074 311.192C343.141 313.328 344.03 317.482 345.3 320.194L350.094 329.853C349.74 330.02 349.305 330.299 348.92 330.344C348.64 330.174 348.497 330.263 348.181 330.301L347.353 329.836C347.844 329.54 347.897 329.519 348.131 329.003C347.23 326.35 345.717 323.618 344.371 321.156L297.878 322.564L294.613 319.138C292.373 320.121 290.225 321.123 287.79 321.502L287.488 321.546C286.769 321.317 286.055 321.35 285.305 321.326Z" fill="#52E7F9"/>
<path d="M196.189 320.773C197.086 320.708 197.721 320.772 198.588 321.003C199.333 322.026 199.016 326.726 198.774 328.14C198.487 329.814 197.795 330.996 196.838 332.366C193.963 333.637 191.68 332.886 188.699 332.652C186.951 332.514 185.154 332.581 183.4 332.59L179.556 332.547C181.432 329.278 184.202 322.431 188.024 321.38L188.361 321.292C190.856 320.61 193.612 320.942 196.189 320.773Z" fill="white"/>
<path d="M182.84 333.373L167.259 333.617C165.725 333.635 162.748 333.322 161.369 333.861C160.992 334.008 160.429 334.58 160.087 334.843L159.746 334.752L174.057 306.262C174.99 305.713 229.928 306.53 236.369 306.581L322.02 306.724C319.199 307.544 314.987 307.019 311.992 307.003L312.119 307.255L313.019 307.37L313.044 307.55L265.007 307.406L219.619 307.385L186.3 307.117L178.841 307.141C177.548 307.15 176.039 307.012 174.776 307.271L168.721 319.251L195.932 320.128L196.189 320.773C193.612 320.942 190.856 320.61 188.361 321.292L188.024 321.38C184.202 322.431 181.432 329.278 179.556 332.547L183.4 332.59L182.84 333.373Z" fill="#3FC8D0"/>
<path d="M168.553 320.371L185.483 321.159L177.986 331.765L177.527 332.252C175.706 332.731 173.734 332.566 171.865 332.568L162.31 332.549L168.553 320.371Z" fill="white"/>
<path d="M216.647 361.499L216.474 361.242C214.98 359.074 212.019 357.126 212.393 354.252C213.347 353.089 214.219 352.834 215.694 352.688C218.798 352.38 221.951 352.782 225.058 352.866L238.516 352.894L267.508 352.882L282.619 352.9C283.691 352.946 284.604 353.23 285.536 353.753L285.888 354.252C285.086 357.37 279.898 359.164 279.407 361.466C278.047 362.3 276.358 362.417 274.808 362.574C270.565 363.004 266.625 362.638 262.387 362.55L236.601 362.456C234.654 362.524 232.465 362.406 230.556 362.763C229.44 362.972 228.254 362.882 227.119 362.94C223.832 363.108 219.471 363.431 216.647 361.499Z" fill="#16B4AE"/>
<path d="M213.732 166.896C219.682 165.256 226.521 165.088 232.608 165.897C234.564 166.158 236.828 166.447 238.672 167.154C241.664 167.808 244.655 168.918 247.426 170.212C260.506 176.317 271.012 188.452 275.919 201.94C281.562 192.964 287.114 183.145 295.534 176.474C305.196 168.818 318.155 165.217 330.396 166.638C335.675 167.273 340.321 168.508 345.165 170.731C346.858 171.508 348.666 172.331 350.146 173.47C352.257 174.386 354.284 176.044 356.047 177.507C362.649 182.987 367.981 189.828 371.133 197.854C374.379 206.118 374.829 214.791 371.171 223.039C364.129 238.919 344.936 248.662 329.534 254.53L303.494 263.638C300.788 264.502 298.062 265.622 295.298 266.242L277.549 272.042C276.664 272.39 275.813 272.702 274.888 272.928C271.974 274.08 269.504 274.898 266.453 273.706L234.062 259.528L223.161 254.977C220.076 254.072 216.698 252.49 213.824 251.071C205.612 247.518 197.542 243.286 190.458 237.784C182.36 231.494 173.83 222.439 172.689 211.748C171.668 202.184 175.196 192.367 181.244 185.022C187.865 176.98 197.14 171.54 207.018 168.519C209.182 167.857 211.477 167.12 213.732 166.896ZM213.824 251.071C216.698 252.49 220.076 254.072 223.161 254.977L223.242 254.587C223.699 254.728 223.999 254.806 224.484 254.754C225.718 254.622 225.75 254.268 226.494 253.31C225.679 253.067 224.63 252.916 223.921 252.46C223.154 251.968 222.158 251.726 221.3 251.412L223.02 251.318H223.322L224.311 251.253L224.528 251.388C224.959 251.615 225.384 251.666 225.858 251.752L226.152 252.279L227.954 252.108L218.202 248.227L215.61 248.252C215.114 248.238 214.861 248.178 214.494 248.505L213.87 248.629L213.829 248.95L214.619 249.252L214.119 250.128C213.824 249.84 213.768 249.69 213.619 249.316L213.039 249.503C213.219 250.16 213.438 250.527 213.824 251.071ZM229.313 252.578C229.47 253.478 229.507 253.64 230.12 254.376L230.448 254.478C231.144 254.71 230.608 254.518 231.221 254.824C231.87 255.148 232.658 255.102 233.366 255.044L233.063 254.684C233.847 254.718 234.432 254.976 235.056 255.44L233.994 255.505L234.158 255.844L234.535 255.956C235.09 256.144 234.892 256.058 235.332 256.375C235.708 256.645 235.856 256.664 236.306 256.69C236.551 257.005 236.61 257.076 236.682 257.484C238.006 257.394 238.652 257.509 239.869 258.003L240.165 258.176C240.846 258.561 241.537 258.655 242.306 258.69C243.148 259.407 243.48 259.36 244.509 259.503L244.368 259.167C243.866 259.037 243.818 259.08 243.432 258.69L243.995 258.44L244.486 258.874C245.397 258.784 246.082 259.536 246.837 258.954L229.313 252.578ZM217.258 166.872L216.108 167.503L216.244 167.842C218.646 168.097 221.389 167.987 223.792 167.744C225.067 167.615 226.404 167.849 227.634 168.168C229.306 168.602 231.121 168.338 232.835 168.354C234.208 168.366 235.515 168.553 236.894 168.43L236.91 168.004C236.364 167.793 235.602 167.752 235.119 167.505C233.104 166.474 229.536 166.918 227.277 166.894C224.385 166.864 221.448 166.634 218.564 166.878C218.098 166.917 217.724 166.95 217.258 166.872ZM226.494 253.31C225.75 254.268 225.718 254.622 224.484 254.754C223.999 254.806 223.699 254.728 223.242 254.587L223.161 254.977L234.062 259.528C234.24 259.438 234.462 259.304 234.67 259.27C235.274 259.174 236.239 259.472 236.71 259.847C237.494 260.47 238.056 260.81 238.994 261.164C239.468 261.057 239.762 261.13 240.038 260.709C239.521 260.682 239.078 260.673 238.582 260.508L238.244 260.378C237.652 260.155 237.459 260.076 237.08 259.558L236.869 259.252L236.119 259.128C235.709 258.977 235.484 258.711 235.014 258.682L234.422 258.661C233.686 258.605 233.072 258.278 232.614 257.707C232.322 257.344 232.389 257.322 232.012 257.152L231.743 257.065L229.619 256.378L229.558 256.046C229.087 255.61 228.837 255.577 228.212 255.534L227.744 255.505C227.242 254.973 227.358 254.61 227.318 253.895C227.058 253.524 226.891 253.504 226.494 253.31ZM223.02 251.318L221.3 251.412C222.158 251.726 223.154 251.968 223.921 252.46C224.63 252.916 225.679 253.067 226.494 253.31C226.891 253.504 227.058 253.524 227.318 253.895C228.284 253.928 228.938 253.978 229.619 254.752C229.784 254.94 229.848 255.079 229.96 255.286C230.948 255.681 231.741 255.687 232.744 255.378L233.362 255.59L233.574 255.39L233.366 255.044C232.658 255.102 231.87 255.148 231.221 254.824C230.608 254.518 231.144 254.71 230.448 254.478L230.12 254.376C229.507 253.64 229.47 253.478 229.313 252.578L227.954 252.108L226.152 252.279L225.858 251.752C225.384 251.666 224.959 251.615 224.528 251.388L224.311 251.253L223.322 251.318H223.02Z" fill="url(#paint0_linear_24_2)"/>
<path d="M266.453 273.706C267.721 272.977 269.639 273.254 271.119 273.25C271.829 272.779 272.695 273.097 273.522 272.902L274.863 272.516L274.889 272.928C271.974 274.08 269.505 274.898 266.453 273.706Z" fill="white"/>
<path d="M223.02 251.318H223.322L224.311 251.253L224.528 251.388C224.959 251.615 225.384 251.666 225.858 251.752L226.152 252.279L227.954 252.108L229.313 252.578C229.47 253.478 229.507 253.64 230.12 254.376L230.448 254.478C231.144 254.71 230.608 254.518 231.221 254.824C231.87 255.148 232.658 255.102 233.366 255.044L233.574 255.39L233.362 255.59L232.744 255.378C231.741 255.687 230.948 255.681 229.96 255.286C229.848 255.079 229.784 254.94 229.619 254.752C228.938 253.978 228.284 253.928 227.318 253.895C227.058 253.524 226.891 253.504 226.494 253.31C225.679 253.067 224.63 252.916 223.921 252.46C223.154 251.968 222.158 251.726 221.3 251.412L223.02 251.318Z" fill="white" fill-opacity="0.819608"/>
<path d="M277.549 272.042L277.498 271.897L277.182 271.629L277.619 271.566L277.932 271.379L278.244 271.378C278.587 270.827 278.887 270.902 279.488 270.752C279.812 270.241 280.328 269.842 280.618 269.376L280.742 269.003C281.27 269.025 281.648 269.026 282.119 268.75C283.325 268.043 285.363 268.786 286.744 268.505L287.182 268.379L287.494 268.378L287.744 268.005C288.581 268.097 288.678 267.898 289.432 267.69C289.818 267.584 290.064 267.668 290.47 267.483L291.369 267.066L291.744 267.128C292.068 266.914 292.294 266.76 292.682 266.682C293.149 266.589 293.5 266.46 293.908 266.206L294.119 266.066C294.762 266.145 294.608 266.135 295.084 265.809L295.298 266.242L277.549 272.042Z" fill="white"/>
<path d="M226.494 253.31C226.891 253.504 227.058 253.524 227.318 253.895C227.358 254.61 227.242 254.973 227.744 255.505L228.212 255.534C228.837 255.577 229.087 255.61 229.558 256.046L229.619 256.378L231.743 257.065L232.012 257.152C232.389 257.322 232.322 257.344 232.614 257.707C233.072 258.278 233.686 258.605 234.422 258.661L235.014 258.682C235.484 258.711 235.709 258.977 236.119 259.128L236.869 259.252L237.08 259.558C237.459 260.076 237.652 260.155 238.244 260.378L238.582 260.508C239.078 260.673 239.521 260.682 240.038 260.709C239.762 261.13 239.468 261.057 238.994 261.164C238.056 260.81 237.494 260.47 236.71 259.847C236.239 259.472 235.274 259.174 234.67 259.27C234.462 259.304 234.24 259.438 234.062 259.528L223.161 254.977L223.242 254.587C223.699 254.728 223.999 254.806 224.484 254.754C225.718 254.622 225.75 254.268 226.494 253.31Z" fill="white" fill-opacity="0.733333"/>
<path d="M217.258 166.872C217.724 166.95 218.098 166.917 218.564 166.878C221.448 166.634 224.385 166.864 227.277 166.894C229.536 166.918 233.104 166.474 235.119 167.505C235.602 167.752 236.364 167.793 236.91 168.004L236.894 168.43C235.515 168.553 234.208 168.366 232.835 168.354C231.121 168.338 229.306 168.602 227.634 168.168C226.404 167.849 225.067 167.615 223.792 167.744C221.389 167.987 218.646 168.097 216.244 167.842L216.108 167.503L217.258 166.872Z" fill="white" fill-opacity="0.92549"/>
<path d="M229.313 252.578L246.837 258.954C246.082 259.536 245.397 258.784 244.486 258.874L243.995 258.44L243.432 258.69C243.818 259.08 243.866 259.037 244.368 259.167L244.509 259.503C243.48 259.36 243.148 259.407 242.306 258.69C241.537 258.655 240.846 258.561 240.165 258.176L239.869 258.003C238.652 257.509 238.006 257.394 236.682 257.484C236.61 257.076 236.551 257.005 236.306 256.69C235.856 256.664 235.708 256.645 235.332 256.375C234.892 256.058 235.09 256.144 234.535 255.956L234.158 255.844L233.994 255.505L235.056 255.44C234.432 254.976 233.847 254.718 233.063 254.684L233.366 255.044C232.658 255.102 231.87 255.148 231.221 254.824C230.608 254.518 231.144 254.71 230.448 254.478L230.12 254.376C229.507 253.64 229.47 253.478 229.313 252.578Z" fill="white" fill-opacity="0.858824"/>
<path d="M213.733 166.896C219.682 165.256 226.521 165.088 232.609 165.897C234.565 166.158 236.828 166.447 238.672 167.154L236.74 167.267C236.806 167.514 236.877 167.751 236.91 168.004C236.364 167.793 235.603 167.752 235.119 167.505C233.104 166.474 229.536 166.918 227.277 166.894C224.385 166.864 221.449 166.634 218.564 166.878C218.098 166.917 217.725 166.95 217.258 166.872L216.944 166.676C215.819 166.903 214.878 166.997 213.733 166.896Z" fill="white"/>
<path d="M213.824 251.071C213.438 250.527 213.219 250.16 213.039 249.503L213.619 249.316C213.769 249.69 213.824 249.84 214.119 250.128L214.619 249.252L213.829 248.95L213.871 248.629L214.494 248.505C214.861 248.178 215.115 248.238 215.61 248.252L218.202 248.227L227.955 252.108L226.153 252.279L225.858 251.752C225.384 251.666 224.959 251.615 224.529 251.388L224.311 251.253L223.323 251.318H223.021L221.3 251.412C222.159 251.726 223.155 251.968 223.921 252.46C224.631 252.916 225.679 253.067 226.494 253.31C225.751 254.268 225.719 254.622 224.484 254.754C223.999 254.806 223.699 254.728 223.243 254.587L223.161 254.977C220.077 254.072 216.698 252.49 213.824 251.071ZM218.146 252.392C219.103 253.14 220.549 252.72 221.745 253.276C222.557 253.654 222.72 253.871 223.243 254.587C223.699 254.728 223.999 254.806 224.484 254.754C225.719 254.622 225.751 254.268 226.494 253.31C225.679 253.067 224.631 252.916 223.921 252.46C223.155 251.968 222.159 251.726 221.3 251.412L220.923 251.403C220.15 251.38 219.493 251.462 218.869 250.938C218.441 251.191 218.346 251.31 218.207 251.8L218.146 252.392ZM218.146 252.392L218.207 251.8C218.346 251.31 218.441 251.191 218.869 250.938C219.493 251.462 220.15 251.38 220.923 251.403L221.3 251.412L223.021 251.318C222.154 251.122 221.186 250.972 220.361 250.642C219.467 250.283 219.066 249.862 218.049 249.716C216.915 249.554 215.806 249.208 214.729 249.837L214.51 250.003L214.655 250.562C215.015 250.694 215.231 250.738 215.617 250.758C216.091 250.78 216.213 250.888 216.619 251.102C217.141 251.376 217.391 251.342 217.74 251.886C218.022 252.325 217.877 252.19 218.146 252.392Z" fill="white" fill-opacity="0.878431"/>
<path d="M218.146 252.392C217.876 252.19 218.022 252.325 217.74 251.886C217.391 251.342 217.14 251.376 216.619 251.102C216.212 250.888 216.09 250.78 215.617 250.758C215.231 250.738 215.014 250.694 214.654 250.562L214.51 250.003L214.728 249.837C215.806 249.208 216.915 249.554 218.049 249.716C219.066 249.862 219.466 250.283 220.361 250.642C221.186 250.972 222.154 251.122 223.02 251.318L221.3 251.412L220.923 251.403C220.15 251.38 219.492 251.462 218.869 250.938C218.441 251.191 218.346 251.31 218.207 251.8L218.146 252.392Z" fill="white" fill-opacity="0.827451"/>
<path d="M218.146 252.392L218.207 251.8C218.346 251.31 218.441 251.191 218.869 250.938C219.493 251.462 220.15 251.38 220.923 251.403L221.3 251.412C222.159 251.726 223.155 251.968 223.921 252.46C224.631 252.916 225.679 253.067 226.494 253.31C225.751 254.268 225.719 254.622 224.484 254.754C223.999 254.806 223.699 254.728 223.243 254.587C222.72 253.871 222.557 253.654 221.745 253.276C220.549 252.72 219.103 253.14 218.146 252.392Z" fill="url(#paint1_linear_24_2)"/>
<path d="M330.396 166.638C335.674 167.273 340.321 168.508 345.165 170.731C346.858 171.508 348.666 172.331 350.146 173.47C349.632 173.49 349.781 173.538 349.368 173.391L349.119 173.292L348.608 173.943C347.995 173.99 347.474 174.04 346.87 173.876C346.656 173.556 346.481 173.296 346.12 173.126C345.546 172.857 345.45 172.726 344.996 172.252L343.369 172.25C342.784 172.64 342.186 172.5 341.494 172.5C341.246 172.111 341.08 171.835 340.996 171.378L341.244 171.005C340.902 170.488 341.013 170.778 340.932 170.129L341.369 170.255C342.049 170.504 342.396 170.532 343.119 170.505L343.143 170.354L340.666 169.406L340.534 169.954C339.434 170.857 337.778 170.5 336.369 170.5C335.839 170.148 335.614 170.252 334.994 170.25L334.62 169.626L333.869 169.25C333.054 168.773 331.592 169.001 330.619 169C329.855 168.493 328.074 168.751 327.119 168.75C326.61 168.412 326.461 168.502 325.869 168.5C325.269 168.101 324.58 168.251 323.869 168.25C323.272 167.854 323.025 168.156 322.496 167.628L322.744 167.255H326.619C327.382 166.746 329.036 167.064 330.048 166.75L330.396 166.638Z" fill="white"/>
<path d="M332.895 188.445C341.228 189.14 345.831 194.716 351.243 200.456L346.308 199.82C341.441 199.142 336.133 198.354 332.064 195.374C330.063 193.909 328.399 191.852 326.827 189.954C327.553 189.072 331.703 188.634 332.895 188.445Z" fill="#38F0E5"/>
<path d="M321.927 240.376C322.727 240.33 323.501 240.447 324.263 240.692C328.405 242.021 330.567 246.092 332.483 249.684L314.067 255.83L305.207 258.56C309.296 250.496 313.165 243.871 321.927 240.376Z" fill="#16B4AE"/>
<path d="M286.821 261.678C288.962 254.333 292.747 247.766 299.618 244.011C301.892 242.768 304.864 241.558 307.47 242.314C308.638 242.653 309.997 243.32 310.921 244.111C309.449 246.113 308.058 248.176 306.904 250.381C305.267 253.509 304.619 258.301 301.2 259.996C299.507 260.835 297.508 261.26 295.689 261.765L287.961 263.999C287.693 263.038 287.478 262.438 286.821 261.678Z" fill="#16B4AE"/>
<path d="M208.16 185.245C211.771 185.109 216.033 185.269 218.956 187.664C221.454 189.708 221.44 192.766 221.693 195.718L222.198 202.244C218.122 198.82 213.603 195.99 208.171 195.584L207.816 195.56C204.788 195.842 201.755 196.172 199.225 198.03C198.305 198.706 197.616 199.631 196.656 200.252L196.581 199.128C195.442 197.183 193.45 195.696 191.713 194.312C196.548 189.522 201.085 185.72 208.16 185.245Z" fill="#38F0E5"/>
<path d="M220.262 174.753C223.259 174.254 227.13 174.754 230.052 175.518C237.03 177.342 240.556 181.021 244.357 186.87C245.877 189.208 247.367 191.568 249.444 193.464C253.009 196.722 257.575 198.402 262.026 200.053C259.743 197.957 256.963 196.424 254.482 194.575C250.842 191.862 247.858 188.323 245.062 184.776C250.256 186.787 255.149 189.674 259.604 192.998C264.638 197.522 267.574 203.368 270.777 209.2L267.066 211.656C263.492 210.496 260.685 207.456 258.414 204.61C257.142 203.016 255.96 201.277 254.302 200.058C251.307 197.855 247.729 197.548 245.022 194.702C239.891 189.308 237.763 181.852 230.93 178.008C228.501 176.641 225.394 175.956 222.617 175.752C221.625 175.68 220.633 175.865 219.66 175.607L219.64 175.128L220.262 174.753Z" fill="#38F0E5"/>
<path d="M287.961 263.999L276.242 266.89C274.731 267.264 272.596 268.127 271.07 268.094L273.729 264.954C276.939 260.745 278.714 255.734 277.988 250.418L277.927 250.003C277.591 247.649 276.874 245.37 276.455 243.03C275.653 238.556 276.465 233.714 277.755 229.382C278.415 227.164 279.3 223.844 281.682 222.871C282.35 222.598 283.277 222.762 283.944 223C285.987 223.729 287.544 225.56 288.466 227.467C290.55 231.781 290.605 236.426 290.621 241.11C290.627 242.747 290.804 244.458 290.445 246.066C289.869 248.642 288.569 251.164 287.713 253.672C286.986 255.801 285.587 259.578 286.821 261.678C287.478 262.438 287.693 263.038 287.961 263.999Z" fill="#38F0E5"/>
<path d="M218.202 248.227C207.834 243.69 197.352 238.499 188.86 230.881C191.94 230.874 195.069 230.794 198.143 230.99C202.681 231.277 207.208 231.983 211.71 232.604C217.584 233.415 225.233 233.67 229.675 238.116C231.731 240.174 232.63 243.148 234.062 245.632C235.312 247.802 236.914 249.631 238.665 251.407L233.782 239.41C241.742 242.433 249.477 247.672 254.641 254.503C256.95 257.556 258.876 260.911 261.222 263.937L251.572 260.582C250.019 260.04 248.432 259.318 246.837 258.954L229.313 252.578L227.954 252.108L218.202 248.227Z" fill="#38F0E5"/>
<path d="M218.296 176.962C220.213 176.773 222.22 176.704 224.137 176.926C226.621 177.215 229.123 178.505 230.955 180.169C236.121 184.861 238.074 191.813 242.871 196.694C245.456 199.325 249.067 199.568 251.947 201.631C254.793 203.67 256.088 207.147 258.555 209.552C261.384 212.31 265.105 213.815 267.666 216.938C270.586 220.5 273.163 225.182 273.762 229.804C274.157 232.859 273.842 236.038 273.528 239.09C271.551 237.021 268.4 233.567 265.494 232.92C263.145 232.396 260.899 233.706 259 234.924L258.707 235.115C255.487 229.096 251.27 223.552 246.168 219.012C243.063 216.49 239.538 214.285 236.141 212.176C232.682 210.028 228.51 208.172 226.132 204.72C223.031 200.218 224.572 193.719 225.478 188.731C227.243 189.307 229.157 189.838 230.753 190.802C236.882 194.502 238.069 202.783 243.919 207.113C242.359 203.087 240.855 198.922 238.544 195.252C233.231 186.818 225.812 185.526 216.72 183.608L204.792 180.922C209.28 178.942 213.429 177.638 218.296 176.962Z" fill="#38F0E5"/>
<path d="M276.56 206.988C278.338 209.15 279.86 211.67 281.926 213.573C286.772 218.038 294.378 218.77 300.15 221.731C304.781 224.106 308.813 227.569 313.64 229.554C316.924 230.904 320.358 231.545 323.869 231.971C326.367 232.274 328.906 232.554 331.404 232.149C335.382 231.505 338.708 229.086 342.176 227.206C345.166 225.584 348.268 224.118 351.494 223.032C357.487 221.016 363.744 220.822 369.998 220.596C368.106 223.636 366.232 226.622 363.954 229.396C359.396 234.944 353.645 239.473 347.456 243.066L333.067 249.545C332.625 247.252 331.984 244.909 330.746 242.906C329.236 240.462 326.88 238.624 324.048 238.002C319.74 237.054 315.593 239.816 312.151 242.015C310.218 241.034 308.236 240.334 306.052 240.202C300.478 239.864 295.168 243.582 291.21 247.1C291.012 246.664 292.584 242.054 292.766 241.17C293.622 237.016 293.618 232.232 291.939 228.26C290.462 224.766 287.844 222.092 284.288 220.719C283.318 220.344 282.144 220.082 281.164 220.578C278.294 222.033 277.477 225.348 276.604 228.156C275.258 225.083 273.762 222.089 272.039 219.207C271.09 217.62 269.496 215.836 268.89 214.132C271.736 211.97 274.207 209.674 276.56 206.988Z" fill="#16B4AE"/>
<path d="M223.052 169.478C228.03 169.048 233.708 169.778 238.494 171.123C247.015 173.519 254.544 178.288 260.437 184.877C265.968 191.061 269.989 198.276 274.025 205.467L272.619 208.028C269.886 203.911 267.86 199.352 264.962 195.35C262.386 191.792 259.027 188.847 255.259 186.608C252.073 184.715 248.514 183.552 245.353 181.61C241.628 179.32 238.696 175.937 234.47 174.473C224.29 170.946 210.662 174.727 201.388 179.252C196.868 181.458 192.232 184.896 189.076 188.828C188.131 190.006 187.057 191.514 186.666 193.003C185.72 196.598 191.092 198.29 193.106 200.503C194.82 202.387 196.08 204.714 197.28 206.946L197.835 205.798C199.322 202.876 201.092 199.862 204.418 198.827C208.076 197.689 212.403 198.538 215.728 200.317C220.283 202.755 223.77 206.845 228.023 209.752C238.075 216.625 249.994 222.656 255.145 234.388C257.253 239.19 258.571 244.504 260.057 249.532C260.181 248.092 259.941 246.488 259.852 245.036L259.255 236.177C260.567 235.871 262.02 235.658 263.369 235.635C266.149 235.587 268.381 237.368 270.306 239.148L272.901 242.613C275.847 247.366 276.809 253.202 275.501 258.634C274.451 262.995 272.513 266.16 268.651 268.541C267.205 267.579 265.831 266.582 264.687 265.263C262.167 262.357 260.74 258.682 258.623 255.497C252.023 245.562 240.797 237.8 229.527 234.124C221.019 231.35 212.048 230.052 203.3 228.268C210.106 225.967 216.937 221.54 224.316 221.719C233.209 221.934 239.373 229.692 245.13 235.525C242.919 231.073 240.34 227.278 236.354 224.211C233.324 221.881 229.687 220.265 225.902 219.705C222.254 219.166 218.62 219.552 215.163 220.844C209.102 223.11 204.116 227.235 197.514 228.074C194.864 228.412 192.142 228.532 189.473 228.63C188.893 228.652 187.605 228.832 187.072 228.669C186.656 228.542 185.867 227.836 185.508 227.553C180.868 223.898 177.84 216.924 177.164 211.159C176.138 202.41 178.717 194.08 184.243 187.247C193.852 175.364 208.428 171.034 223.052 169.478Z" fill="#38F0E5"/>
<path d="M179.587 206.53L195.305 217.907C198.988 216.086 202.861 213.431 206.862 212.476C210.959 211.498 214.363 213.152 217.745 215.296C217.875 215.521 217.821 215.376 217.816 215.752C214.488 215.655 210.664 214.45 207.388 215.005L206.994 215.081C202.843 215.832 199.19 218.642 195.219 220.104C192.436 218.592 190.197 216.678 187.662 214.813C185.784 213.43 183.69 212.188 182.081 210.482C181.044 209.382 180.325 207.84 179.587 206.53Z" fill="white"/>
<path d="M321.26 170.46L324.359 170.334C335.592 170.288 347.151 173.964 355.178 182.071C362.61 189.577 368.225 199.277 369.66 209.842C370.026 212.536 369.929 215.312 369.923 218.026C366.818 218.101 363.646 217.92 360.555 218.188C358.512 218.364 356.477 218.844 354.468 219.244C353.751 219.387 351.551 220.077 350.955 219.953C350.306 219.818 349.013 218.824 348.383 218.478L341.843 215.204C331.823 210.669 321.3 205.68 310.215 204.733C304.965 204.284 299.72 204.723 294.49 205.224L304.612 193.745C307.242 193.67 309.981 193.69 312.565 193.17C315.606 192.56 318.567 191.597 321.546 190.751C321.991 190.625 323.409 190.054 323.807 190.114C324.53 190.225 327.362 194.274 328.074 195.038C329.78 196.868 331.68 198.216 333.952 199.258C339.014 201.58 344.67 201.89 350.065 202.991L363.115 206.094C359.66 203.882 355.318 202.78 352.225 200.084C350.903 198.932 349.906 197.368 348.821 196.003C346.454 193.026 343.693 190.188 340.314 188.376C334.111 185.049 326.818 186.986 320.502 188.908C317.81 189.65 314.946 190.522 312.17 190.805C309.822 191.044 307.434 190.918 305.094 191.166C300.803 191.62 296.892 199.046 294.346 202.088C292.835 203.894 291.046 205.536 289.376 207.198C296.001 207.168 302.739 206.444 309.36 206.984C318.155 207.7 326.322 211.418 334.314 214.886L349.785 221.53C345.461 223.013 341.55 224.888 337.586 227.145C334.127 221.486 328.25 217.74 322.86 214.126C323.948 215.868 325.199 217.578 326.648 219.04C328.496 220.904 330.739 222.365 332.56 224.254C333.706 225.441 334.585 226.842 335.431 228.248C331.388 229.418 327.234 229.842 323.077 229.102C320.564 228.654 318.042 227.961 315.685 226.969C310.766 224.9 306.398 221.783 301.584 219.503C296.24 216.972 290.186 215.958 285.322 212.462C282.557 210.474 280.695 207.536 278.766 204.786L292.174 185.838C299.023 176.746 310.264 171.992 321.26 170.46Z" fill="url(#paint2_linear_24_2)"/>
<path d="M321.967 174.215C329.531 174.042 336.887 175.535 343.753 178.745C350.092 181.708 355.699 186.162 359.207 192.307C360.728 194.97 361.75 197.843 362.79 200.716C359.425 197.745 357.723 192.96 354.905 189.47C347.531 180.34 335.327 177.831 324.277 176.597C318.736 177.292 316.285 180.222 312.622 184.056L307.248 183.588C301.215 183.4 297.071 188.823 293.653 193.043C291.217 196.052 288.851 199.154 286.053 201.84C286.305 200.641 287.097 199.326 287.666 198.238C290.352 193.102 294.167 188.392 298.805 184.892C301.287 183.018 305.003 180.264 308.297 180.772L308.619 180.827C309.504 180.963 310.19 181.232 310.998 181.606C311.141 181.672 311.885 182.066 311.971 182.065C312.07 182.064 312.116 181.93 312.188 181.862C315.313 178.901 317.546 175.266 321.967 174.215Z" fill="white"/>
<defs>
<linearGradient id="paint0_linear_24_2" x1="264.146" y1="271.991" x2="279.929" y2="160.766" gradientUnits="userSpaceOnUse">
<stop stop-color="white" stop-opacity="0.968627"/>
<stop offset="1" stop-color="white"/>
</linearGradient>
<linearGradient id="paint1_linear_24_2" x1="223.564" y1="253.874" x2="223.644" y2="252.434" gradientUnits="userSpaceOnUse">
<stop stop-color="white" stop-opacity="0.709804"/>
<stop offset="1" stop-color="white" stop-opacity="0.74902"/>
</linearGradient>
<linearGradient id="paint2_linear_24_2" x1="344.872" y1="233.816" x2="305.183" y2="175.275" gradientUnits="userSpaceOnUse">
<stop stop-color="#00C3C9"/>
<stop offset="1" stop-color="#2FF6ED"/>
</linearGradient>
</defs>
</svg>
